VesperLibre-Regular.ufo
<glyph name="quotedbl" format="1">
  <advance width="683"/>
  <unicode hex="0022"/>
  <outline>
    <contour>
      <point x="113" y="1401" type="line"/>
      <point x="113" y="958" type="line"/>
      <point x="253" y="901" type="line"/>
      <point x="267" y="1044"/>
      <point x="278" y="1237"/>
      <point x="281" y="1401" type="curve"/>
    </contour>
    <contour>
      <point x="397" y="1401" type="line"/>
      <point x="397" y="958" type="line"/>
      <point x="537" y="901" type="line"/>
      <point x="551" y="1044"/>
      <point x="562" y="1237"/>
      <point x="565" y="1401" type="curve"/>
    </contour>
  </outline>
</glyph>
<glyph name="numbersign" format="1">
  <advance width="1421"/>
  <unicode hex="0023"/>
  <outline>
    <contour>
      <point x="1339" y="898" type="line"/>
      <point x="1140" y="898" type="line"/>
      <point x="1236" y="1137" type="line"/>
      <point x="1110" y="1185" type="line"/>
      <point x="995" y="898" type="line"/>
      <point x="684" y="898" type="line"/>
      <point x="780" y="1137" type="line"/>
      <point x="654" y="1185" type="line"/>
      <point x="539" y="898" type="line"/>
      <point x="290" y="898" type="line"/>
      <point x="263" y="757" type="line"/>
      <point x="336" y="757"/>
      <point x="409" y="756"/>
      <point x="482" y="757" type="curve"/>
      <point x="354" y="437" type="line"/>
      <point x="106" y="437" type="line"/>
      <point x="79" y="297" type="line"/>
      <point x="298" y="299" type="line"/>
      <point x="179" y="2" type="line"/>
      <point x="309" y="-35" type="line"/>
      <point x="444" y="301" type="line"/>
      <point x="549" y="303"/>
      <point x="653" y="305"/>
      <point x="758" y="307" type="curve"/>
      <point x="635" y="2" type="line"/>
      <point x="765" y="-35" type="line"/>
      <point x="904" y="311" type="line"/>
      <point x="1135" y="319" type="line"/>
      <point x="1155" y="437" type="line"/>
      <point x="955" y="437" type="line"/>
      <point x="1088" y="768" type="line"/>
      <point x="1165" y="771"/>
      <point x="1242" y="775"/>
      <point x="1319" y="779" type="curve"/>
    </contour>
    <contour>
      <point x="810" y="437" type="line"/>
      <point x="499" y="437" type="line"/>
      <point x="628" y="758" type="line"/>
      <point x="732" y="759"/>
      <point x="837" y="761"/>
      <point x="941" y="764" type="curve"/>
    </contour>
  </outline>
</glyph>
<glyph name="dollar" format="1">
  <advance width="1017"/>
  <unicode hex="0024"/>
  <outline>
    <contour>
      <point x="925" y="628"/>
      <point x="772" y="704"/>
      <point x="597" y="767" type="curve" smooth="yes"/>
      <point x="557" y="781" type="line"/>
      <point x="569" y="1222" type="line"/>
      <point x="610" y="1227"/>
      <point x="656" y="1230"/>
      <point x="705" y="1230" type="curve"/>
      <point x="803" y="1009" type="line"/>
      <point x="891" y="1032" type="line"/>
      <point x="857" y="1320" type="line"/>
      <point x="766" y="1316" type="line"/>
      <point x="744" y="1321"/>
      <point x="653" y="1341"/>
      <point x="575" y="1341" type="curve" smooth="yes"/>
      <point x="572" y="1341" type="line"/>
      <point x="576" y="1490" type="line"/>
      <point x="441" y="1437" type="line"/>
      <point x="442" y="1326" type="line"/>
      <point x="267" y="1286"/>
      <point x="132" y="1165"/>
      <point x="132" y="993" type="curve" smooth="yes"/>
      <point x="132" y="763"/>
      <point x="294" y="681"/>
      <point x="447" y="628" type="curve"/>
      <point x="449" y="627" type="line"/>
      <point x="436" y="136" type="line"/>
      <point x="400" y="133"/>
      <point x="364" y="132"/>
      <point x="331" y="132" type="curve" smooth="yes"/>
      <point x="302" y="132"/>
      <point x="275" y="133"/>
      <point x="252" y="135" type="curve"/>
      <point x="233" y="341" type="line"/>
      <point x="132" y="372" type="line"/>
      <point x="71" y="106" type="line"/>
      <point x="141" y="60"/>
      <point x="276" y="6"/>
      <point x="432" y="1" type="curve"/>
      <point x="428" y="-169" type="line"/>
      <point x="563" y="-114" type="line"/>
      <point x="562" y="10" type="line"/>
      <point x="779" y="47"/>
      <point x="925" y="197"/>
      <point x="925" y="415" type="curve" smooth="yes"/>
    </contour>
    <contour>
      <point x="304" y="1056"/>
      <point x="308" y="1103"/>
      <point x="323" y="1130" type="curve" smooth="yes"/>
      <point x="336" y="1154"/>
      <point x="379" y="1179"/>
      <point x="444" y="1198" type="curve"/>
      <point x="449" y="825" type="line"/>
      <point x="355" y="867"/>
      <point x="304" y="915"/>
      <point x="304" y="1011" type="curve" smooth="yes"/>
    </contour>
    <contour>
      <point x="681" y="193"/>
      <point x="626" y="170"/>
      <point x="560" y="155" type="curve"/>
      <point x="555" y="589" type="line"/>
      <point x="659" y="547"/>
      <point x="736" y="490"/>
      <point x="736" y="354" type="curve" smooth="yes"/>
      <point x="736" y="318"/>
      <point x="722" y="249"/>
      <point x="706" y="227" type="curve" smooth="yes"/>
    </contour>
  </outline>
</glyph>
<glyph name="quotesingle" format="1">
  <advance width="398"/>
  <unicode hex="0027"/>
  <outline>
    <contour>
      <point x="113" y="1401" type="line"/>
      <point x="113" y="958" type="line"/>
      <point x="253" y="901" type="line"/>
      <point x="267" y="1044"/>
      <point x="278" y="1237"/>
      <point x="281" y="1401" type="curve"/>
    </contour>
  </outline>
</glyph>
<glyph name="parenright" format="1">
  <advance width="622"/>
  <unicode hex="0029"/>
  <outline>
    <contour>
      <point x="526" y="980"/>
      <point x="395" y="1269"/>
      <point x="93" y="1488" type="curve"/>
      <point x="42" y="1436" type="line"/>
      <point x="218" y="1257"/>
      <point x="346" y="872"/>
      <point x="346" y="578" type="curve" smooth="yes"/>
      <point x="346" y="284"/>
      <point x="223" y="-100"/>
      <point x="41" y="-278" type="curve"/>
      <point x="94" y="-330" type="line"/>
      <point x="397" y="-108"/>
      <point x="526" y="178"/>
      <point x="526" y="578" type="curve" smooth="yes"/>
    </contour>
  </outline>
</glyph>
<glyph name="comma" format="1">
  <advance width="513"/>
  <unicode hex="002C"/>
  <outline>
    <contour>
      <point x="150" y="40"/>
      <point x="193" y="21"/>
      <point x="236" y="12" type="curve"/>
      <point x="97" y="-278" type="line"/>
      <point x="168" y="-295" type="line"/>
      <point x="298" y="-190"/>
      <point x="379" y="-28"/>
      <point x="381" y="88" type="curve" smooth="yes"/>
      <point x="381" y="119"/>
      <point x="377" y="179"/>
      <point x="363" y="200" type="curve"/>
      <point x="348" y="220"/>
      <point x="285" y="234"/>
      <point x="234" y="236" type="curve" smooth="yes"/>
      <point x="202" y="237"/>
      <point x="180" y="232"/>
      <point x="164" y="220" type="curve" smooth="yes"/>
      <point x="139" y="202"/>
      <point x="132" y="167"/>
      <point x="130" y="119" type="curve" smooth="yes"/>
      <point x="129" y="94"/>
      <point x="132" y="72"/>
      <point x="139" y="59" type="curve" smooth="yes"/>
    </contour>
  </outline>
</glyph>
<glyph name="one" format="1">
  <advance width="818"/>
  <unicode hex="0031"/>
  <outline>
    <contour>
      <point x="97" y="1014" type="line"/>
      <point x="343" y="1014" type="line"/>
      <point x="343" y="134" type="line"/>
      <point x="133" y="73" type="line"/>
      <point x="120" y="0" type="line"/>
      <point x="686" y="0" type="line"/>
      <point x="706" y="91" type="line"/>
      <point x="529" y="135" type="line"/>
      <point x="529" y="1205" type="line"/>
      <point x="115" y="1092" type="line"/>
    </contour>
  </outline>
</glyph>
<glyph name="two" format="1">
  <advance width="1144"/>
  <unicode hex="0032"/>
  <outline>
    <contour>
      <point x="170" y="878" type="line"/>
      <point x="262" y="858" type="line"/>
      <point x="341" y="1080" type="line"/>
      <point x="385" y="1087"/>
      <point x="425" y="1091"/>
      <point x="463" y="1091" type="curve" smooth="yes"/>
      <point x="592" y="1091"/>
      <point x="687" y="1051"/>
      <point x="725" y="992" type="curve" smooth="yes"/>
      <point x="743" y="963"/>
      <point x="751" y="932"/>
      <point x="751" y="899" type="curve" smooth="yes"/>
      <point x="751" y="791"/>
      <point x="669" y="669"/>
      <point x="610" y="602" type="curve" smooth="yes"/>
      <point x="503" y="479"/>
      <point x="251" y="229"/>
      <point x="128" y="94" type="curve"/>
      <point x="163" y="0" type="line"/>
      <point x="942" y="0" type="line"/>
      <point x="1015" y="306" type="line"/>
      <point x="929" y="328" type="line"/>
      <point x="813" y="151" type="line"/>
      <point x="308" y="111" type="line"/>
      <point x="580" y="344"/>
      <point x="953" y="642"/>
      <point x="953" y="899" type="curve" smooth="yes"/>
      <point x="953" y="1093"/>
      <point x="794" y="1212"/>
      <point x="555" y="1212" type="curve" smooth="yes"/>
      <point x="498" y="1212"/>
      <point x="301" y="1191"/>
      <point x="165" y="1106" type="curve"/>
    </contour>
  </outline>
</glyph>
<glyph name="four" format="1">
  <advance width="1076"/>
  <unicode hex="0034"/>
  <outline>
    <contour>
      <point x="947" y="275" type="line"/>
      <point x="974" y="424" type="line"/>
      <point x="792" y="417" type="line"/>
      <point x="792" y="680" type="line"/>
      <point x="621" y="619" type="line"/>
      <point x="621" y="411" type="line"/>
      <point x="254" y="398" type="line"/>
      <point x="755" y="1142" type="line"/>
      <point x="586" y="1212" type="line"/>
      <point x="43" y="356" type="line"/>
      <point x="89" y="275" type="line"/>
      <point x="621" y="275" type="line"/>
      <point x="621" y="-118" type="line"/>
      <point x="792" y="-56" type="line"/>
      <point x="792" y="275" type="line"/>
    </contour>
  </outline>
</glyph>
<glyph name="five" format="1">
  <advance width="999"/>
  <unicode hex="0035"/>
  <outline>
    <contour>
      <point x="120" y="-88" type="line"/>
      <point x="372" y="-82"/>
      <point x="847" y="16"/>
      <point x="847" y="370" type="curve" smooth="yes"/>
      <point x="847" y="596"/>
      <point x="706" y="697"/>
      <point x="471" y="697" type="curve" smooth="yes"/>
      <point x="428" y="697"/>
      <point x="382" y="694"/>
      <point x="332" y="689" type="curve"/>
      <point x="345" y="1059" type="line"/>
      <point x="803" y="1040" type="line"/>
      <point x="868" y="1187" type="line"/>
      <point x="194" y="1187" type="line"/>
      <point x="180" y="601" type="line"/>
      <point x="218" y="605"/>
      <point x="271" y="608"/>
      <point x="317" y="608" type="curve" smooth="yes"/>
      <point x="497" y="608"/>
      <point x="651" y="546"/>
      <point x="651" y="357" type="curve" smooth="yes"/>
      <point x="651" y="126"/>
      <point x="324" y="36"/>
      <point x="103" y="-15" type="curve"/>
    </contour>
  </outline>
</glyph>
<glyph name="six" format="1">
  <advance width="1081"/>
  <unicode hex="0036"/>
  <outline>
    <contour>
      <point x="321" y="287"/>
      <point x="300" y="379"/>
      <point x="300" y="503" type="curve" smooth="yes"/>
      <point x="300" y="802"/>
      <point x="499" y="1009"/>
      <point x="782" y="1188" type="curve"/>
      <point x="749" y="1255" type="line"/>
      <point x="342" y="1131"/>
      <point x="105" y="803"/>
      <point x="105" y="449" type="curve" smooth="yes"/>
      <point x="105" y="155"/>
      <point x="274" y="-24"/>
      <point x="518" y="-24" type="curve" smooth="yes"/>
      <point x="781" y="-24"/>
      <point x="964" y="143"/>
      <point x="964" y="381" type="curve" smooth="yes"/>
      <point x="964" y="603"/>
      <point x="830" y="718"/>
      <point x="623" y="718" type="curve" smooth="yes"/>
      <point x="577" y="718"/>
      <point x="527" y="710"/>
      <point x="474" y="690" type="curve"/>
      <point x="461" y="634" type="line"/>
      <point x="697" y="624"/>
      <point x="776" y="493"/>
      <point x="776" y="342" type="curve" smooth="yes"/>
      <point x="776" y="271"/>
      <point x="762" y="183"/>
      <point x="735" y="145" type="curve" smooth="yes"/>
      <point x="714" y="114"/>
      <point x="671" y="95"/>
      <point x="597" y="95" type="curve" smooth="yes"/>
      <point x="505" y="95"/>
      <point x="422" y="149"/>
      <point x="374" y="215" type="curve" smooth="yes"/>
    </contour>
  </outline>
</glyph>
<glyph name="seven" format="1">
  <advance width="1045"/>
  <unicode hex="0037"/>
  <outline>
    <contour>
      <point x="802" y="1049" type="line"/>
      <point x="207" y="0" type="line"/>
      <point x="384" y="-67" type="line"/>
      <point x="979" y="1079" type="line"/>
      <point x="939" y="1192" type="line"/>
      <point x="264" y="1187" type="line"/>
      <point x="111" y="1198" type="line"/>
      <point x="103" y="892" type="line"/>
      <point x="201" y="869" type="line"/>
      <point x="260" y="1034" type="line"/>
    </contour>
  </outline>
</glyph>
<glyph name="nine" format="1">
  <advance width="1066"/>
  <unicode hex="0039"/>
  <outline>
    <contour>
      <point x="177" y="-86" type="line"/>
      <point x="369" y="-86"/>
      <point x="600" y="18"/>
      <point x="741" y="170" type="curve" smooth="yes"/>
      <point x="885" y="325"/>
      <point x="939" y="501"/>
      <point x="939" y="706" type="curve" smooth="yes"/>
      <point x="939" y="1010"/>
      <point x="781" y="1212"/>
      <point x="504" y="1212" type="curve" smooth="yes"/>
      <point x="265" y="1212"/>
      <point x="105" y="1060"/>
      <point x="105" y="833" type="curve" smooth="yes"/>
      <point x="105" y="721"/>
      <point x="134" y="649"/>
      <point x="192" y="586" type="curve" smooth="yes"/>
      <point x="237" y="536"/>
      <point x="317" y="500"/>
      <point x="415" y="500" type="curve" smooth="yes"/>
      <point x="469" y="500"/>
      <point x="551" y="508"/>
      <point x="620" y="534" type="curve"/>
      <point x="606" y="582" type="line"/>
      <point x="473" y="590"/>
      <point x="391" y="623"/>
      <point x="343" y="679" type="curve" smooth="yes"/>
      <point x="294" y="736"/>
      <point x="286" y="802"/>
      <point x="286" y="876" type="curve" smooth="yes"/>
      <point x="286" y="956"/>
      <point x="300" y="1021"/>
      <point x="327" y="1055" type="curve" smooth="yes"/>
      <point x="360" y="1096"/>
      <point x="413" y="1105"/>
      <point x="458" y="1105" type="curve" smooth="yes"/>
      <point x="525" y="1105"/>
      <point x="578" y="1083"/>
      <point x="619" y="1046" type="curve" smooth="yes"/>
      <point x="709" y="964"/>
      <point x="742" y="814"/>
      <point x="742" y="713" type="curve" smooth="yes"/>
      <point x="742" y="415"/>
      <point x="618" y="150"/>
      <point x="163" y="-20" type="curve"/>
    </contour>
  </outline>
</glyph>
<glyph name="colon" format="1">
  <advance width="570"/>
  <unicode hex="003A"/>
  <outline>
    <contour>
      <point x="399" y="619"/>
      <point x="422" y="763"/>
      <point x="395" y="794" type="curve"/>
      <point x="373" y="823"/>
      <point x="237" y="847"/>
      <point x="198" y="819" type="curve" smooth="yes"/>
      <point x="167" y="798"/>
      <point x="146" y="654"/>
      <point x="174" y="621" type="curve"/>
      <point x="201" y="586"/>
      <point x="343" y="576"/>
      <point x="369" y="597" type="curve"/>
    </contour>
    <contour>
      <point x="399" y="23"/>
      <point x="422" y="167"/>
      <point x="395" y="198" type="curve"/>
      <point x="373" y="227"/>
      <point x="237" y="251"/>
      <point x="198" y="223" type="curve" smooth="yes"/>
      <point x="167" y="202"/>
      <point x="146" y="58"/>
      <point x="174" y="25" type="curve"/>
      <point x="201" y="-10"/>
      <point x="343" y="-20"/>
      <point x="369" y="1" type="curve"/>
    </contour>
  </outline>
</glyph>
<glyph name="semicolon" format="1">
  <advance width="574"/>
  <unicode hex="003B"/>
  <outline>
    <contour>
      <point x="399" y="619"/>
      <point x="422" y="763"/>
      <point x="395" y="794" type="curve"/>
      <point x="373" y="823"/>
      <point x="237" y="847"/>
      <point x="198" y="819" type="curve" smooth="yes"/>
      <point x="167" y="798"/>
      <point x="146" y="654"/>
      <point x="174" y="621" type="curve"/>
      <point x="201" y="586"/>
      <point x="343" y="576"/>
      <point x="369" y="597" type="curve"/>
    </contour>
    <contour>
      <point x="183" y="40"/>
      <point x="226" y="21"/>
      <point x="269" y="12" type="curve"/>
      <point x="130" y="-278" type="line"/>
      <point x="201" y="-295" type="line"/>
      <point x="331" y="-190"/>
      <point x="412" y="-28"/>
      <point x="414" y="88" type="curve" smooth="yes"/>
      <point x="414" y="119"/>
      <point x="410" y="179"/>
      <point x="396" y="200" type="curve"/>
      <point x="381" y="220"/>
      <point x="318" y="234"/>
      <point x="267" y="236" type="curve" smooth="yes"/>
      <point x="235" y="237"/>
      <point x="213" y="232"/>
      <point x="197" y="220" type="curve" smooth="yes"/>
      <point x="172" y="202"/>
      <point x="165" y="167"/>
      <point x="163" y="119" type="curve" smooth="yes"/>
      <point x="162" y="94"/>
      <point x="165" y="72"/>
      <point x="172" y="59" type="curve" smooth="yes"/>
    </contour>
  </outline>
</glyph>
<glyph name="less" format="1">
  <advance width="1024"/>
  <unicode hex="003C"/>
  <outline>
    <contour>
      <point x="103" y="410" type="line"/>
      <point x="854" y="59" type="line"/>
      <point x="915" y="192" type="line"/>
      <point x="297" y="475" type="line"/>
      <point x="914" y="754" type="line"/>
      <point x="857" y="888" type="line"/>
      <point x="103" y="540" type="line"/>
    </contour>
  </outline>
</glyph>
<glyph name="equal" format="1">
  <advance width="1024"/>
  <unicode hex="003D"/>
  <outline>
    <contour>
      <point x="169" y="792" type="line"/>
      <point x="142" y="654" type="line"/>
      <point x="392" y="656"/>
      <point x="636" y="660"/>
      <point x="864" y="672" type="curve"/>
      <point x="885" y="792" type="line"/>
    </contour>
    <contour>
      <point x="169" y="498" type="line"/>
      <point x="142" y="360" type="line"/>
      <point x="393" y="359"/>
      <point x="632" y="366"/>
      <point x="864" y="378" type="curve"/>
      <point x="885" y="498" type="line"/>
    </contour>
  </outline>
</glyph>
<glyph name="greater" format="1">
  <advance width="1024"/>
  <unicode hex="003E"/>
  <outline>
    <contour>
      <point x="111" y="192" type="line"/>
      <point x="172" y="59" type="line"/>
      <point x="923" y="410" type="line"/>
      <point x="923" y="540" type="line"/>
      <point x="169" y="888" type="line"/>
      <point x="112" y="754" type="line"/>
      <point x="729" y="475" type="line"/>
    </contour>
  </outline>
</glyph>
<glyph name="B" format="1">
  <advance width="1219"/>
  <unicode hex="0042"/>
  <outline>
    <contour>
      <point x="86" y="85" type="line"/>
      <point x="70" y="0" type="line"/>
      <point x="456" y="0" type="line" smooth="yes"/>
      <point x="832" y="0"/>
      <point x="1128" y="42"/>
      <point x="1128" y="401" type="curve" smooth="yes"/>
      <point x="1128" y="613"/>
      <point x="940" y="720"/>
      <point x="740" y="747" type="curve"/>
      <point x="895" y="776"/>
      <point x="1063" y="874"/>
      <point x="1063" y="1060" type="curve" smooth="yes"/>
      <point x="1063" y="1349"/>
      <point x="787" y="1384"/>
      <point x="448" y="1384" type="curve" smooth="yes"/>
      <point x="91" y="1384" type="line"/>
      <point x="73" y="1302" type="line"/>
      <point x="261" y="1246" type="line"/>
      <point x="261" y="139" type="line"/>
    </contour>
    <contour>
      <point x="869" y="917"/>
      <point x="758" y="813"/>
      <point x="561" y="769" type="curve"/>
      <point x="551" y="710" type="line"/>
      <point x="759" y="659"/>
      <point x="922" y="581"/>
      <point x="922" y="397" type="curve" smooth="yes"/>
      <point x="922" y="154"/>
      <point x="656" y="106"/>
      <point x="453" y="81" type="curve"/>
      <point x="453" y="1305" type="line"/>
      <point x="648" y="1288"/>
      <point x="869" y="1235"/>
      <point x="869" y="1051" type="curve" smooth="yes"/>
    </contour>
  </outline>
</glyph>
<glyph name="G" format="1">
  <advance width="1400"/>
  <unicode hex="0047"/>
  <outline>
    <contour>
      <point x="773" y="582" type="line"/>
      <point x="1043" y="523" type="line"/>
      <point x="1043" y="184" type="line"/>
      <point x="987" y="140"/>
      <point x="865" y="121"/>
      <point x="792" y="121" type="curve" smooth="yes"/>
      <point x="677" y="121"/>
      <point x="570" y="143"/>
      <point x="458" y="243" type="curve" smooth="yes"/>
      <point x="336" y="348"/>
      <point x="295" y="541"/>
      <point x="295" y="684" type="curve" smooth="yes"/>
      <point x="295" y="986"/>
      <point x="363" y="1127"/>
      <point x="450" y="1210" type="curve" smooth="yes"/>
      <point x="500" y="1257"/>
      <point x="614" y="1285"/>
      <point x="735" y="1285" type="curve" smooth="yes"/>
      <point x="822" y="1285"/>
      <point x="947" y="1262"/>
      <point x="1005" y="1227" type="curve"/>
      <point x="1099" y="1023" type="line"/>
      <point x="1196" y="1044" type="line"/>
      <point x="1156" y="1407" type="line"/>
      <point x="1024" y="1393" type="line"/>
      <point x="955" y="1409"/>
      <point x="860" y="1419"/>
      <point x="777" y="1419" type="curve" smooth="yes"/>
      <point x="622" y="1419"/>
      <point x="463" y="1376"/>
      <point x="360" y="1289" type="curve" smooth="yes"/>
      <point x="142" y="1108"/>
      <point x="89" y="846"/>
      <point x="89" y="642" type="curve" smooth="yes"/>
      <point x="89" y="443"/>
      <point x="155" y="241"/>
      <point x="279" y="128" type="curve" smooth="yes"/>
      <point x="433" y="-11"/>
      <point x="548" y="-35"/>
      <point x="745" y="-35" type="curve" smooth="yes"/>
      <point x="952" y="-35"/>
      <point x="1137" y="58"/>
      <point x="1230" y="209" type="curve"/>
      <point x="1230" y="515" type="line"/>
      <point x="1351" y="576" type="line"/>
      <point x="1366" y="666" type="line"/>
      <point x="790" y="666" type="line"/>
    </contour>
  </outline>
</glyph>
<glyph name="H" format="1">
  <advance width="1542"/>
  <unicode hex="0048"/>
  <outline>
    <contour>
      <point x="662" y="88" type="line"/>
      <point x="455" y="143" type="line"/>
      <point x="455" y="623" type="line"/>
      <point x="668" y="628"/>
      <point x="878" y="637"/>
      <point x="1087" y="648" type="curve"/>
      <point x="1087" y="144" type="line"/>
      <point x="893" y="90" type="line"/>
      <point x="876" y="0" type="line"/>
      <point x="1449" y="0" type="line"/>
      <point x="1469" y="82" type="line"/>
      <point x="1279" y="138" type="line"/>
      <point x="1279" y="1245" type="line"/>
      <point x="1460" y="1301" type="line"/>
      <point x="1474" y="1384" type="line"/>
      <point x="902" y="1384" type="line"/>
      <point x="882" y="1296" type="line"/>
      <point x="1087" y="1241" type="line"/>
      <point x="1087" y="756" type="line"/>
      <point x="455" y="756" type="line"/>
      <point x="455" y="1240" type="line"/>
      <point x="648" y="1293" type="line"/>
      <point x="666" y="1384" type="line"/>
      <point x="93" y="1384" type="line"/>
      <point x="76" y="1302" type="line"/>
      <point x="263" y="1246" type="line"/>
      <point x="263" y="139" type="line"/>
      <point x="83" y="84" type="line"/>
      <point x="70" y="0" type="line"/>
      <point x="642" y="0" type="line"/>
    </contour>
  </outline>
</glyph>
<glyph name="I" format="1">
  <advance width="720"/>
  <unicode hex="0049"/>
  <outline>
    <contour>
      <point x="263" y="140" type="line"/>
      <point x="85" y="87" type="line"/>
      <point x="68" y="0" type="line"/>
      <point x="628" y="0" type="line"/>
      <point x="648" y="84" type="line"/>
      <point x="455" y="140" type="line"/>
      <point x="455" y="1244" type="line"/>
      <point x="636" y="1299" type="line"/>
      <point x="652" y="1384" type="line"/>
      <point x="92" y="1384" type="line"/>
      <point x="75" y="1301" type="line"/>
      <point x="263" y="1246" type="line"/>
    </contour>
  </outline>
</glyph>
<glyph name="J" format="1">
  <advance width="687"/>
  <unicode hex="004A"/>
  <outline>
    <contour>
      <point x="46" y="1301" type="line"/>
      <point x="258" y="1246" type="line"/>
      <point x="258" y="175" type="line" smooth="yes"/>
      <point x="258" y="121"/>
      <point x="137" y="-180"/>
      <point x="88" y="-284" type="curve"/>
      <point x="155" y="-332" type="line"/>
      <point x="411" y="-30"/>
      <point x="450" y="43"/>
      <point x="450" y="424" type="curve" smooth="yes"/>
      <point x="450" y="1245" type="line"/>
      <point x="618" y="1299" type="line"/>
      <point x="633" y="1384" type="line"/>
      <point x="64" y="1384" type="line"/>
    </contour>
  </outline>
</glyph>
<glyph name="K" format="1">
  <advance width="1409"/>
  <unicode hex="004B"/>
  <outline>
    <contour>
      <point x="262" y="139" type="line"/>
      <point x="86" y="85" type="line"/>
      <point x="70" y="0" type="line"/>
      <point x="641" y="0" type="line"/>
      <point x="662" y="95" type="line"/>
      <point x="454" y="151" type="line"/>
      <point x="454" y="1245" type="line"/>
      <point x="639" y="1298" type="line"/>
      <point x="654" y="1384" type="line"/>
      <point x="94" y="1384" type="line"/>
      <point x="76" y="1303" type="line"/>
      <point x="262" y="1246" type="line"/>
    </contour>
    <contour>
      <point x="1213" y="146" type="line"/>
      <point x="725" y="751" type="line"/>
      <point x="1202" y="1243" type="line"/>
      <point x="1364" y="1297" type="line"/>
      <point x="1382" y="1384" type="line"/>
      <point x="842" y="1384" type="line"/>
      <point x="824" y="1303" type="line"/>
      <point x="1019" y="1246" type="line"/>
      <point x="521" y="703" type="line"/>
      <point x="1002" y="71" type="line"/>
      <point x="989" y="0" type="line"/>
      <point x="1385" y="0" type="line"/>
      <point x="1403" y="81" type="line"/>
    </contour>
  </outline>
</glyph>
<glyph name="L" format="1">
  <advance width="1191"/>
  <unicode hex="004C"/>
  <outline>
    <contour>
      <point x="1110" y="342" type="line"/>
      <point x="980" y="155" type="line"/>
      <point x="455" y="100" type="line"/>
      <point x="455" y="1243" type="line"/>
      <point x="642" y="1298" type="line"/>
      <point x="658" y="1384" type="line"/>
      <point x="93" y="1384" type="line"/>
      <point x="76" y="1300" type="line"/>
      <point x="263" y="1248" type="line"/>
      <point x="263" y="141" type="line"/>
      <point x="84" y="86" type="line"/>
      <point x="69" y="0" type="line"/>
      <point x="1113" y="0" type="line"/>
      <point x="1186" y="322" type="line"/>
    </contour>
  </outline>
</glyph>
<glyph name="M" format="1">
  <advance width="1883"/>
  <unicode hex="004D"/>
  <outline>
    <contour>
      <point x="78" y="1291" type="line"/>
      <point x="262" y="1236" type="line"/>
      <point x="262" y="139" type="line"/>
      <point x="89" y="87" type="line"/>
      <point x="71" y="0" type="line"/>
      <point x="574" y="0" type="line"/>
      <point x="591" y="84" type="line"/>
      <point x="398" y="138" type="line"/>
      <point x="398" y="473"/>
      <point x="398" y="942"/>
      <point x="372" y="1143" type="curve"/>
      <point x="847" y="-15" type="line"/>
      <point x="989" y="25" type="line"/>
      <point x="1148" y="405"/>
      <point x="1298" y="781"/>
      <point x="1426" y="1149" type="curve"/>
      <point x="1426" y="139" type="line"/>
      <point x="1249" y="85" type="line"/>
      <point x="1233" y="0" type="line"/>
      <point x="1790" y="0" type="line"/>
      <point x="1808" y="83" type="line"/>
      <point x="1618" y="138" type="line"/>
      <point x="1618" y="1235" type="line"/>
      <point x="1797" y="1289" type="line"/>
      <point x="1814" y="1384" type="line"/>
      <point x="1424" y="1384" type="line"/>
      <point x="959" y="248" type="line"/>
      <point x="458" y="1384" type="line"/>
      <point x="97" y="1384" type="line"/>
    </contour>
  </outline>
</glyph>
<glyph name="R" format="1">
  <advance width="1293"/>
  <unicode hex="0052"/>
  <outline>
    <contour>
      <point x="263" y="139" type="line"/>
      <point x="83" y="84" type="line"/>
      <point x="69" y="0" type="line"/>
      <point x="640" y="0" type="line"/>
      <point x="661" y="96" type="line"/>
      <point x="455" y="151" type="line"/>
      <point x="455" y="1304" type="line"/>
      <point x="654" y="1295"/>
      <point x="895" y="1224"/>
      <point x="895" y="1022" type="curve" smooth="yes"/>
      <point x="895" y="895"/>
      <point x="867" y="789"/>
      <point x="589" y="685" type="curve"/>
      <point x="922" y="77" type="line"/>
      <point x="907" y="0" type="line"/>
      <point x="1283" y="0" type="line"/>
      <point x="1302" y="81" type="line"/>
      <point x="1107" y="148" type="line"/>
      <point x="797" y="670" type="line"/>
      <point x="1002" y="728"/>
      <point x="1100" y="846"/>
      <point x="1100" y="1021" type="curve" smooth="yes"/>
      <point x="1100" y="1129"/>
      <point x="1044" y="1229"/>
      <point x="959" y="1286" type="curve" smooth="yes"/>
      <point x="814" y="1382"/>
      <point x="630" y="1384"/>
      <point x="462" y="1384" type="curve" smooth="yes"/>
      <point x="93" y="1384" type="line"/>
      <point x="76" y="1302" type="line"/>
      <point x="263" y="1246" type="line"/>
    </contour>
  </outline>
</glyph>
<glyph name="V" format="1">
  <advance width="1345"/>
  <unicode hex="0056"/>
  <outline>
    <contour>
      <point x="1078" y="1256" type="line"/>
      <point x="731" y="202" type="line"/>
      <point x="340" y="1250" type="line"/>
      <point x="506" y="1291" type="line"/>
      <point x="522" y="1384" type="line"/>
      <point x="-10" y="1384" type="line"/>
      <point x="-27" y="1288" type="line"/>
      <point x="108" y="1252" type="line"/>
      <point x="615" y="-35" type="line"/>
      <point x="762" y="0" type="line"/>
      <point x="1223" y="1252" type="line"/>
      <point x="1351" y="1289" type="line"/>
      <point x="1370" y="1384" type="line"/>
      <point x="914" y="1384" type="line"/>
      <point x="897" y="1290" type="line"/>
    </contour>
  </outline>
</glyph>
<glyph name="W" format="1">
  <advance width="1983"/>
  <unicode hex="0057"/>
  <outline>
    <contour>
      <point x="2008" y="1384" type="line"/>
      <point x="1543" y="1384" type="line"/>
      <point x="1524" y="1289" type="line"/>
      <point x="1725" y="1255" type="line"/>
      <point x="1406" y="235" type="line"/>
      <point x="1094" y="1248" type="line"/>
      <point x="1289" y="1290" type="line"/>
      <point x="1305" y="1384" type="line"/>
      <point x="764" y="1384" type="line"/>
      <point x="748" y="1293" type="line"/>
      <point x="887" y="1255" type="line"/>
      <point x="943" y="1078" type="line"/>
      <point x="653" y="235" type="line"/>
      <point x="352" y="1250" type="line"/>
      <point x="510" y="1291" type="line"/>
      <point x="526" y="1384" type="line"/>
      <point x="9" y="1384" type="line"/>
      <point x="-9" y="1288" type="line"/>
      <point x="133" y="1251" type="line"/>
      <point x="543" y="-35" type="line"/>
      <point x="687" y="0" type="line"/>
      <point x="993" y="921" type="line"/>
      <point x="1297" y="-35" type="line"/>
      <point x="1438" y="0" type="line"/>
      <point x="1864" y="1252" type="line"/>
      <point x="1991" y="1289" type="line"/>
    </contour>
  </outline>
</glyph>
<glyph name="Z" format="1">
  <advance width="1236"/>
  <unicode hex="005A"/>
  <outline>
    <contour>
      <point x="1071" y="377" type="line"/>
      <point x="946" y="160" type="line"/>
      <point x="279" y="116" type="line"/>
      <point x="1153" y="1261" type="line"/>
      <point x="1111" y="1384" type="line"/>
      <point x="281" y="1384" type="line"/>
      <point x="153" y="1394" type="line"/>
      <point x="99" y="1035" type="line"/>
      <point x="198" y="1010" type="line"/>
      <point x="300" y="1232" type="line"/>
      <point x="936" y="1283" type="line"/>
      <point x="65" y="151" type="line"/>
      <point x="125" y="0" type="line"/>
      <point x="1079" y="0" type="line"/>
      <point x="1163" y="355" type="line"/>
    </contour>
  </outline>
</glyph>
<glyph name="bracketleft" format="1">
  <advance width="622"/>
  <unicode hex="005B"/>
  <outline>
    <contour>
      <point x="585" y="1472" type="line"/>
      <point x="181" y="1472" type="line"/>
      <point x="181" y="-316" type="line"/>
      <point x="574" y="-316" type="line"/>
      <point x="593" y="-246" type="line"/>
      <point x="356" y="-188" type="line"/>
      <point x="356" y="1345" type="line"/>
      <point x="568" y="1398" type="line"/>
    </contour>
  </outline>
</glyph>
<glyph name="backslash" format="1">
  <advance width="882"/>
  <unicode hex="005C"/>
  <outline>
    <contour>
      <point x="207" y="1496" type="line"/>
      <point x="68" y="1442" type="line"/>
      <point x="658" y="-27" type="line"/>
      <point x="798" y="27" type="line"/>
    </contour>
  </outline>
</glyph>
<glyph name="bracketright" format="1">
  <advance width="619"/>
  <unicode hex="005D"/>
  <outline>
    <contour>
      <point x="438" y="-316" type="line"/>
      <point x="438" y="1472" type="line"/>
      <point x="54" y="1472" type="line"/>
      <point x="32" y="1400" type="line"/>
      <point x="263" y="1345" type="line"/>
      <point x="263" y="-188" type="line"/>
      <point x="50" y="-244" type="line"/>
      <point x="35" y="-316" type="line"/>
    </contour>
  </outline>
</glyph>
<glyph name="asciicircum" format="1">
  <advance width="792"/>
  <unicode hex="005E"/>
  <outline>
    <contour>
      <point x="153" y="960" type="line"/>
      <point x="396" y="1106" type="line"/>
      <point x="639" y="960" type="line"/>
      <point x="702" y="1022" type="line"/>
      <point x="451" y="1268" type="line"/>
      <point x="342" y="1268" type="line"/>
      <point x="90" y="1022" type="line"/>
    </contour>
  </outline>
</glyph>
<glyph name="underscore" format="1">
  <advance width="1025"/>
  <unicode hex="005F"/>
  <outline>
    <contour>
      <point x="1081" y="-183" type="line"/>
      <point x="-22" y="-183" type="line"/>
      <point x="-56" y="-324" type="line"/>
      <point x="1052" y="-324" type="line"/>
    </contour>
  </outline>
</glyph>
<glyph name="grave" format="1">
  <advance width="1024"/>
  <unicode hex="0060"/>
  <outline>
    <contour>
      <point x="285" y="1298" type="line"/>
      <point x="654" y="1061" type="line"/>
      <point x="676" y="1183" type="line"/>
      <point x="380" y="1447" type="line"/>
      <point x="314" y="1447" type="line"/>
    </contour>
  </outline>
</glyph>
<glyph name="c" format="1">
  <advance width="873"/>
  <unicode hex="0063"/>
  <outline>
    <contour>
      <point x="627" y="746" type="line"/>
      <point x="643" y="737"/>
      <point x="667" y="730"/>
      <point x="690" y="730" type="curve" smooth="yes"/>
      <point x="743" y="730"/>
      <point x="808" y="793"/>
      <point x="808" y="854" type="curve" smooth="yes"/>
      <point x="808" y="899"/>
      <point x="773" y="930"/>
      <point x="736" y="946" type="curve" smooth="yes"/>
      <point x="696" y="962"/>
      <point x="643" y="971"/>
      <point x="578" y="971" type="curve" smooth="yes"/>
      <point x="303" y="971"/>
      <point x="74" y="804"/>
      <point x="74" y="448" type="curve" smooth="yes"/>
      <point x="74" y="189"/>
      <point x="214" y="-25"/>
      <point x="501" y="-25" type="curve" smooth="yes"/>
      <point x="645" y="-25"/>
      <point x="772" y="81"/>
      <point x="829" y="151" type="curve"/>
      <point x="806" y="185" type="line"/>
      <point x="778" y="169"/>
      <point x="651" y="117"/>
      <point x="565" y="117" type="curve" smooth="yes"/>
      <point x="468" y="117"/>
      <point x="389" y="173"/>
      <point x="343" y="241" type="curve" smooth="yes"/>
      <point x="283" y="327"/>
      <point x="259" y="429"/>
      <point x="259" y="530" type="curve" smooth="yes"/>
      <point x="259" y="624"/>
      <point x="286" y="719"/>
      <point x="358" y="794" type="curve" smooth="yes"/>
      <point x="429" y="866"/>
      <point x="515" y="886"/>
      <point x="598" y="887" type="curve"/>
    </contour>
  </outline>
</glyph>
<glyph name="f" format="1">
  <advance width="724"/>
  <unicode hex="0066"/>
  <outline>
    <contour>
      <point x="222" y="136" type="line"/>
      <point x="76" y="87" type="line"/>
      <point x="59" y="0" type="line"/>
      <point x="637" y="0" type="line"/>
      <point x="654" y="79" type="line"/>
      <point x="400" y="126" type="line"/>
      <point x="400" y="813" type="line"/>
      <point x="698" y="869" type="line"/>
      <point x="712" y="950" type="line"/>
      <point x="400" y="950" type="line"/>
      <point x="400" y="1168"/>
      <point x="421" y="1381"/>
      <point x="630" y="1411" type="curve"/>
      <point x="662" y="1248" type="line"/>
      <point x="678" y="1240"/>
      <point x="703" y="1231"/>
      <point x="726" y="1231" type="curve" smooth="yes"/>
      <point x="779" y="1231"/>
      <point x="844" y="1295"/>
      <point x="844" y="1356" type="curve" smooth="yes"/>
      <point x="844" y="1399"/>
      <point x="811" y="1429"/>
      <point x="778" y="1444" type="curve" smooth="yes"/>
      <point x="738" y="1463"/>
      <point x="683" y="1472"/>
      <point x="613" y="1472" type="curve" smooth="yes"/>
      <point x="327" y="1472"/>
      <point x="222" y="1313"/>
      <point x="222" y="950" type="curve"/>
      <point x="74" y="950" type="line"/>
      <point x="57" y="862" type="line"/>
      <point x="222" y="811" type="line"/>
    </contour>
  </outline>
</glyph>
<glyph name="h" format="1">
  <advance width="1180"/>
  <unicode hex="0068"/>
  <outline>
    <contour>
      <point x="1167" y="82" type="line"/>
      <point x="999" y="126" type="line"/>
      <point x="999" y="618" type="line" smooth="yes"/>
      <point x="999" y="893"/>
      <point x="866" y="973"/>
      <point x="748" y="973" type="curve" smooth="yes"/>
      <point x="640" y="973"/>
      <point x="486" y="894"/>
      <point x="377" y="812" type="curve"/>
      <point x="377" y="1472" type="line"/>
      <point x="53" y="1412" type="line"/>
      <point x="44" y="1365" type="line"/>
      <point x="198" y="1287" type="line"/>
      <point x="198" y="126" type="line"/>
      <point x="56" y="83" type="line"/>
      <point x="39" y="0" type="line"/>
      <point x="525" y="0" type="line"/>
      <point x="543" y="82" type="line"/>
      <point x="377" y="126" type="line"/>
      <point x="377" y="757" type="line"/>
      <point x="467" y="787"/>
      <point x="631" y="827"/>
      <point x="686" y="827" type="curve" smooth="yes"/>
      <point x="700" y="827"/>
      <point x="711" y="823"/>
      <point x="725" y="814" type="curve"/>
      <point x="768" y="782"/>
      <point x="820" y="701"/>
      <point x="820" y="550" type="curve" smooth="yes"/>
      <point x="820" y="131" type="line"/>
      <point x="715" y="87" type="line"/>
      <point x="698" y="0" type="line"/>
      <point x="1150" y="0" type="line"/>
    </contour>
  </outline>
</glyph>
<glyph name="i" format="1">
  <advance width="590"/>
  <unicode hex="0069"/>
  <outline>
    <contour>
      <point x="407" y="1196"/>
      <point x="428" y="1327"/>
      <point x="404" y="1356" type="curve" smooth="yes"/>
      <point x="383" y="1382"/>
      <point x="259" y="1404"/>
      <point x="223" y="1379" type="curve" smooth="yes"/>
      <point x="195" y="1359"/>
      <point x="176" y="1228"/>
      <point x="201" y="1197" type="curve" smooth="yes"/>
      <point x="226" y="1165"/>
      <point x="356" y="1156"/>
      <point x="380" y="1175" type="curve" smooth="yes"/>
    </contour>
    <contour>
      <point x="215" y="126" type="line"/>
      <point x="69" y="84" type="line"/>
      <point x="54" y="0" type="line"/>
      <point x="541" y="0" type="line"/>
      <point x="559" y="82" type="line"/>
      <point x="394" y="126" type="line"/>
      <point x="394" y="965" type="line"/>
      <point x="70" y="900" type="line"/>
      <point x="61" y="853" type="line"/>
      <point x="215" y="776" type="line"/>
    </contour>
  </outline>
</glyph>
<glyph name="l" format="1">
  <advance width="572"/>
  <unicode hex="006C"/>
  <outline>
    <contour>
      <point x="40" y="1365" type="line"/>
      <point x="194" y="1287" type="line"/>
      <point x="194" y="126" type="line"/>
      <point x="56" y="83" type="line"/>
      <point x="39" y="0" type="line"/>
      <point x="525" y="0" type="line"/>
      <point x="543" y="82" type="line"/>
      <point x="373" y="126" type="line"/>
      <point x="373" y="1472" type="line"/>
      <point x="49" y="1412" type="line"/>
    </contour>
  </outline>
</glyph>
<glyph name="p" format="1">
  <advance width="1102"/>
  <unicode hex="0070"/>
  <outline>
    <contour>
      <point x="617" y="-397" type="line"/>
      <point x="368" y="-349" type="line"/>
      <point x="368" y="80" type="line"/>
      <point x="422" y="6"/>
      <point x="513" y="-25"/>
      <point x="609" y="-25" type="curve" smooth="yes"/>
      <point x="687" y="-25"/>
      <point x="761" y="9"/>
      <point x="817" y="53" type="curve" smooth="yes"/>
      <point x="943" y="151"/>
      <point x="1023" y="327"/>
      <point x="1023" y="507" type="curve" smooth="yes"/>
      <point x="1023" y="801"/>
      <point x="896" y="973"/>
      <point x="685" y="973" type="curve" smooth="yes"/>
      <point x="564" y="973"/>
      <point x="445" y="889"/>
      <point x="352" y="825" type="curve"/>
      <point x="318" y="960" type="line"/>
      <point x="44" y="900" type="line"/>
      <point x="35" y="853" type="line"/>
      <point x="189" y="775" type="line"/>
      <point x="189" y="-339" type="line"/>
      <point x="45" y="-388" type="line"/>
      <point x="30" y="-475" type="line"/>
      <point x="601" y="-475" type="line"/>
    </contour>
    <contour>
      <point x="449" y="802"/>
      <point x="571" y="831"/>
      <point x="628" y="831" type="curve" smooth="yes"/>
      <point x="651" y="831"/>
      <point x="673" y="826"/>
      <point x="695" y="809" type="curve" smooth="yes"/>
      <point x="779" y="743"/>
      <point x="846" y="614"/>
      <point x="846" y="425" type="curve" smooth="yes"/>
      <point x="846" y="277"/>
      <point x="800" y="150"/>
      <point x="762" y="133" type="curve"/>
      <point x="744" y="124"/>
      <point x="710" y="118"/>
      <point x="669" y="118" type="curve" smooth="yes"/>
      <point x="576" y="118"/>
      <point x="444" y="146"/>
      <point x="368" y="240" type="curve"/>
      <point x="368" y="698" type="line" smooth="yes"/>
      <point x="368" y="715"/>
      <point x="367" y="747"/>
      <point x="364" y="770" type="curve"/>
    </contour>
  </outline>
</glyph>
<glyph name="v" format="1">
  <advance width="1026"/>
  <unicode hex="0076"/>
  <outline>
    <contour>
      <point x="1028" y="950" type="line"/>
      <point x="664" y="950" type="line"/>
      <point x="650" y="874" type="line"/>
      <point x="794" y="824" type="line"/>
      <point x="562" y="197" type="line"/>
      <point x="311" y="826" type="line"/>
      <point x="434" y="878" type="line"/>
      <point x="449" y="950" type="line"/>
      <point x="-14" y="950" type="line"/>
      <point x="-27" y="878" type="line"/>
      <point x="117" y="821" type="line"/>
      <point x="460" y="-20" type="line"/>
      <point x="586" y="0" type="line"/>
      <point x="909" y="821" type="line"/>
      <point x="1018" y="888" type="line"/>
    </contour>
  </outline>
</glyph>
<glyph name="x" format="1">
  <advance width="1127"/>
  <unicode hex="0078"/>
  <outline>
    <contour>
      <point x="1097" y="79" type="line"/>
      <point x="943" y="115" type="line"/>
      <point x="656" y="482" type="line"/>
      <point x="948" y="834" type="line"/>
      <point x="1064" y="865" type="line"/>
      <point x="1080" y="950" type="line"/>
      <point x="698" y="950" type="line"/>
      <point x="682" y="873" type="line"/>
      <point x="811" y="839" type="line"/>
      <point x="598" y="559" type="line"/>
      <point x="399" y="838" type="line"/>
      <point x="504" y="875" type="line"/>
      <point x="518" y="950" type="line"/>
      <point x="56" y="950" type="line"/>
      <point x="40" y="870" type="line"/>
      <point x="175" y="841" type="line"/>
      <point x="465" y="463" type="line"/>
      <point x="178" y="121" type="line"/>
      <point x="52" y="76" type="line"/>
      <point x="37" y="0" type="line"/>
      <point x="424" y="0" type="line"/>
      <point x="441" y="78" type="line"/>
      <point x="315" y="110" type="line"/>
      <point x="526" y="383" type="line"/>
      <point x="727" y="112" type="line"/>
      <point x="616" y="80" type="line"/>
      <point x="601" y="0" type="line"/>
      <point x="1081" y="0" type="line"/>
    </contour>
  </outline>
</glyph>
<glyph name="y" format="1">
  <advance width="1037"/>
  <unicode hex="0079"/>
  <outline>
    <contour>
      <point x="1025" y="950" type="line"/>
      <point x="647" y="950" type="line"/>
      <point x="634" y="875" type="line"/>
      <point x="778" y="824" type="line"/>
      <point x="566" y="205" type="line"/>
      <point x="304" y="826" type="line"/>
      <point x="440" y="879" type="line"/>
      <point x="453" y="950" type="line"/>
      <point x="-24" y="950" type="line"/>
      <point x="-38" y="875" type="line"/>
      <point x="105" y="820" type="line"/>
      <point x="484" y="-21" type="line"/>
      <point x="395" y="-218"/>
      <point x="274" y="-397"/>
      <point x="228" y="-424" type="curve"/>
      <point x="198" y="-266" type="line"/>
      <point x="179" y="-253"/>
      <point x="148" y="-248"/>
      <point x="128" y="-248" type="curve" smooth="yes"/>
      <point x="77" y="-248"/>
      <point x="6" y="-321"/>
      <point x="6" y="-381" type="curve" smooth="yes"/>
      <point x="6" y="-469"/>
      <point x="121" y="-500"/>
      <point x="202" y="-500" type="curve" smooth="yes"/>
      <point x="232" y="-500"/>
      <point x="259" y="-495"/>
      <point x="287" y="-484" type="curve" smooth="yes"/>
      <point x="433" y="-425"/>
      <point x="532" y="-216"/>
      <point x="668" y="162" type="curve" smooth="yes"/>
      <point x="906" y="825" type="line"/>
      <point x="1012" y="882" type="line"/>
    </contour>
  </outline>
</glyph>
<glyph name="braceleft" format="1">
  <advance width="652"/>
  <unicode hex="007B"/>
  <outline>
    <contour>
      <point x="223" y="571"/>
      <point x="389" y="610"/>
      <point x="389" y="787" type="curve" smooth="yes"/>
      <point x="389" y="1311" type="line"/>
      <point x="603" y="1401" type="line"/>
      <point x="616" y="1472" type="line"/>
      <point x="248" y="1472"/>
      <point x="224" y="1419"/>
      <point x="224" y="1271" type="curve" smooth="yes"/>
      <point x="224" y="757" type="line" smooth="yes"/>
      <point x="224" y="695"/>
      <point x="127" y="626"/>
      <point x="87" y="602" type="curve" smooth="yes"/>
      <point x="80" y="598"/>
      <point x="66" y="585"/>
      <point x="66" y="569" type="curve" smooth="yes"/>
      <point x="66" y="553"/>
      <point x="78" y="542"/>
      <point x="87" y="537" type="curve" smooth="yes"/>
      <point x="124" y="517"/>
      <point x="224" y="454"/>
      <point x="224" y="390" type="curve" smooth="yes"/>
      <point x="224" y="-124" type="line" smooth="yes"/>
      <point x="224" y="-272"/>
      <point x="248" y="-325"/>
      <point x="602" y="-325" type="curve"/>
      <point x="616" y="-255" type="line"/>
      <point x="389" y="-164" type="line"/>
      <point x="389" y="350" type="line" smooth="yes"/>
      <point x="389" y="529"/>
      <point x="223" y="567"/>
      <point x="214" y="569" type="curve"/>
    </contour>
  </outline>
</glyph>
<glyph name="bar" format="1">
  <advance width="504"/>
  <unicode hex="007C"/>
  <outline>
    <contour>
      <point x="177" y="-500" type="line"/>
      <point x="327" y="-446" type="line"/>
      <point x="327" y="1472" type="line"/>
      <point x="177" y="1417" type="line"/>
    </contour>
  </outline>
</glyph>
<glyph name="braceright" format="1">
  <advance width="652"/>
  <unicode hex="007D"/>
  <outline>
    <contour>
      <point x="429" y="576"/>
      <point x="263" y="537"/>
      <point x="263" y="360" type="curve" smooth="yes"/>
      <point x="263" y="-164" type="line"/>
      <point x="49" y="-254" type="line"/>
      <point x="36" y="-325" type="line"/>
      <point x="404" y="-325"/>
      <point x="428" y="-272"/>
      <point x="428" y="-124" type="curve" smooth="yes"/>
      <point x="428" y="390" type="line" smooth="yes"/>
      <point x="428" y="452"/>
      <point x="525" y="521"/>
      <point x="565" y="545" type="curve" smooth="yes"/>
      <point x="572" y="549"/>
      <point x="586" y="562"/>
      <point x="586" y="578" type="curve" smooth="yes"/>
      <point x="586" y="594"/>
      <point x="574" y="605"/>
      <point x="565" y="610" type="curve" smooth="yes"/>
      <point x="528" y="630"/>
      <point x="428" y="693"/>
      <point x="428" y="757" type="curve" smooth="yes"/>
      <point x="428" y="1271" type="line" smooth="yes"/>
      <point x="428" y="1419"/>
      <point x="404" y="1472"/>
      <point x="50" y="1472" type="curve"/>
      <point x="36" y="1402" type="line"/>
      <point x="263" y="1311" type="line"/>
      <point x="263" y="797" type="line" smooth="yes"/>
      <point x="263" y="618"/>
      <point x="429" y="580"/>
      <point x="438" y="578" type="curve"/>
    </contour>
  </outline>
</glyph>
<glyph name="asciitilde" format="1">
  <advance width="861"/>
  <unicode hex="007E"/>
  <outline>
    <contour>
      <point x="118" y="460" type="line"/>
      <point x="175" y="522"/>
      <point x="268" y="563"/>
      <point x="305" y="563" type="curve" smooth="yes"/>
      <point x="355" y="563"/>
      <point x="432" y="439"/>
      <point x="543" y="439" type="curve" smooth="yes"/>
      <point x="628" y="439"/>
      <point x="699" y="508"/>
      <point x="761" y="572" type="curve"/>
      <point x="744" y="685" type="line"/>
      <point x="678" y="631"/>
      <point x="592" y="585"/>
      <point x="556" y="585" type="curve" smooth="yes"/>
      <point x="506" y="585"/>
      <point x="427" y="709"/>
      <point x="316" y="709" type="curve" smooth="yes"/>
      <point x="232" y="709"/>
      <point x="165" y="642"/>
      <point x="98" y="573" type="curve"/>
    </contour>
  </outline>
</glyph>
<glyph name="exclamdown" format="1">
  <advance width="502"/>
  <unicode hex="00A1"/>
  <outline>
    <contour>
      <point x="364" y="876"/>
      <point x="378" y="935"/>
      <point x="379" y="986" type="curve"/>
      <point x="381" y="1017"/>
      <point x="377" y="1046"/>
      <point x="368" y="1058" type="curve" smooth="yes"/>
      <point x="352" y="1078"/>
      <point x="291" y="1092"/>
      <point x="240" y="1094" type="curve" smooth="yes"/>
      <point x="210" y="1095"/>
      <point x="183" y="1091"/>
      <point x="171" y="1083" type="curve"/>
      <point x="151" y="1066"/>
      <point x="138" y="1008"/>
      <point x="136" y="957" type="curve" smooth="yes"/>
      <point x="134" y="926"/>
      <point x="137" y="897"/>
      <point x="147" y="885" type="curve"/>
      <point x="162" y="865"/>
      <point x="224" y="851"/>
      <point x="275" y="849" type="curve" smooth="yes"/>
      <point x="305" y="848"/>
      <point x="332" y="851"/>
      <point x="344" y="860" type="curve" smooth="yes"/>
    </contour>
    <contour>
      <point x="185" y="687" type="line"/>
      <point x="154" y="-300" type="line"/>
      <point x="342" y="-300" type="line"/>
      <point x="342" y="46"/>
      <point x="352" y="387"/>
      <point x="337" y="633" type="curve"/>
    </contour>
  </outline>
</glyph>
<glyph name="cent" format="1">
  <advance width="934"/>
  <unicode hex="00A2"/>
  <outline>
    <contour>
      <point x="815" y="184" type="line"/>
      <point x="765" y="155"/>
      <point x="645" y="108"/>
      <point x="559" y="108" type="curve" smooth="yes"/>
      <point x="555" y="108" type="line"/>
      <point x="556" y="569" type="line"/>
      <point x="560" y="888" type="line"/>
      <point x="583" y="890"/>
      <point x="602" y="891"/>
      <point x="617" y="891" type="curve"/>
      <point x="651" y="750" type="line"/>
      <point x="667" y="741"/>
      <point x="687" y="735"/>
      <point x="710" y="735" type="curve" smooth="yes"/>
      <point x="763" y="735"/>
      <point x="827" y="798"/>
      <point x="827" y="859" type="curve" smooth="yes"/>
      <point x="827" y="897"/>
      <point x="801" y="926"/>
      <point x="772" y="941" type="curve"/>
      <point x="732" y="964"/>
      <point x="673" y="975"/>
      <point x="597" y="975" type="curve" smooth="yes"/>
      <point x="585" y="975"/>
      <point x="573" y="975"/>
      <point x="562" y="974" type="curve"/>
      <point x="564" y="1154" type="line"/>
      <point x="437" y="1108" type="line"/>
      <point x="437" y="954" type="line"/>
      <point x="227" y="897"/>
      <point x="81" y="722"/>
      <point x="81" y="444" type="curve" smooth="yes"/>
      <point x="81" y="192"/>
      <point x="215" y="13"/>
      <point x="429" y="-19" type="curve"/>
      <point x="427" y="-203" type="line"/>
      <point x="554" y="-153" type="line"/>
      <point x="554" y="-20" type="line"/>
      <point x="667" y="-3"/>
      <point x="775" y="62"/>
      <point x="848" y="149" type="curve"/>
    </contour>
    <contour>
      <point x="432" y="146" type="line"/>
      <point x="311" y="220"/>
      <point x="254" y="391"/>
      <point x="254" y="518" type="curve" smooth="yes"/>
      <point x="254" y="616"/>
      <point x="282" y="724"/>
      <point x="356" y="799" type="curve" smooth="yes"/>
      <point x="381" y="824"/>
      <point x="409" y="843"/>
      <point x="437" y="856" type="curve"/>
      <point x="436" y="478" type="line"/>
    </contour>
  </outline>
</glyph>
<glyph name="brokenbar" format="1">
  <advance width="504"/>
  <unicode hex="00A6"/>
  <outline>
    <contour>
      <point x="177" y="650" type="line"/>
      <point x="327" y="704" type="line"/>
      <point x="327" y="1472" type="line"/>
      <point x="177" y="1417" type="line"/>
    </contour>
    <contour>
      <point x="177" y="-500" type="line"/>
      <point x="327" y="-446" type="line"/>
      <point x="327" y="322" type="line"/>
      <point x="177" y="267" type="line"/>
    </contour>
  </outline>
</glyph>
<glyph name="dieresis" format="1">
  <advance width="1024"/>
  <unicode hex="00A8"/>
  <outline>
    <contour>
      <point x="258" y="1170"/>
      <point x="388" y="1154"/>
      <point x="416" y="1175" type="curve"/>
      <point x="447" y="1201"/>
      <point x="461" y="1331"/>
      <point x="438" y="1356" type="curve" smooth="yes"/>
      <point x="411" y="1387"/>
      <point x="286" y="1402"/>
      <point x="258" y="1379" type="curve" smooth="yes"/>
      <point x="228" y="1353"/>
      <point x="214" y="1225"/>
      <point x="237" y="1197" type="curve" smooth="yes"/>
    </contour>
    <contour>
      <point x="610" y="1166"/>
      <point x="734" y="1154"/>
      <point x="763" y="1175" type="curve"/>
      <point x="794" y="1201"/>
      <point x="809" y="1331"/>
      <point x="786" y="1356" type="curve" smooth="yes"/>
      <point x="759" y="1387"/>
      <point x="633" y="1402"/>
      <point x="605" y="1379" type="curve" smooth="yes"/>
      <point x="575" y="1353"/>
      <point x="562" y="1226"/>
      <point x="584" y="1197" type="curve"/>
    </contour>
  </outline>
</glyph>
<glyph name="copyright" format="1">
  <advance width="1373"/>
  <unicode hex="00A9"/>
  <outline>
    <contour>
      <point x="99" y="188"/>
      <point x="326" y="-35"/>
      <point x="661" y="-35" type="curve" smooth="yes"/>
      <point x="1057" y="-35"/>
      <point x="1274" y="241"/>
      <point x="1274" y="601" type="curve" smooth="yes"/>
      <point x="1274" y="991"/>
      <point x="1006" y="1180"/>
      <point x="719" y="1180" type="curve" smooth="yes"/>
      <point x="314" y="1180"/>
      <point x="99" y="899"/>
      <point x="99" y="540" type="curve" smooth="yes"/>
    </contour>
    <contour>
      <point x="250" y="857"/>
      <point x="436" y="1056"/>
      <point x="673" y="1056" type="curve" smooth="yes"/>
      <point x="965" y="1056"/>
      <point x="1125" y="848"/>
      <point x="1125" y="534" type="curve" smooth="yes"/>
      <point x="1125" y="289"/>
      <point x="933" y="89"/>
      <point x="710" y="89" type="curve" smooth="yes"/>
      <point x="412" y="89"/>
      <point x="248" y="298"/>
      <point x="248" y="612" type="curve" smooth="yes"/>
    </contour>
    <contour>
      <point x="377" y="362"/>
      <point x="500" y="225"/>
      <point x="682" y="225" type="curve" smooth="yes"/>
      <point x="790" y="225"/>
      <point x="884" y="281"/>
      <point x="954" y="355" type="curve"/>
      <point x="926" y="404" type="line"/>
      <point x="908" y="396"/>
      <point x="759" y="341"/>
      <point x="716" y="341" type="curve" smooth="yes"/>
      <point x="672" y="341"/>
      <point x="618" y="361"/>
      <point x="577" y="415" type="curve" smooth="yes"/>
      <point x="542" y="459"/>
      <point x="524" y="530"/>
      <point x="524" y="591" type="curve" smooth="yes"/>
      <point x="524" y="655"/>
      <point x="530" y="735"/>
      <point x="572" y="775" type="curve"/>
      <point x="595" y="799"/>
      <point x="636" y="811"/>
      <point x="683" y="811" type="curve" smooth="yes"/>
      <point x="723" y="811"/>
      <point x="768" y="806"/>
      <point x="805" y="789" type="curve"/>
      <point x="846" y="694" type="line"/>
      <point x="915" y="713" type="line"/>
      <point x="893" y="913" type="line"/>
      <point x="826" y="902" type="line"/>
      <point x="806" y="906"/>
      <point x="755" y="916"/>
      <point x="712" y="916" type="curve" smooth="yes"/>
      <point x="494" y="916"/>
      <point x="377" y="760"/>
      <point x="377" y="553" type="curve" smooth="yes"/>
    </contour>
  </outline>
</glyph>
<glyph name="logicalnot" format="1">
  <advance width="1024"/>
  <unicode hex="00AC"/>
  <outline>
    <contour>
      <point x="153" y="644" type="line"/>
      <point x="126" y="506" type="line"/>
      <point x="728" y="513" type="line"/>
      <point x="740" y="201" type="line"/>
      <point x="864" y="179" type="line"/>
      <point x="864" y="644" type="line"/>
    </contour>
  </outline>
</glyph>
<glyph name="softhyphen" format="1">
  <advance width="841"/>
  <unicode hex="00AD"/>
  <outline>
    <contour>
      <point x="199" y="607" type="line"/>
      <point x="165" y="443" type="line"/>
      <point x="286" y="443"/>
      <point x="537" y="459"/>
      <point x="649" y="478" type="curve"/>
      <point x="673" y="607" type="line"/>
    </contour>
  </outline>
</glyph>
<glyph name="macron" format="1">
  <advance width="1024"/>
  <unicode hex="00AF"/>
  <outline>
    <contour>
      <point x="290" y="1284" type="line"/>
      <point x="261" y="1143" type="line"/>
      <point x="420" y="1143"/>
      <point x="579" y="1146"/>
      <point x="736" y="1155" type="curve"/>
      <point x="761" y="1284" type="line"/>
    </contour>
  </outline>
</glyph>
<glyph name="plusminus" format="1">
  <advance width="1024"/>
  <unicode hex="00B1"/>
  <outline>
    <contour>
      <point x="434" y="549" type="line"/>
      <point x="434" y="256" type="line"/>
      <point x="570" y="282" type="line"/>
      <point x="570" y="551" type="line"/>
      <point x="860" y="562" type="line"/>
      <point x="881" y="685" type="line"/>
      <point x="570" y="685" type="line"/>
      <point x="570" y="938" type="line"/>
      <point x="434" y="917" type="line"/>
      <point x="434" y="685" type="line"/>
      <point x="161" y="685" type="line"/>
      <point x="134" y="548" type="line"/>
    </contour>
    <contour>
      <point x="164" y="146" type="line"/>
      <point x="137" y="9" type="line"/>
      <point x="380" y="9"/>
      <point x="621" y="13"/>
      <point x="862" y="22" type="curve"/>
      <point x="883" y="146" type="line"/>
    </contour>
  </outline>
</glyph>
<glyph name="acute" format="1">
  <advance width="1024"/>
  <unicode hex="00B4"/>
  <outline>
    <contour>
      <point x="634" y="1447" type="line"/>
      <point x="336" y="1183" type="line"/>
      <point x="359" y="1061" type="line"/>
      <point x="727" y="1298" type="line"/>
      <point x="698" y="1447" type="line"/>
    </contour>
  </outline>
</glyph>
<glyph name="periodcentered" format="1">
  <advance width="538"/>
  <unicode hex="00B7"/>
  <outline>
    <contour>
      <point x="383" y="436"/>
      <point x="406" y="580"/>
      <point x="379" y="611" type="curve"/>
      <point x="357" y="640"/>
      <point x="221" y="664"/>
      <point x="182" y="636" type="curve" smooth="yes"/>
      <point x="151" y="615"/>
      <point x="130" y="471"/>
      <point x="158" y="438" type="curve"/>
      <point x="185" y="403"/>
      <point x="327" y="393"/>
      <point x="353" y="414" type="curve"/>
    </contour>
  </outline>
</glyph>
<glyph name="cedilla" format="1">
  <advance width="1024"/>
  <unicode hex="00B8"/>
  <outline>
    <contour>
      <point x="584" y="7" type="line"/>
      <point x="483" y="7" type="line"/>
      <point x="451" y="-17"/>
      <point x="378" y="-118"/>
      <point x="375" y="-164" type="curve"/>
      <point x="497" y="-188"/>
      <point x="547" y="-214"/>
      <point x="547" y="-250" type="curve" smooth="yes"/>
      <point x="547" y="-282"/>
      <point x="523" y="-327"/>
      <point x="327" y="-405" type="curve"/>
      <point x="340" y="-453" type="line"/>
      <point x="475" y="-453"/>
      <point x="694" y="-404"/>
      <point x="694" y="-245" type="curve" smooth="yes"/>
      <point x="694" y="-159"/>
      <point x="638" y="-118"/>
      <point x="536" y="-85" type="curve"/>
    </contour>
  </outline>
</glyph>
<glyph name="guillemotright" format="1">
  <advance width="1006"/>
  <unicode hex="00BB"/>
  <outline>
    <contour>
      <point x="556" y="287"/>
      <point x="454" y="157"/>
      <point x="412" y="70" type="curve"/>
      <point x="493" y="-2" type="line"/>
      <point x="928" y="461" type="line"/>
      <point x="493" y="926" type="line"/>
      <point x="413" y="853" type="line"/>
      <point x="454" y="767"/>
      <point x="556" y="637"/>
      <point x="704" y="461" type="curve"/>
    </contour>
    <contour>
      <point x="209" y="348"/>
      <point x="147" y="253"/>
      <point x="111" y="182" type="curve"/>
      <point x="192" y="111" type="line"/>
      <point x="510" y="461" type="line"/>
      <point x="192" y="812" type="line"/>
      <point x="113" y="741" type="line"/>
      <point x="146" y="667"/>
      <point x="226" y="557"/>
      <point x="298" y="461" type="curve"/>
    </contour>
  </outline>
</glyph>
<glyph name="onequarter" format="1">
  <advance width="1504"/>
  <unicode hex="00BC"/>
  <outline>
    <contour>
      <point x="210" y="744" type="line"/>
      <point x="82" y="720" type="line"/>
      <point x="64" y="651" type="line"/>
      <point x="493" y="651" type="line"/>
      <point x="513" y="723" type="line"/>
      <point x="373" y="744" type="line"/>
      <point x="373" y="1399" type="line"/>
      <point x="68" y="1339" type="line"/>
      <point x="57" y="1279" type="line"/>
      <point x="210" y="1279" type="line"/>
    </contour>
    <contour>
      <point x="302" y="243" type="line"/>
      <point x="430" y="196" type="line"/>
      <point x="1151" y="1144" type="line"/>
      <point x="1017" y="1196" type="line"/>
    </contour>
    <contour>
      <point x="794" y="257" type="line"/>
      <point x="825" y="204" type="line"/>
      <point x="1144" y="204" type="line"/>
      <point x="1144" y="-60" type="line"/>
      <point x="1294" y="-26" type="line"/>
      <point x="1294" y="204" type="line"/>
      <point x="1370" y="204" type="line"/>
      <point x="1386" y="310" type="line"/>
      <point x="1293" y="307" type="line"/>
      <point x="1293" y="450" type="line"/>
      <point x="1139" y="415" type="line"/>
      <point x="1139" y="298" type="line"/>
      <point x="959" y="293" type="line"/>
      <point x="1271" y="733" type="line"/>
      <point x="1114" y="759" type="line"/>
    </contour>
  </outline>
</glyph>
<glyph name="onehalf" format="1">
  <advance width="1501"/>
  <unicode hex="00BD"/>
  <outline>
    <contour>
      <point x="210" y="744" type="line"/>
      <point x="82" y="720" type="line"/>
      <point x="64" y="651" type="line"/>
      <point x="493" y="651" type="line"/>
      <point x="513" y="723" type="line"/>
      <point x="373" y="744" type="line"/>
      <point x="373" y="1399" type="line"/>
      <point x="68" y="1339" type="line"/>
      <point x="57" y="1279" type="line"/>
      <point x="210" y="1279" type="line"/>
    </contour>
    <contour>
      <point x="302" y="243" type="line"/>
      <point x="430" y="196" type="line"/>
      <point x="1151" y="1144" type="line"/>
      <point x="1017" y="1196" type="line"/>
    </contour>
    <contour>
      <point x="1282" y="290"/>
      <point x="1402" y="423"/>
      <point x="1402" y="550" type="curve" smooth="yes"/>
      <point x="1402" y="671"/>
      <point x="1314" y="746"/>
      <point x="1163" y="746" type="curve" smooth="yes"/>
      <point x="1086" y="746"/>
      <point x="1001" y="725"/>
      <point x="924" y="681" type="curve"/>
      <point x="959" y="601" type="line"/>
      <point x="1034" y="621"/>
      <point x="1078" y="626"/>
      <point x="1127" y="626" type="curve" smooth="yes"/>
      <point x="1208" y="626"/>
      <point x="1242" y="582"/>
      <point x="1242" y="530" type="curve" smooth="yes"/>
      <point x="1242" y="479"/>
      <point x="1212" y="434"/>
      <point x="1153" y="357" type="curve" smooth="yes"/>
      <point x="1119" y="313"/>
      <point x="926" y="98"/>
      <point x="896" y="67" type="curve"/>
      <point x="922" y="0" type="line"/>
      <point x="1451" y="0" type="line"/>
      <point x="1420" y="126" type="line"/>
      <point x="1292" y="122"/>
      <point x="1175" y="113"/>
      <point x="1074" y="96" type="curve"/>
    </contour>
  </outline>
</glyph>
<glyph name="threequarters" format="1">
  <advance width="1572"/>
  <unicode hex="00BE"/>
  <outline>
    <contour>
      <point x="87" y="601" type="line"/>
      <point x="271" y="601"/>
      <point x="535" y="667"/>
      <point x="535" y="885" type="curve" smooth="yes"/>
      <point x="535" y="993"/>
      <point x="454" y="1063"/>
      <point x="349" y="1074" type="curve"/>
      <point x="554" y="1319" type="line"/>
      <point x="528" y="1386" type="line"/>
      <point x="45" y="1386" type="line"/>
      <point x="79" y="1270" type="line"/>
      <point x="176" y="1270"/>
      <point x="310" y="1282"/>
      <point x="419" y="1297" type="curve"/>
      <point x="188" y="1080" type="line"/>
      <point x="171" y="1014" type="line"/>
      <point x="272" y="1014"/>
      <point x="375" y="977"/>
      <point x="375" y="880" type="curve" smooth="yes"/>
      <point x="375" y="748"/>
      <point x="251" y="713"/>
      <point x="66" y="668" type="curve"/>
    </contour>
    <contour>
      <point x="282" y="243" type="line"/>
      <point x="410" y="196" type="line"/>
      <point x="1131" y="1144" type="line"/>
      <point x="997" y="1196" type="line"/>
    </contour>
    <contour>
      <point x="774" y="257" type="line"/>
      <point x="805" y="204" type="line"/>
      <point x="1124" y="204" type="line"/>
      <point x="1124" y="-60" type="line"/>
      <point x="1274" y="-26" type="line"/>
      <point x="1274" y="204" type="line"/>
      <point x="1350" y="204" type="line"/>
      <point x="1366" y="310" type="line"/>
      <point x="1273" y="307" type="line"/>
      <point x="1273" y="450" type="line"/>
      <point x="1119" y="415" type="line"/>
      <point x="1119" y="298" type="line"/>
      <point x="939" y="293" type="line"/>
      <point x="1251" y="733" type="line"/>
      <point x="1094" y="759" type="line"/>
    </contour>
  </outline>
</glyph>
<glyph name="questiondown" format="1">
  <advance width="843"/>
  <unicode hex="00BF"/>
  <outline>
    <contour>
      <point x="423" y="1070"/>
      <point x="400" y="926"/>
      <point x="427" y="895" type="curve"/>
      <point x="449" y="866"/>
      <point x="585" y="842"/>
      <point x="624" y="870" type="curve" smooth="yes"/>
      <point x="655" y="891"/>
      <point x="676" y="1035"/>
      <point x="648" y="1068" type="curve"/>
      <point x="621" y="1103"/>
      <point x="479" y="1113"/>
      <point x="453" y="1092" type="curve"/>
    </contour>
    <contour>
      <point x="605" y="645" type="line"/>
      <point x="489" y="689" type="line"/>
      <point x="470" y="626"/>
      <point x="429" y="477"/>
      <point x="419" y="431" type="curve"/>
      <point x="181" y="339"/>
      <point x="70" y="223"/>
      <point x="70" y="35" type="curve" smooth="yes"/>
      <point x="70" y="-179"/>
      <point x="313" y="-325"/>
      <point x="524" y="-325" type="curve" smooth="yes"/>
      <point x="608" y="-325"/>
      <point x="741" y="-303"/>
      <point x="741" y="-208" type="curve" smooth="yes"/>
      <point x="741" y="-148"/>
      <point x="676" y="-84"/>
      <point x="623" y="-84" type="curve" smooth="yes"/>
      <point x="600" y="-84"/>
      <point x="579" y="-91"/>
      <point x="563" y="-99" type="curve"/>
      <point x="528" y="-242" type="line"/>
      <point x="454" y="-238"/>
      <point x="274" y="-124"/>
      <point x="274" y="59" type="curve" smooth="yes"/>
      <point x="274" y="177"/>
      <point x="357" y="292"/>
      <point x="593" y="412" type="curve" smooth="yes"/>
      <point x="612" y="422"/>
      <point x="614" y="427"/>
      <point x="613" y="446" type="curve" smooth="yes"/>
    </contour>
  </outline>
</glyph>
<glyph name="Acircumflex" format="1">
  <advance width="1336"/>
  <unicode hex="00C2"/>
  <outline>
    <contour>
      <point x="406" y="1504" type="line"/>
      <point x="649" y="1634" type="line"/>
      <point x="892" y="1504" type="line"/>
      <point x="955" y="1570" type="line"/>
      <point x="698" y="1785" type="line"/>
      <point x="600" y="1785" type="line"/>
      <point x="344" y="1570" type="line"/>
    </contour>
    <contour>
      <point x="1358" y="99" type="line"/>
      <point x="1207" y="133" type="line"/>
      <point x="715" y="1419" type="line"/>
      <point x="596" y="1384" type="line"/>
      <point x="145" y="142" type="line"/>
      <point x="-10" y="95" type="line"/>
      <point x="-28" y="0" type="line"/>
      <point x="469" y="0" type="line"/>
      <point x="487" y="83" type="line"/>
      <point x="281" y="138" type="line"/>
      <point x="281" y="138"/>
      <point x="326" y="269"/>
      <point x="384" y="437" type="curve"/>
      <point x="551" y="436"/>
      <point x="716" y="441"/>
      <point x="878" y="451" type="curve"/>
      <point x="998" y="133" type="line"/>
      <point x="834" y="86" type="line"/>
      <point x="818" y="0" type="line"/>
      <point x="1337" y="0" type="line"/>
    </contour>
    <contour>
      <point x="834" y="568" type="line"/>
      <point x="428" y="568" type="line"/>
      <point x="513" y="820"/>
      <point x="605" y="1099"/>
      <point x="614" y="1155" type="curve"/>
    </contour>
  </outline>
</glyph>
<glyph name="Atilde" format="1">
  <advance width="1336"/>
  <unicode hex="00C3"/>
  <outline>
    <contour>
      <point x="574" y="1645"/>
      <point x="651" y="1521"/>
      <point x="762" y="1521" type="curve" smooth="yes"/>
      <point x="848" y="1521"/>
      <point x="918" y="1589"/>
      <point x="980" y="1657" type="curve"/>
      <point x="962" y="1768" type="line"/>
      <point x="896" y="1713"/>
      <point x="811" y="1665"/>
      <point x="775" y="1665" type="curve" smooth="yes"/>
      <point x="725" y="1665"/>
      <point x="646" y="1790"/>
      <point x="535" y="1790" type="curve" smooth="yes"/>
      <point x="450" y="1790"/>
      <point x="384" y="1723"/>
      <point x="317" y="1653" type="curve"/>
      <point x="338" y="1543" type="line"/>
      <point x="397" y="1602"/>
      <point x="487" y="1645"/>
      <point x="524" y="1645" type="curve" smooth="yes"/>
    </contour>
    <contour>
      <point x="1358" y="99" type="line"/>
      <point x="1207" y="133" type="line"/>
      <point x="715" y="1419" type="line"/>
      <point x="596" y="1384" type="line"/>
      <point x="145" y="142" type="line"/>
      <point x="-10" y="95" type="line"/>
      <point x="-28" y="0" type="line"/>
      <point x="469" y="0" type="line"/>
      <point x="487" y="83" type="line"/>
      <point x="281" y="138" type="line"/>
      <point x="281" y="138"/>
      <point x="326" y="269"/>
      <point x="384" y="437" type="curve"/>
      <point x="551" y="436"/>
      <point x="716" y="441"/>
      <point x="878" y="451" type="curve"/>
      <point x="998" y="133" type="line"/>
      <point x="834" y="86" type="line"/>
      <point x="818" y="0" type="line"/>
      <point x="1337" y="0" type="line"/>
    </contour>
    <contour>
      <point x="834" y="568" type="line"/>
      <point x="428" y="568" type="line"/>
      <point x="513" y="820"/>
      <point x="605" y="1099"/>
      <point x="614" y="1155" type="curve"/>
    </contour>
  </outline>
</glyph>
<glyph name="Adieresis" format="1">
  <advance width="1336"/>
  <unicode hex="00C4"/>
  <outline>
    <contour>
      <point x="938" y="1544"/>
      <point x="949" y="1658"/>
      <point x="930" y="1682" type="curve" smooth="yes"/>
      <point x="909" y="1710"/>
      <point x="794" y="1723"/>
      <point x="771" y="1703" type="curve"/>
      <point x="740" y="1683"/>
      <point x="733" y="1567"/>
      <point x="750" y="1542" type="curve"/>
      <point x="773" y="1514"/>
      <point x="884" y="1505"/>
      <point x="910" y="1521" type="curve"/>
    </contour>
    <contour>
      <point x="556" y="1543"/>
      <point x="565" y="1657"/>
      <point x="548" y="1682" type="curve"/>
      <point x="525" y="1710"/>
      <point x="412" y="1721"/>
      <point x="388" y="1703" type="curve" smooth="yes"/>
      <point x="359" y="1682"/>
      <point x="349" y="1566"/>
      <point x="368" y="1542" type="curve" smooth="yes"/>
      <point x="389" y="1514"/>
      <point x="502" y="1504"/>
      <point x="527" y="1521" type="curve"/>
    </contour>
    <contour>
      <point x="1358" y="99" type="line"/>
      <point x="1207" y="133" type="line"/>
      <point x="715" y="1419" type="line"/>
      <point x="596" y="1384" type="line"/>
      <point x="145" y="142" type="line"/>
      <point x="-10" y="95" type="line"/>
      <point x="-28" y="0" type="line"/>
      <point x="469" y="0" type="line"/>
      <point x="487" y="83" type="line"/>
      <point x="281" y="138" type="line"/>
      <point x="281" y="138"/>
      <point x="326" y="269"/>
      <point x="384" y="437" type="curve"/>
      <point x="551" y="436"/>
      <point x="716" y="441"/>
      <point x="878" y="451" type="curve"/>
      <point x="998" y="133" type="line"/>
      <point x="834" y="86" type="line"/>
      <point x="818" y="0" type="line"/>
      <point x="1337" y="0" type="line"/>
    </contour>
    <contour>
      <point x="834" y="568" type="line"/>
      <point x="428" y="568" type="line"/>
      <point x="513" y="820"/>
      <point x="605" y="1099"/>
      <point x="614" y="1155" type="curve"/>
    </contour>
  </outline>
</glyph>
<glyph name="Aring" format="1">
  <advance width="1336"/>
  <unicode hex="00C5"/>
  <outline>
    <contour>
      <point x="1358" y="99" type="line"/>
      <point x="1207" y="133" type="line"/>
      <point x="742" y="1348" type="line"/>
      <point x="799" y="1379"/>
      <point x="834" y="1437"/>
      <point x="834" y="1510" type="curve" smooth="yes"/>
      <point x="834" y="1612"/>
      <point x="747" y="1679"/>
      <point x="654" y="1679" type="curve" smooth="yes"/>
      <point x="538" y="1679"/>
      <point x="464" y="1599"/>
      <point x="464" y="1494" type="curve" smooth="yes"/>
      <point x="464" y="1416"/>
      <point x="512" y="1360"/>
      <point x="579" y="1337" type="curve"/>
      <point x="145" y="142" type="line"/>
      <point x="-10" y="95" type="line"/>
      <point x="-28" y="0" type="line"/>
      <point x="469" y="0" type="line"/>
      <point x="487" y="83" type="line"/>
      <point x="281" y="138" type="line"/>
      <point x="281" y="138"/>
      <point x="326" y="269"/>
      <point x="384" y="437" type="curve"/>
      <point x="551" y="436"/>
      <point x="716" y="441"/>
      <point x="878" y="451" type="curve"/>
      <point x="998" y="133" type="line"/>
      <point x="834" y="86" type="line"/>
      <point x="818" y="0" type="line"/>
      <point x="1337" y="0" type="line"/>
    </contour>
    <contour>
      <point x="695" y="1588"/>
      <point x="726" y="1543"/>
      <point x="726" y="1493" type="curve" smooth="yes"/>
      <point x="726" y="1451"/>
      <point x="700" y="1419"/>
      <point x="656" y="1419" type="curve" smooth="yes"/>
      <point x="597" y="1419"/>
      <point x="570" y="1465"/>
      <point x="570" y="1511" type="curve" smooth="yes"/>
      <point x="570" y="1551"/>
      <point x="597" y="1588"/>
      <point x="640" y="1588" type="curve" smooth="yes"/>
    </contour>
    <contour>
      <point x="834" y="568" type="line"/>
      <point x="428" y="568" type="line"/>
      <point x="513" y="820"/>
      <point x="605" y="1099"/>
      <point x="614" y="1155" type="curve"/>
    </contour>
  </outline>
</glyph>
<glyph name="AE" format="1">
  <advance width="1824"/>
  <unicode hex="00C6"/>
  <outline>
    <contour>
      <point x="897" y="141" type="line"/>
      <point x="720" y="86" type="line"/>
      <point x="703" y="0" type="line"/>
      <point x="1695" y="0" type="line"/>
      <point x="1771" y="324" type="line"/>
      <point x="1698" y="339" type="line"/>
      <point x="1575" y="155" type="line"/>
      <point x="1214" y="121"/>
      <point x="1091" y="100"/>
      <point x="1089" y="99" type="curve"/>
      <point x="1089" y="659" type="line"/>
      <point x="1197" y="640"/>
      <point x="1352" y="639"/>
      <point x="1353" y="639" type="curve"/>
      <point x="1393" y="478" type="line"/>
      <point x="1467" y="463" type="line"/>
      <point x="1486" y="914" type="line"/>
      <point x="1412" y="934" type="line"/>
      <point x="1355" y="765" type="line"/>
      <point x="1354" y="765"/>
      <point x="1187" y="758"/>
      <point x="1089" y="741" type="curve"/>
      <point x="1089" y="1296" type="line"/>
      <point x="1228" y="1274"/>
      <point x="1368" y="1258"/>
      <point x="1511" y="1246" type="curve"/>
      <point x="1610" y="1024" type="line"/>
      <point x="1703" y="1046" type="line"/>
      <point x="1665" y="1397" type="line"/>
      <point x="1538" y="1384" type="line"/>
      <point x="575" y="1384" type="line"/>
      <point x="558" y="1301" type="line"/>
      <point x="747" y="1249" type="line"/>
      <point x="139" y="142" type="line"/>
      <point x="-13" y="95" type="line"/>
      <point x="-33" y="0" type="line"/>
      <point x="460" y="0" type="line"/>
      <point x="480" y="82" type="line"/>
      <point x="294" y="138" type="line"/>
      <point x="454" y="440" type="line"/>
      <point x="612" y="440"/>
      <point x="784" y="443"/>
      <point x="897" y="456" type="curve"/>
    </contour>
    <contour>
      <point x="897" y="1242" type="line"/>
      <point x="897" y="568" type="line"/>
      <point x="522" y="568" type="line"/>
      <point x="867" y="1242" type="line"/>
    </contour>
  </outline>
</glyph>
<glyph name="Ccedilla" format="1">
  <advance width="1248"/>
  <unicode hex="00C7"/>
  <outline>
    <contour>
      <point x="744" y="-34" type="line"/>
      <point x="937" y="-27"/>
      <point x="1064" y="41"/>
      <point x="1201" y="173" type="curve"/>
      <point x="1156" y="242" type="line"/>
      <point x="1109" y="219"/>
      <point x="868" y="126"/>
      <point x="762" y="126" type="curve" smooth="yes"/>
      <point x="640" y="126"/>
      <point x="522" y="176"/>
      <point x="431" y="294" type="curve" smooth="yes"/>
      <point x="351" y="398"/>
      <point x="310" y="559"/>
      <point x="310" y="705" type="curve" smooth="yes"/>
      <point x="310" y="969"/>
      <point x="378" y="1133"/>
      <point x="459" y="1205" type="curve" smooth="yes"/>
      <point x="507" y="1247"/>
      <point x="601" y="1283"/>
      <point x="703" y="1283" type="curve" smooth="yes"/>
      <point x="812" y="1283"/>
      <point x="880" y="1264"/>
      <point x="961" y="1229" type="curve"/>
      <point x="1055" y="1021" type="line"/>
      <point x="1151" y="1044" type="line"/>
      <point x="1113" y="1410" type="line"/>
      <point x="985" y="1392" type="line"/>
      <point x="914" y="1406"/>
      <point x="840" y="1419"/>
      <point x="766" y="1419" type="curve" smooth="yes"/>
      <point x="615" y="1419"/>
      <point x="494" y="1384"/>
      <point x="384" y="1300" type="curve" smooth="yes"/>
      <point x="202" y="1160"/>
      <point x="111" y="904"/>
      <point x="111" y="625" type="curve" smooth="yes"/>
      <point x="111" y="241"/>
      <point x="323" y="-4"/>
      <point x="646" y="-32" type="curve"/>
      <point x="605" y="-82"/>
      <point x="573" y="-130"/>
      <point x="551" y="-176" type="curve"/>
      <point x="672" y="-213"/>
      <point x="761" y="-252"/>
      <point x="761" y="-293" type="curve" smooth="yes"/>
      <point x="761" y="-320"/>
      <point x="727" y="-354"/>
      <point x="509" y="-447" type="curve"/>
      <point x="523" y="-500" type="line"/>
      <point x="697" y="-500"/>
      <point x="916" y="-442"/>
      <point x="916" y="-279" type="curve" smooth="yes"/>
      <point x="916" y="-182"/>
      <point x="812" y="-131"/>
      <point x="708" y="-114" type="curve"/>
    </contour>
  </outline>
</glyph>
<glyph name="Ecircumflex" format="1">
  <advance width="1246"/>
  <unicode hex="00CA"/>
  <outline>
    <contour>
      <point x="318" y="1570" type="line"/>
      <point x="380" y="1504" type="line"/>
      <point x="623" y="1634" type="line"/>
      <point x="866" y="1504" type="line"/>
      <point x="929" y="1570" type="line"/>
      <point x="672" y="1785" type="line"/>
      <point x="574" y="1785" type="line"/>
    </contour>
    <contour>
      <point x="997" y="155" type="line"/>
      <point x="454" y="99" type="line"/>
      <point x="454" y="659" type="line"/>
      <point x="549" y="642"/>
      <point x="647" y="639"/>
      <point x="747" y="639" type="curve"/>
      <point x="792" y="480" type="line"/>
      <point x="871" y="463" type="line"/>
      <point x="889" y="914" type="line"/>
      <point x="811" y="935" type="line"/>
      <point x="749" y="765" type="line"/>
      <point x="650" y="761"/>
      <point x="551" y="753"/>
      <point x="454" y="741" type="curve"/>
      <point x="454" y="1296" type="line"/>
      <point x="933" y="1246" type="line"/>
      <point x="1032" y="1024" type="line"/>
      <point x="1121" y="1046" type="line"/>
      <point x="1087" y="1397" type="line"/>
      <point x="960" y="1384" type="line"/>
      <point x="95" y="1384" type="line"/>
      <point x="74" y="1304" type="line"/>
      <point x="262" y="1248" type="line"/>
      <point x="262" y="141" type="line"/>
      <point x="83" y="85" type="line"/>
      <point x="67" y="0" type="line"/>
      <point x="1121" y="0" type="line"/>
      <point x="1200" y="320" type="line"/>
      <point x="1121" y="340" type="line"/>
    </contour>
  </outline>
</glyph>
<glyph name="Edieresis" format="1">
  <advance width="1246"/>
  <unicode hex="00CB"/>
  <outline>
    <contour>
      <point x="747" y="1514"/>
      <point x="858" y="1505"/>
      <point x="884" y="1521" type="curve"/>
      <point x="912" y="1544"/>
      <point x="923" y="1658"/>
      <point x="904" y="1682" type="curve" smooth="yes"/>
      <point x="883" y="1710"/>
      <point x="768" y="1723"/>
      <point x="745" y="1703" type="curve"/>
      <point x="714" y="1683"/>
      <point x="707" y="1567"/>
      <point x="724" y="1542" type="curve"/>
    </contour>
    <contour>
      <point x="363" y="1514"/>
      <point x="476" y="1504"/>
      <point x="501" y="1521" type="curve"/>
      <point x="530" y="1543"/>
      <point x="539" y="1657"/>
      <point x="522" y="1682" type="curve"/>
      <point x="499" y="1710"/>
      <point x="386" y="1721"/>
      <point x="362" y="1703" type="curve" smooth="yes"/>
      <point x="333" y="1682"/>
      <point x="323" y="1566"/>
      <point x="342" y="1542" type="curve" smooth="yes"/>
    </contour>
    <contour>
      <point x="997" y="155" type="line"/>
      <point x="454" y="99" type="line"/>
      <point x="454" y="659" type="line"/>
      <point x="549" y="642"/>
      <point x="647" y="639"/>
      <point x="747" y="639" type="curve"/>
      <point x="792" y="480" type="line"/>
      <point x="871" y="463" type="line"/>
      <point x="889" y="914" type="line"/>
      <point x="811" y="935" type="line"/>
      <point x="749" y="765" type="line"/>
      <point x="650" y="761"/>
      <point x="551" y="753"/>
      <point x="454" y="741" type="curve"/>
      <point x="454" y="1296" type="line"/>
      <point x="933" y="1246" type="line"/>
      <point x="1032" y="1024" type="line"/>
      <point x="1121" y="1046" type="line"/>
      <point x="1087" y="1397" type="line"/>
      <point x="960" y="1384" type="line"/>
      <point x="95" y="1384" type="line"/>
      <point x="74" y="1304" type="line"/>
      <point x="262" y="1248" type="line"/>
      <point x="262" y="141" type="line"/>
      <point x="83" y="85" type="line"/>
      <point x="67" y="0" type="line"/>
      <point x="1121" y="0" type="line"/>
      <point x="1200" y="320" type="line"/>
      <point x="1121" y="340" type="line"/>
    </contour>
  </outline>
</glyph>
<glyph name="Ocircumflex" format="1">
  <advance width="1405"/>
  <unicode hex="00D4"/>
  <outline>
    <contour>
      <point x="400" y="1570" type="line"/>
      <point x="462" y="1504" type="line"/>
      <point x="705" y="1634" type="line"/>
      <point x="948" y="1504" type="line"/>
      <point x="1011" y="1570" type="line"/>
      <point x="754" y="1785" type="line"/>
      <point x="656" y="1785" type="line"/>
    </contour>
    <contour>
      <point x="90" y="211"/>
      <point x="345" y="-35"/>
      <point x="672" y="-35" type="curve" smooth="yes"/>
      <point x="1079" y="-35"/>
      <point x="1316" y="335"/>
      <point x="1316" y="762" type="curve" smooth="yes"/>
      <point x="1316" y="1173"/>
      <point x="1052" y="1419"/>
      <point x="743" y="1419" type="curve" smooth="yes"/>
      <point x="313" y="1419"/>
      <point x="90" y="1041"/>
      <point x="90" y="623" type="curve" smooth="yes"/>
    </contour>
    <contour>
      <point x="313" y="415"/>
      <point x="295" y="597"/>
      <point x="295" y="765" type="curve" smooth="yes"/>
      <point x="295" y="885"/>
      <point x="328" y="1094"/>
      <point x="411" y="1176" type="curve" smooth="yes"/>
      <point x="475" y="1237"/>
      <point x="571" y="1261"/>
      <point x="651" y="1261" type="curve" smooth="yes"/>
      <point x="823" y="1261"/>
      <point x="990" y="1150"/>
      <point x="1060" y="982" type="curve" smooth="yes"/>
      <point x="1103" y="880"/>
      <point x="1111" y="765"/>
      <point x="1111" y="616" type="curve" smooth="yes"/>
      <point x="1111" y="496"/>
      <point x="1078" y="298"/>
      <point x="1000" y="213" type="curve" smooth="yes"/>
      <point x="937" y="146"/>
      <point x="843" y="123"/>
      <point x="760" y="123" type="curve" smooth="yes"/>
      <point x="624" y="123"/>
      <point x="495" y="188"/>
      <point x="414" y="289" type="curve" smooth="yes"/>
    </contour>
  </outline>
</glyph>
<glyph name="Otilde" format="1">
  <advance width="1405"/>
  <unicode hex="00D5"/>
  <outline>
    <contour>
      <point x="394" y="1543" type="line"/>
      <point x="453" y="1602"/>
      <point x="543" y="1645"/>
      <point x="580" y="1645" type="curve" smooth="yes"/>
      <point x="630" y="1645"/>
      <point x="707" y="1521"/>
      <point x="818" y="1521" type="curve" smooth="yes"/>
      <point x="904" y="1521"/>
      <point x="974" y="1589"/>
      <point x="1036" y="1657" type="curve"/>
      <point x="1018" y="1768" type="line"/>
      <point x="952" y="1713"/>
      <point x="867" y="1665"/>
      <point x="831" y="1665" type="curve" smooth="yes"/>
      <point x="781" y="1665"/>
      <point x="702" y="1790"/>
      <point x="591" y="1790" type="curve" smooth="yes"/>
      <point x="506" y="1790"/>
      <point x="440" y="1723"/>
      <point x="373" y="1653" type="curve"/>
    </contour>
    <contour>
      <point x="90" y="211"/>
      <point x="345" y="-35"/>
      <point x="672" y="-35" type="curve" smooth="yes"/>
      <point x="1079" y="-35"/>
      <point x="1316" y="335"/>
      <point x="1316" y="762" type="curve" smooth="yes"/>
      <point x="1316" y="1173"/>
      <point x="1052" y="1419"/>
      <point x="743" y="1419" type="curve" smooth="yes"/>
      <point x="313" y="1419"/>
      <point x="90" y="1041"/>
      <point x="90" y="623" type="curve" smooth="yes"/>
    </contour>
    <contour>
      <point x="313" y="415"/>
      <point x="295" y="597"/>
      <point x="295" y="765" type="curve" smooth="yes"/>
      <point x="295" y="885"/>
      <point x="328" y="1094"/>
      <point x="411" y="1176" type="curve" smooth="yes"/>
      <point x="475" y="1237"/>
      <point x="571" y="1261"/>
      <point x="651" y="1261" type="curve" smooth="yes"/>
      <point x="823" y="1261"/>
      <point x="990" y="1150"/>
      <point x="1060" y="982" type="curve" smooth="yes"/>
      <point x="1103" y="880"/>
      <point x="1111" y="765"/>
      <point x="1111" y="616" type="curve" smooth="yes"/>
      <point x="1111" y="496"/>
      <point x="1078" y="298"/>
      <point x="1000" y="213" type="curve" smooth="yes"/>
      <point x="937" y="146"/>
      <point x="843" y="123"/>
      <point x="760" y="123" type="curve" smooth="yes"/>
      <point x="624" y="123"/>
      <point x="495" y="188"/>
      <point x="414" y="289" type="curve" smooth="yes"/>
    </contour>
  </outline>
</glyph>
<glyph name="Odieresis" format="1">
  <advance width="1405"/>
  <unicode hex="00D6"/>
  <outline>
    <contour>
      <point x="829" y="1514"/>
      <point x="940" y="1505"/>
      <point x="966" y="1521" type="curve"/>
      <point x="994" y="1544"/>
      <point x="1005" y="1658"/>
      <point x="986" y="1682" type="curve" smooth="yes"/>
      <point x="965" y="1710"/>
      <point x="850" y="1723"/>
      <point x="827" y="1703" type="curve"/>
      <point x="796" y="1683"/>
      <point x="789" y="1567"/>
      <point x="806" y="1542" type="curve"/>
    </contour>
    <contour>
      <point x="445" y="1514"/>
      <point x="558" y="1504"/>
      <point x="583" y="1521" type="curve"/>
      <point x="612" y="1543"/>
      <point x="621" y="1657"/>
      <point x="604" y="1682" type="curve"/>
      <point x="581" y="1710"/>
      <point x="468" y="1721"/>
      <point x="444" y="1703" type="curve" smooth="yes"/>
      <point x="415" y="1682"/>
      <point x="405" y="1566"/>
      <point x="424" y="1542" type="curve" smooth="yes"/>
    </contour>
    <contour>
      <point x="90" y="211"/>
      <point x="345" y="-35"/>
      <point x="672" y="-35" type="curve" smooth="yes"/>
      <point x="1079" y="-35"/>
      <point x="1316" y="335"/>
      <point x="1316" y="762" type="curve" smooth="yes"/>
      <point x="1316" y="1173"/>
      <point x="1052" y="1419"/>
      <point x="743" y="1419" type="curve" smooth="yes"/>
      <point x="313" y="1419"/>
      <point x="90" y="1041"/>
      <point x="90" y="623" type="curve" smooth="yes"/>
    </contour>
    <contour>
      <point x="313" y="415"/>
      <point x="295" y="597"/>
      <point x="295" y="765" type="curve" smooth="yes"/>
      <point x="295" y="885"/>
      <point x="328" y="1094"/>
      <point x="411" y="1176" type="curve" smooth="yes"/>
      <point x="475" y="1237"/>
      <point x="571" y="1261"/>
      <point x="651" y="1261" type="curve" smooth="yes"/>
      <point x="823" y="1261"/>
      <point x="990" y="1150"/>
      <point x="1060" y="982" type="curve" smooth="yes"/>
      <point x="1103" y="880"/>
      <point x="1111" y="765"/>
      <point x="1111" y="616" type="curve" smooth="yes"/>
      <point x="1111" y="496"/>
      <point x="1078" y="298"/>
      <point x="1000" y="213" type="curve" smooth="yes"/>
      <point x="937" y="146"/>
      <point x="843" y="123"/>
      <point x="760" y="123" type="curve" smooth="yes"/>
      <point x="624" y="123"/>
      <point x="495" y="188"/>
      <point x="414" y="289" type="curve" smooth="yes"/>
    </contour>
  </outline>
</glyph>
<glyph name="multiply" format="1">
  <advance width="1024"/>
  <unicode hex="00D7"/>
  <outline>
    <contour>
      <point x="609" y="579" type="line"/>
      <point x="841" y="797" type="line"/>
      <point x="745" y="886" type="line"/>
      <point x="513" y="669" type="line"/>
      <point x="281" y="886" type="line"/>
      <point x="185" y="797" type="line"/>
      <point x="417" y="579" type="line"/>
      <point x="200" y="376" type="line"/>
      <point x="297" y="287" type="line"/>
      <point x="513" y="489" type="line"/>
      <point x="729" y="287" type="line"/>
      <point x="826" y="376" type="line"/>
    </contour>
  </outline>
</glyph>
<glyph name="Ucircumflex" format="1">
  <advance width="1466"/>
  <unicode hex="00DB"/>
  <outline>
    <contour>
      <point x="468" y="1570" type="line"/>
      <point x="530" y="1504" type="line"/>
      <point x="773" y="1634" type="line"/>
      <point x="1016" y="1504" type="line"/>
      <point x="1079" y="1570" type="line"/>
      <point x="822" y="1785" type="line"/>
      <point x="724" y="1785" type="line"/>
    </contour>
    <contour>
      <point x="411" y="1235" type="line"/>
      <point x="602" y="1282" type="line"/>
      <point x="624" y="1384" type="line"/>
      <point x="64" y="1384" type="line"/>
      <point x="48" y="1301" type="line"/>
      <point x="219" y="1246" type="line"/>
      <point x="219" y="469" type="line" smooth="yes"/>
      <point x="219" y="174"/>
      <point x="382" y="-35"/>
      <point x="729" y="-35" type="curve" smooth="yes"/>
      <point x="1071" y="-35"/>
      <point x="1250" y="175"/>
      <point x="1250" y="472" type="curve" smooth="yes"/>
      <point x="1250" y="1242" type="line"/>
      <point x="1403" y="1299" type="line"/>
      <point x="1419" y="1384" type="line"/>
      <point x="927" y="1384" type="line"/>
      <point x="911" y="1301" type="line"/>
      <point x="1108" y="1242" type="line"/>
      <point x="1108" y="477" type="line" smooth="yes"/>
      <point x="1108" y="348"/>
      <point x="1075" y="244"/>
      <point x="1010" y="180" type="curve" smooth="yes"/>
      <point x="962" y="131"/>
      <point x="894" y="103"/>
      <point x="810" y="103" type="curve" smooth="yes"/>
      <point x="578" y="103"/>
      <point x="411" y="286"/>
      <point x="411" y="536" type="curve" smooth="yes"/>
    </contour>
  </outline>
</glyph>
<glyph name="Udieresis" format="1">
  <advance width="1466"/>
  <unicode hex="00DC"/>
  <outline>
    <contour>
      <point x="897" y="1514"/>
      <point x="1008" y="1505"/>
      <point x="1034" y="1521" type="curve"/>
      <point x="1062" y="1544"/>
      <point x="1073" y="1658"/>
      <point x="1054" y="1682" type="curve" smooth="yes"/>
      <point x="1033" y="1710"/>
      <point x="918" y="1723"/>
      <point x="895" y="1703" type="curve"/>
      <point x="864" y="1683"/>
      <point x="857" y="1567"/>
      <point x="874" y="1542" type="curve"/>
    </contour>
    <contour>
      <point x="513" y="1514"/>
      <point x="626" y="1504"/>
      <point x="651" y="1521" type="curve"/>
      <point x="680" y="1543"/>
      <point x="689" y="1657"/>
      <point x="672" y="1682" type="curve"/>
      <point x="649" y="1710"/>
      <point x="536" y="1721"/>
      <point x="512" y="1703" type="curve" smooth="yes"/>
      <point x="483" y="1682"/>
      <point x="473" y="1566"/>
      <point x="492" y="1542" type="curve" smooth="yes"/>
    </contour>
    <contour>
      <point x="411" y="1235" type="line"/>
      <point x="602" y="1282" type="line"/>
      <point x="624" y="1384" type="line"/>
      <point x="64" y="1384" type="line"/>
      <point x="48" y="1301" type="line"/>
      <point x="219" y="1246" type="line"/>
      <point x="219" y="469" type="line" smooth="yes"/>
      <point x="219" y="174"/>
      <point x="382" y="-35"/>
      <point x="729" y="-35" type="curve" smooth="yes"/>
      <point x="1071" y="-35"/>
      <point x="1250" y="175"/>
      <point x="1250" y="472" type="curve" smooth="yes"/>
      <point x="1250" y="1242" type="line"/>
      <point x="1403" y="1299" type="line"/>
      <point x="1419" y="1384" type="line"/>
      <point x="927" y="1384" type="line"/>
      <point x="911" y="1301" type="line"/>
      <point x="1108" y="1242" type="line"/>
      <point x="1108" y="477" type="line" smooth="yes"/>
      <point x="1108" y="348"/>
      <point x="1075" y="244"/>
      <point x="1010" y="180" type="curve" smooth="yes"/>
      <point x="962" y="131"/>
      <point x="894" y="103"/>
      <point x="810" y="103" type="curve" smooth="yes"/>
      <point x="578" y="103"/>
      <point x="411" y="286"/>
      <point x="411" y="536" type="curve" smooth="yes"/>
    </contour>
  </outline>
</glyph>
<glyph name="Yacute" format="1">
  <advance width="1199"/>
  <unicode hex="00DD"/>
  <outline>
    <contour>
      <point x="432" y="1599" type="line"/>
      <point x="450" y="1494" type="line"/>
      <point x="888" y="1635" type="line"/>
      <point x="861" y="1785" type="line"/>
      <point x="800" y="1785" type="line"/>
    </contour>
    <contour>
      <point x="510" y="139" type="line"/>
      <point x="337" y="84" type="line"/>
      <point x="323" y="0" type="line"/>
      <point x="885" y="0" type="line"/>
      <point x="901" y="83" type="line"/>
      <point x="702" y="139" type="line"/>
      <point x="702" y="560" type="line"/>
      <point x="1070" y="1252" type="line"/>
      <point x="1199" y="1289" type="line"/>
      <point x="1214" y="1384" type="line"/>
      <point x="755" y="1384" type="line"/>
      <point x="738" y="1301" type="line"/>
      <point x="926" y="1244" type="line"/>
      <point x="835" y="1052"/>
      <point x="712" y="820"/>
      <point x="652" y="667" type="curve"/>
      <point x="316" y="1247" type="line"/>
      <point x="478" y="1295" type="line"/>
      <point x="494" y="1384" type="line"/>
      <point x="-13" y="1384" type="line"/>
      <point x="-30" y="1290" type="line"/>
      <point x="101" y="1251" type="line"/>
      <point x="510" y="558" type="line"/>
    </contour>
  </outline>
</glyph>
<glyph name="aacute" format="1">
  <advance width="970"/>
  <unicode hex="00E1"/>
  <outline>
    <contour>
      <point x="578" y="1447" type="line"/>
      <point x="280" y="1183" type="line"/>
      <point x="303" y="1061" type="line"/>
      <point x="671" y="1298" type="line"/>
      <point x="642" y="1447" type="line"/>
    </contour>
    <contour>
      <point x="68" y="125"/>
      <point x="138" y="-25"/>
      <point x="326" y="-25" type="curve" smooth="yes"/>
      <point x="437" y="-25"/>
      <point x="595" y="68"/>
      <point x="638" y="132" type="curve"/>
      <point x="680" y="81"/>
      <point x="703" y="33"/>
      <point x="723" y="-25" type="curve"/>
      <point x="793" y="-21"/>
      <point x="875" y="0"/>
      <point x="951" y="35" type="curve"/>
      <point x="963" y="93" type="line"/>
      <point x="892" y="109"/>
      <point x="838" y="142"/>
      <point x="790" y="192" type="curve"/>
      <point x="790" y="674" type="line" smooth="yes"/>
      <point x="790" y="846"/>
      <point x="724" y="975"/>
      <point x="530" y="975" type="curve" smooth="yes"/>
      <point x="473" y="975"/>
      <point x="294" y="938"/>
      <point x="187" y="879" type="curve" smooth="yes"/>
      <point x="144" y="855"/>
      <point x="103" y="823"/>
      <point x="103" y="779" type="curve" smooth="yes"/>
      <point x="103" y="720"/>
      <point x="168" y="671"/>
      <point x="220" y="671" type="curve" smooth="yes"/>
      <point x="243" y="671"/>
      <point x="264" y="677"/>
      <point x="281" y="686" type="curve"/>
      <point x="315" y="868" type="line"/>
      <point x="334" y="872"/>
      <point x="358" y="875"/>
      <point x="382" y="875" type="curve" smooth="yes"/>
      <point x="430" y="875"/>
      <point x="481" y="867"/>
      <point x="510" y="851" type="curve" smooth="yes"/>
      <point x="601" y="802"/>
      <point x="611" y="665"/>
      <point x="611" y="575" type="curve" smooth="yes"/>
      <point x="611" y="521" type="line"/>
      <point x="585" y="523"/>
      <point x="558" y="524"/>
      <point x="531" y="524" type="curve" smooth="yes"/>
      <point x="442" y="524"/>
      <point x="302" y="511"/>
      <point x="218" y="475" type="curve" smooth="yes"/>
      <point x="111" y="430"/>
      <point x="68" y="371"/>
      <point x="68" y="241" type="curve" smooth="yes"/>
    </contour>
    <contour>
      <point x="300" y="133"/>
      <point x="252" y="223"/>
      <point x="252" y="291" type="curve" smooth="yes"/>
      <point x="252" y="316"/>
      <point x="255" y="341"/>
      <point x="271" y="357" type="curve"/>
      <point x="295" y="383"/>
      <point x="394" y="443"/>
      <point x="611" y="458" type="curve"/>
      <point x="611" y="165" type="line"/>
      <point x="558" y="138"/>
      <point x="453" y="106"/>
      <point x="390" y="106" type="curve" smooth="yes"/>
      <point x="377" y="106"/>
      <point x="365" y="108"/>
      <point x="356" y="112" type="curve"/>
    </contour>
  </outline>
</glyph>
<glyph name="ccedilla" format="1">
  <advance width="873"/>
  <unicode hex="00E7"/>
  <outline>
    <contour>
      <point x="806" y="185" type="line"/>
      <point x="778" y="169"/>
      <point x="651" y="117"/>
      <point x="565" y="117" type="curve" smooth="yes"/>
      <point x="468" y="117"/>
      <point x="389" y="173"/>
      <point x="343" y="241" type="curve" smooth="yes"/>
      <point x="283" y="327"/>
      <point x="259" y="429"/>
      <point x="259" y="530" type="curve" smooth="yes"/>
      <point x="259" y="624"/>
      <point x="286" y="719"/>
      <point x="358" y="794" type="curve" smooth="yes"/>
      <point x="429" y="866"/>
      <point x="515" y="886"/>
      <point x="598" y="887" type="curve"/>
      <point x="627" y="746" type="line"/>
      <point x="643" y="737"/>
      <point x="667" y="730"/>
      <point x="690" y="730" type="curve" smooth="yes"/>
      <point x="743" y="730"/>
      <point x="808" y="793"/>
      <point x="808" y="854" type="curve" smooth="yes"/>
      <point x="808" y="899"/>
      <point x="773" y="930"/>
      <point x="736" y="946" type="curve" smooth="yes"/>
      <point x="696" y="962"/>
      <point x="643" y="971"/>
      <point x="578" y="971" type="curve" smooth="yes"/>
      <point x="303" y="971"/>
      <point x="74" y="804"/>
      <point x="74" y="448" type="curve" smooth="yes"/>
      <point x="74" y="210"/>
      <point x="192" y="10"/>
      <point x="434" y="-21" type="curve"/>
      <point x="400" y="-61"/>
      <point x="356" y="-129"/>
      <point x="354" y="-164" type="curve"/>
      <point x="476" y="-188"/>
      <point x="526" y="-214"/>
      <point x="526" y="-250" type="curve" smooth="yes"/>
      <point x="526" y="-282"/>
      <point x="502" y="-327"/>
      <point x="306" y="-405" type="curve"/>
      <point x="319" y="-453" type="line"/>
      <point x="454" y="-453"/>
      <point x="673" y="-404"/>
      <point x="673" y="-245" type="curve" smooth="yes"/>
      <point x="673" y="-159"/>
      <point x="617" y="-118"/>
      <point x="515" y="-85" type="curve"/>
      <point x="548" y="-21" type="line"/>
      <point x="672" y="-2"/>
      <point x="778" y="89"/>
      <point x="829" y="151" type="curve"/>
    </contour>
  </outline>
</glyph>
<glyph name="ecircumflex" format="1">
  <advance width="921"/>
  <unicode hex="00EA"/>
  <outline>
    <contour>
      <point x="238" y="1083" type="line"/>
      <point x="481" y="1229" type="line"/>
      <point x="724" y="1083" type="line"/>
      <point x="787" y="1145" type="line"/>
      <point x="536" y="1391" type="line"/>
      <point x="427" y="1391" type="line"/>
      <point x="175" y="1145" type="line"/>
    </contour>
    <contour>
      <point x="374" y="119"/>
      <point x="258" y="300"/>
      <point x="245" y="488" type="curve"/>
      <point x="782" y="488" type="line" smooth="yes"/>
      <point x="807" y="488"/>
      <point x="816" y="500"/>
      <point x="823" y="522" type="curve" smooth="yes"/>
      <point x="837" y="567"/>
      <point x="844" y="613"/>
      <point x="844" y="656" type="curve" smooth="yes"/>
      <point x="844" y="832"/>
      <point x="730" y="975"/>
      <point x="527" y="975" type="curve" smooth="yes"/>
      <point x="256" y="975"/>
      <point x="74" y="744"/>
      <point x="74" y="453" type="curve" smooth="yes"/>
      <point x="74" y="106"/>
      <point x="266" y="-25"/>
      <point x="483" y="-25" type="curve" smooth="yes"/>
      <point x="630" y="-25"/>
      <point x="778" y="85"/>
      <point x="837" y="156" type="curve"/>
      <point x="813" y="191" type="line"/>
      <point x="781" y="173"/>
      <point x="646" y="119"/>
      <point x="547" y="119" type="curve" smooth="yes"/>
    </contour>
    <contour>
      <point x="565" y="858"/>
      <point x="677" y="769"/>
      <point x="678" y="597" type="curve"/>
      <point x="245" y="563" type="line"/>
      <point x="252" y="707"/>
      <point x="298" y="801"/>
      <point x="328" y="833" type="curve" smooth="yes"/>
      <point x="351" y="856"/>
      <point x="398" y="858"/>
      <point x="430" y="858" type="curve" smooth="yes"/>
    </contour>
  </outline>
</glyph>
<glyph name="edieresis" format="1">
  <advance width="921"/>
  <unicode hex="00EB"/>
  <outline>
    <contour>
      <point x="417" y="1201"/>
      <point x="431" y="1331"/>
      <point x="408" y="1356" type="curve" smooth="yes"/>
      <point x="381" y="1387"/>
      <point x="256" y="1402"/>
      <point x="228" y="1379" type="curve" smooth="yes"/>
      <point x="198" y="1353"/>
      <point x="184" y="1225"/>
      <point x="207" y="1197" type="curve" smooth="yes"/>
      <point x="228" y="1170"/>
      <point x="358" y="1154"/>
      <point x="386" y="1175" type="curve"/>
    </contour>
    <contour>
      <point x="764" y="1201"/>
      <point x="779" y="1331"/>
      <point x="756" y="1356" type="curve" smooth="yes"/>
      <point x="729" y="1387"/>
      <point x="603" y="1402"/>
      <point x="575" y="1379" type="curve" smooth="yes"/>
      <point x="545" y="1353"/>
      <point x="532" y="1226"/>
      <point x="554" y="1197" type="curve"/>
      <point x="580" y="1166"/>
      <point x="704" y="1154"/>
      <point x="733" y="1175" type="curve"/>
    </contour>
    <contour>
      <point x="374" y="119"/>
      <point x="258" y="300"/>
      <point x="245" y="488" type="curve"/>
      <point x="782" y="488" type="line" smooth="yes"/>
      <point x="807" y="488"/>
      <point x="816" y="500"/>
      <point x="823" y="522" type="curve" smooth="yes"/>
      <point x="837" y="567"/>
      <point x="844" y="613"/>
      <point x="844" y="656" type="curve" smooth="yes"/>
      <point x="844" y="832"/>
      <point x="730" y="975"/>
      <point x="527" y="975" type="curve" smooth="yes"/>
      <point x="256" y="975"/>
      <point x="74" y="744"/>
      <point x="74" y="453" type="curve" smooth="yes"/>
      <point x="74" y="106"/>
      <point x="266" y="-25"/>
      <point x="483" y="-25" type="curve" smooth="yes"/>
      <point x="630" y="-25"/>
      <point x="778" y="85"/>
      <point x="837" y="156" type="curve"/>
      <point x="813" y="191" type="line"/>
      <point x="781" y="173"/>
      <point x="646" y="119"/>
      <point x="547" y="119" type="curve" smooth="yes"/>
    </contour>
    <contour>
      <point x="565" y="858"/>
      <point x="677" y="769"/>
      <point x="678" y="597" type="curve"/>
      <point x="245" y="563" type="line"/>
      <point x="252" y="707"/>
      <point x="298" y="801"/>
      <point x="328" y="833" type="curve" smooth="yes"/>
      <point x="351" y="856"/>
      <point x="398" y="858"/>
      <point x="430" y="858" type="curve" smooth="yes"/>
    </contour>
  </outline>
</glyph>
<glyph name="igrave" format="1">
  <advance width="590"/>
  <unicode hex="00EC"/>
  <outline>
    <contour>
      <point x="70" y="1298" type="line"/>
      <point x="439" y="1061" type="line"/>
      <point x="461" y="1183" type="line"/>
      <point x="165" y="1447" type="line"/>
      <point x="99" y="1447" type="line"/>
    </contour>
    <contour>
      <point x="215" y="126" type="line"/>
      <point x="69" y="84" type="line"/>
      <point x="54" y="0" type="line"/>
      <point x="541" y="0" type="line"/>
      <point x="559" y="82" type="line"/>
      <point x="394" y="126" type="line"/>
      <point x="394" y="965" type="line"/>
      <point x="70" y="900" type="line"/>
      <point x="61" y="853" type="line"/>
      <point x="215" y="776" type="line"/>
    </contour>
  </outline>
</glyph>
<glyph name="iacute" format="1">
  <advance width="590"/>
  <unicode hex="00ED"/>
  <outline>
    <contour>
      <point x="405" y="1447" type="line"/>
      <point x="107" y="1183" type="line"/>
      <point x="130" y="1061" type="line"/>
      <point x="498" y="1298" type="line"/>
      <point x="469" y="1447" type="line"/>
    </contour>
    <contour>
      <point x="215" y="126" type="line"/>
      <point x="69" y="84" type="line"/>
      <point x="54" y="0" type="line"/>
      <point x="541" y="0" type="line"/>
      <point x="559" y="82" type="line"/>
      <point x="394" y="126" type="line"/>
      <point x="394" y="965" type="line"/>
      <point x="70" y="900" type="line"/>
      <point x="61" y="853" type="line"/>
      <point x="215" y="776" type="line"/>
    </contour>
  </outline>
</glyph>
<glyph name="icircumflex" format="1">
  <advance width="590"/>
  <unicode hex="00EE"/>
  <outline>
    <contour>
      <point x="42" y="1083" type="line"/>
      <point x="285" y="1229" type="line"/>
      <point x="528" y="1083" type="line"/>
      <point x="591" y="1145" type="line"/>
      <point x="340" y="1391" type="line"/>
      <point x="231" y="1391" type="line"/>
      <point x="-21" y="1145" type="line"/>
    </contour>
    <contour>
      <point x="215" y="126" type="line"/>
      <point x="69" y="84" type="line"/>
      <point x="54" y="0" type="line"/>
      <point x="541" y="0" type="line"/>
      <point x="559" y="82" type="line"/>
      <point x="394" y="126" type="line"/>
      <point x="394" y="965" type="line"/>
      <point x="70" y="900" type="line"/>
      <point x="61" y="853" type="line"/>
      <point x="215" y="776" type="line"/>
    </contour>
  </outline>
</glyph>
<glyph name="idieresis" format="1">
  <advance width="590"/>
  <unicode hex="00EF"/>
  <outline>
    <contour>
      <point x="32" y="1170"/>
      <point x="162" y="1154"/>
      <point x="190" y="1175" type="curve"/>
      <point x="221" y="1201"/>
      <point x="235" y="1331"/>
      <point x="212" y="1356" type="curve" smooth="yes"/>
      <point x="185" y="1387"/>
      <point x="60" y="1402"/>
      <point x="32" y="1379" type="curve" smooth="yes"/>
      <point x="2" y="1353"/>
      <point x="-12" y="1225"/>
      <point x="11" y="1197" type="curve" smooth="yes"/>
    </contour>
    <contour>
      <point x="384" y="1166"/>
      <point x="508" y="1154"/>
      <point x="537" y="1175" type="curve"/>
      <point x="568" y="1201"/>
      <point x="583" y="1331"/>
      <point x="560" y="1356" type="curve" smooth="yes"/>
      <point x="533" y="1387"/>
      <point x="407" y="1402"/>
      <point x="379" y="1379" type="curve" smooth="yes"/>
      <point x="349" y="1353"/>
      <point x="336" y="1226"/>
      <point x="358" y="1197" type="curve"/>
    </contour>
    <contour>
      <point x="215" y="126" type="line"/>
      <point x="69" y="84" type="line"/>
      <point x="54" y="0" type="line"/>
      <point x="541" y="0" type="line"/>
      <point x="559" y="82" type="line"/>
      <point x="394" y="126" type="line"/>
      <point x="394" y="965" type="line"/>
      <point x="70" y="900" type="line"/>
      <point x="61" y="853" type="line"/>
      <point x="215" y="776" type="line"/>
    </contour>
  </outline>
</glyph>
<glyph name="ntilde" format="1">
  <advance width="1200"/>
  <unicode hex="00F1"/>
  <outline>
    <contour>
      <point x="288" y="1152" type="line"/>
      <point x="345" y="1214"/>
      <point x="438" y="1255"/>
      <point x="475" y="1255" type="curve" smooth="yes"/>
      <point x="525" y="1255"/>
      <point x="602" y="1131"/>
      <point x="713" y="1131" type="curve" smooth="yes"/>
      <point x="798" y="1131"/>
      <point x="869" y="1200"/>
      <point x="931" y="1264" type="curve"/>
      <point x="914" y="1377" type="line"/>
      <point x="848" y="1323"/>
      <point x="762" y="1277"/>
      <point x="726" y="1277" type="curve" smooth="yes"/>
      <point x="676" y="1277"/>
      <point x="597" y="1401"/>
      <point x="486" y="1401" type="curve" smooth="yes"/>
      <point x="402" y="1401"/>
      <point x="335" y="1334"/>
      <point x="268" y="1265" type="curve"/>
    </contour>
    <contour>
      <point x="62" y="853" type="line"/>
      <point x="216" y="775" type="line"/>
      <point x="216" y="136" type="line"/>
      <point x="74" y="88" type="line"/>
      <point x="57" y="0" type="line"/>
      <point x="546" y="0" type="line"/>
      <point x="564" y="81" type="line"/>
      <point x="395" y="126" type="line"/>
      <point x="395" y="698" type="line" smooth="yes"/>
      <point x="395" y="717"/>
      <point x="390" y="755"/>
      <point x="390" y="755" type="curve"/>
      <point x="478" y="785"/>
      <point x="649" y="827"/>
      <point x="705" y="827" type="curve" smooth="yes"/>
      <point x="719" y="827"/>
      <point x="730" y="823"/>
      <point x="744" y="814" type="curve"/>
      <point x="787" y="782"/>
      <point x="839" y="701"/>
      <point x="839" y="550" type="curve" smooth="yes"/>
      <point x="839" y="131" type="line"/>
      <point x="734" y="87" type="line"/>
      <point x="717" y="0" type="line"/>
      <point x="1169" y="0" type="line"/>
      <point x="1186" y="82" type="line"/>
      <point x="1018" y="126" type="line"/>
      <point x="1018" y="618" type="line" smooth="yes"/>
      <point x="1018" y="893"/>
      <point x="885" y="973"/>
      <point x="767" y="973" type="curve" smooth="yes"/>
      <point x="654" y="973"/>
      <point x="490" y="886"/>
      <point x="381" y="800" type="curve"/>
      <point x="345" y="965" type="line"/>
      <point x="71" y="900" type="line"/>
    </contour>
  </outline>
</glyph>
<glyph name="ograve" format="1">
  <advance width="1022"/>
  <unicode hex="00F2"/>
  <outline>
    <contour>
      <point x="296" y="1298" type="line"/>
      <point x="665" y="1061" type="line"/>
      <point x="687" y="1183" type="line"/>
      <point x="391" y="1447" type="line"/>
      <point x="325" y="1447" type="line"/>
    </contour>
    <contour>
      <point x="73" y="115"/>
      <point x="271" y="-25"/>
      <point x="519" y="-25" type="curve" smooth="yes"/>
      <point x="759" y="-25"/>
      <point x="949" y="229"/>
      <point x="949" y="512" type="curve" smooth="yes"/>
      <point x="949" y="831"/>
      <point x="751" y="975"/>
      <point x="514" y="975" type="curve" smooth="yes"/>
      <point x="252" y="975"/>
      <point x="73" y="714"/>
      <point x="73" y="437" type="curve" smooth="yes"/>
    </contour>
    <contour>
      <point x="346" y="107"/>
      <point x="247" y="353"/>
      <point x="247" y="572" type="curve" smooth="yes"/>
      <point x="247" y="654"/>
      <point x="269" y="757"/>
      <point x="299" y="791" type="curve"/>
      <point x="328" y="819"/>
      <point x="363" y="843"/>
      <point x="446" y="843" type="curve" smooth="yes"/>
      <point x="629" y="843"/>
      <point x="775" y="667"/>
      <point x="775" y="375" type="curve" smooth="yes"/>
      <point x="775" y="313"/>
      <point x="761" y="198"/>
      <point x="723" y="160" type="curve" smooth="yes"/>
      <point x="686" y="123"/>
      <point x="625" y="107"/>
      <point x="568" y="107" type="curve" smooth="yes"/>
    </contour>
  </outline>
</glyph>
<glyph name="odieresis" format="1">
  <advance width="1022"/>
  <unicode hex="00F6"/>
  <outline>
    <contour>
      <point x="258" y="1170"/>
      <point x="388" y="1154"/>
      <point x="416" y="1175" type="curve"/>
      <point x="447" y="1201"/>
      <point x="461" y="1331"/>
      <point x="438" y="1356" type="curve" smooth="yes"/>
      <point x="411" y="1387"/>
      <point x="286" y="1402"/>
      <point x="258" y="1379" type="curve" smooth="yes"/>
      <point x="228" y="1353"/>
      <point x="214" y="1225"/>
      <point x="237" y="1197" type="curve" smooth="yes"/>
    </contour>
    <contour>
      <point x="610" y="1166"/>
      <point x="734" y="1154"/>
      <point x="763" y="1175" type="curve"/>
      <point x="794" y="1201"/>
      <point x="809" y="1331"/>
      <point x="786" y="1356" type="curve" smooth="yes"/>
      <point x="759" y="1387"/>
      <point x="633" y="1402"/>
      <point x="605" y="1379" type="curve" smooth="yes"/>
      <point x="575" y="1353"/>
      <point x="562" y="1226"/>
      <point x="584" y="1197" type="curve"/>
    </contour>
    <contour>
      <point x="73" y="115"/>
      <point x="271" y="-25"/>
      <point x="519" y="-25" type="curve" smooth="yes"/>
      <point x="759" y="-25"/>
      <point x="949" y="229"/>
      <point x="949" y="512" type="curve" smooth="yes"/>
      <point x="949" y="831"/>
      <point x="751" y="975"/>
      <point x="514" y="975" type="curve" smooth="yes"/>
      <point x="252" y="975"/>
      <point x="73" y="714"/>
      <point x="73" y="437" type="curve" smooth="yes"/>
    </contour>
    <contour>
      <point x="346" y="107"/>
      <point x="247" y="353"/>
      <point x="247" y="572" type="curve" smooth="yes"/>
      <point x="247" y="654"/>
      <point x="269" y="757"/>
      <point x="299" y="791" type="curve"/>
      <point x="328" y="819"/>
      <point x="363" y="843"/>
      <point x="446" y="843" type="curve" smooth="yes"/>
      <point x="629" y="843"/>
      <point x="775" y="667"/>
      <point x="775" y="375" type="curve" smooth="yes"/>
      <point x="775" y="313"/>
      <point x="761" y="198"/>
      <point x="723" y="160" type="curve" smooth="yes"/>
      <point x="686" y="123"/>
      <point x="625" y="107"/>
      <point x="568" y="107" type="curve" smooth="yes"/>
    </contour>
  </outline>
</glyph>
<glyph name="divide" format="1">
  <advance width="1024"/>
  <unicode hex="00F7"/>
  <outline>
    <contour>
      <point x="602" y="805"/>
      <point x="620" y="918"/>
      <point x="599" y="942" type="curve"/>
      <point x="582" y="965"/>
      <point x="476" y="984"/>
      <point x="445" y="962" type="curve" smooth="yes"/>
      <point x="421" y="945"/>
      <point x="405" y="832"/>
      <point x="426" y="807" type="curve" smooth="yes"/>
      <point x="448" y="779"/>
      <point x="558" y="771"/>
      <point x="579" y="788" type="curve"/>
    </contour>
    <contour>
      <point x="167" y="644" type="line"/>
      <point x="140" y="506" type="line"/>
      <point x="296" y="506"/>
      <point x="720" y="508"/>
      <point x="863" y="520" type="curve"/>
      <point x="884" y="644" type="line"/>
    </contour>
    <contour>
      <point x="603" y="203"/>
      <point x="621" y="315"/>
      <point x="600" y="339" type="curve"/>
      <point x="583" y="362"/>
      <point x="476" y="381"/>
      <point x="446" y="359" type="curve"/>
      <point x="422" y="343"/>
      <point x="405" y="230"/>
      <point x="427" y="204" type="curve"/>
      <point x="448" y="177"/>
      <point x="559" y="169"/>
      <point x="579" y="186" type="curve"/>
    </contour>
  </outline>
</glyph>
<glyph name="ugrave" format="1">
  <advance width="1159"/>
  <unicode hex="00F9"/>
  <outline>
    <contour>
      <point x="345" y="1298" type="line"/>
      <point x="714" y="1061" type="line"/>
      <point x="736" y="1183" type="line"/>
      <point x="440" y="1447" type="line"/>
      <point x="374" y="1447" type="line"/>
    </contour>
    <contour>
      <point x="23" y="869" type="line"/>
      <point x="180" y="800" type="line"/>
      <point x="180" y="332" type="line" smooth="yes"/>
      <point x="180" y="58"/>
      <point x="312" y="-25"/>
      <point x="442" y="-25" type="curve" smooth="yes"/>
      <point x="577" y="-25"/>
      <point x="726" y="52"/>
      <point x="804" y="136" type="curve"/>
      <point x="843" y="100"/>
      <point x="883" y="5"/>
      <point x="891" y="-25" type="curve"/>
      <point x="956" y="-25"/>
      <point x="1077" y="12"/>
      <point x="1119" y="34" type="curve"/>
      <point x="1132" y="94" type="line"/>
      <point x="1097" y="99"/>
      <point x="995" y="138"/>
      <point x="959" y="192" type="curve"/>
      <point x="959" y="950" type="line"/>
      <point x="616" y="950" type="line"/>
      <point x="598" y="869" type="line"/>
      <point x="781" y="800" type="line"/>
      <point x="781" y="174" type="line"/>
      <point x="709" y="143"/>
      <point x="590" y="119"/>
      <point x="509" y="119" type="curve" smooth="yes"/>
      <point x="490" y="119"/>
      <point x="472" y="123"/>
      <point x="456" y="135" type="curve" smooth="yes"/>
      <point x="412" y="167"/>
      <point x="359" y="249"/>
      <point x="359" y="404" type="curve" smooth="yes"/>
      <point x="359" y="950" type="line"/>
      <point x="40" y="950" type="line"/>
    </contour>
  </outline>
</glyph>
<glyph name="ydieresis" format="1">
  <advance width="1037"/>
  <unicode hex="00FF"/>
  <outline>
    <contour>
      <point x="455" y="1201"/>
      <point x="469" y="1331"/>
      <point x="446" y="1356" type="curve" smooth="yes"/>
      <point x="419" y="1387"/>
      <point x="294" y="1402"/>
      <point x="266" y="1379" type="curve" smooth="yes"/>
      <point x="236" y="1353"/>
      <point x="222" y="1225"/>
      <point x="245" y="1197" type="curve" smooth="yes"/>
      <point x="266" y="1170"/>
      <point x="396" y="1154"/>
      <point x="424" y="1175" type="curve"/>
    </contour>
    <contour>
      <point x="802" y="1201"/>
      <point x="817" y="1331"/>
      <point x="794" y="1356" type="curve" smooth="yes"/>
      <point x="767" y="1387"/>
      <point x="641" y="1402"/>
      <point x="613" y="1379" type="curve" smooth="yes"/>
      <point x="583" y="1353"/>
      <point x="570" y="1226"/>
      <point x="592" y="1197" type="curve"/>
      <point x="618" y="1166"/>
      <point x="742" y="1154"/>
      <point x="771" y="1175" type="curve"/>
    </contour>
    <contour>
      <point x="1025" y="950" type="line"/>
      <point x="647" y="950" type="line"/>
      <point x="634" y="875" type="line"/>
      <point x="778" y="824" type="line"/>
      <point x="566" y="205" type="line"/>
      <point x="304" y="826" type="line"/>
      <point x="440" y="879" type="line"/>
      <point x="453" y="950" type="line"/>
      <point x="-24" y="950" type="line"/>
      <point x="-38" y="875" type="line"/>
      <point x="105" y="820" type="line"/>
      <point x="484" y="-21" type="line"/>
      <point x="395" y="-218"/>
      <point x="274" y="-397"/>
      <point x="228" y="-424" type="curve"/>
      <point x="198" y="-266" type="line"/>
      <point x="179" y="-253"/>
      <point x="148" y="-248"/>
      <point x="128" y="-248" type="curve" smooth="yes"/>
      <point x="77" y="-248"/>
      <point x="6" y="-321"/>
      <point x="6" y="-381" type="curve" smooth="yes"/>
      <point x="6" y="-469"/>
      <point x="121" y="-500"/>
      <point x="202" y="-500" type="curve" smooth="yes"/>
      <point x="232" y="-500"/>
      <point x="259" y="-495"/>
      <point x="287" y="-484" type="curve" smooth="yes"/>
      <point x="433" y="-425"/>
      <point x="532" y="-216"/>
      <point x="668" y="162" type="curve" smooth="yes"/>
      <point x="906" y="825" type="line"/>
      <point x="1012" y="882" type="line"/>
    </contour>
  </outline>
</glyph>
<glyph name="Abreve" format="1">
  <advance width="1336"/>
  <unicode hex="0102"/>
  <outline>
    <contour>
      <point x="821" y="1492"/>
      <point x="905" y="1606"/>
      <point x="905" y="1703" type="curve" smooth="yes"/>
      <point x="905" y="1731"/>
      <point x="899" y="1754"/>
      <point x="886" y="1766" type="curve"/>
      <point x="783" y="1766" type="line"/>
      <point x="779" y="1653"/>
      <point x="702" y="1603"/>
      <point x="649" y="1603" type="curve" smooth="yes"/>
      <point x="597" y="1603"/>
      <point x="520" y="1653"/>
      <point x="516" y="1765" type="curve"/>
      <point x="415" y="1766" type="line"/>
      <point x="401" y="1757"/>
      <point x="394" y="1733"/>
      <point x="394" y="1702" type="curve" smooth="yes"/>
      <point x="394" y="1608"/>
      <point x="478" y="1492"/>
      <point x="649" y="1492" type="curve" smooth="yes"/>
    </contour>
    <contour>
      <point x="1358" y="99" type="line"/>
      <point x="1207" y="133" type="line"/>
      <point x="715" y="1419" type="line"/>
      <point x="596" y="1384" type="line"/>
      <point x="145" y="142" type="line"/>
      <point x="-10" y="95" type="line"/>
      <point x="-28" y="0" type="line"/>
      <point x="469" y="0" type="line"/>
      <point x="487" y="83" type="line"/>
      <point x="281" y="138" type="line"/>
      <point x="281" y="138"/>
      <point x="326" y="269"/>
      <point x="384" y="437" type="curve"/>
      <point x="551" y="436"/>
      <point x="716" y="441"/>
      <point x="878" y="451" type="curve"/>
      <point x="998" y="133" type="line"/>
      <point x="834" y="86" type="line"/>
      <point x="818" y="0" type="line"/>
      <point x="1337" y="0" type="line"/>
    </contour>
    <contour>
      <point x="834" y="568" type="line"/>
      <point x="428" y="568" type="line"/>
      <point x="513" y="820"/>
      <point x="605" y="1099"/>
      <point x="614" y="1155" type="curve"/>
    </contour>
  </outline>
</glyph>
<glyph name="Edotaccent" format="1">
  <advance width="1246"/>
  <unicode hex="0116"/>
  <outline>
    <contour>
      <point x="555" y="1514"/>
      <point x="668" y="1504"/>
      <point x="693" y="1521" type="curve"/>
      <point x="722" y="1543"/>
      <point x="732" y="1658"/>
      <point x="713" y="1682" type="curve" smooth="yes"/>
      <point x="692" y="1710"/>
      <point x="578" y="1721"/>
      <point x="554" y="1703" type="curve" smooth="yes"/>
      <point x="525" y="1681"/>
      <point x="514" y="1565"/>
      <point x="534" y="1542" type="curve"/>
    </contour>
    <contour>
      <point x="997" y="155" type="line"/>
      <point x="454" y="99" type="line"/>
      <point x="454" y="659" type="line"/>
      <point x="549" y="642"/>
      <point x="647" y="639"/>
      <point x="747" y="639" type="curve"/>
      <point x="792" y="480" type="line"/>
      <point x="871" y="463" type="line"/>
      <point x="889" y="914" type="line"/>
      <point x="811" y="935" type="line"/>
      <point x="749" y="765" type="line"/>
      <point x="650" y="761"/>
      <point x="551" y="753"/>
      <point x="454" y="741" type="curve"/>
      <point x="454" y="1296" type="line"/>
      <point x="933" y="1246" type="line"/>
      <point x="1032" y="1024" type="line"/>
      <point x="1121" y="1046" type="line"/>
      <point x="1087" y="1397" type="line"/>
      <point x="960" y="1384" type="line"/>
      <point x="95" y="1384" type="line"/>
      <point x="74" y="1304" type="line"/>
      <point x="262" y="1248" type="line"/>
      <point x="262" y="141" type="line"/>
      <point x="83" y="85" type="line"/>
      <point x="67" y="0" type="line"/>
      <point x="1121" y="0" type="line"/>
      <point x="1200" y="320" type="line"/>
      <point x="1121" y="340" type="line"/>
    </contour>
  </outline>
</glyph>
<glyph name="edotaccent" format="1">
  <advance width="921"/>
  <unicode hex="0117"/>
  <outline>
    <contour>
      <point x="590" y="1201"/>
      <point x="605" y="1331"/>
      <point x="582" y="1356" type="curve" smooth="yes"/>
      <point x="555" y="1387"/>
      <point x="429" y="1402"/>
      <point x="401" y="1379" type="curve" smooth="yes"/>
      <point x="371" y="1353"/>
      <point x="357" y="1225"/>
      <point x="380" y="1197" type="curve" smooth="yes"/>
      <point x="401" y="1170"/>
      <point x="531" y="1154"/>
      <point x="559" y="1175" type="curve"/>
    </contour>
    <contour>
      <point x="374" y="119"/>
      <point x="258" y="300"/>
      <point x="245" y="488" type="curve"/>
      <point x="782" y="488" type="line" smooth="yes"/>
      <point x="807" y="488"/>
      <point x="816" y="500"/>
      <point x="823" y="522" type="curve" smooth="yes"/>
      <point x="837" y="567"/>
      <point x="844" y="613"/>
      <point x="844" y="656" type="curve" smooth="yes"/>
      <point x="844" y="832"/>
      <point x="730" y="975"/>
      <point x="527" y="975" type="curve" smooth="yes"/>
      <point x="256" y="975"/>
      <point x="74" y="744"/>
      <point x="74" y="453" type="curve" smooth="yes"/>
      <point x="74" y="106"/>
      <point x="266" y="-25"/>
      <point x="483" y="-25" type="curve" smooth="yes"/>
      <point x="630" y="-25"/>
      <point x="778" y="85"/>
      <point x="837" y="156" type="curve"/>
      <point x="813" y="191" type="line"/>
      <point x="781" y="173"/>
      <point x="646" y="119"/>
      <point x="547" y="119" type="curve" smooth="yes"/>
    </contour>
    <contour>
      <point x="565" y="858"/>
      <point x="677" y="769"/>
      <point x="678" y="597" type="curve"/>
      <point x="245" y="563" type="line"/>
      <point x="252" y="707"/>
      <point x="298" y="801"/>
      <point x="328" y="833" type="curve" smooth="yes"/>
      <point x="351" y="856"/>
      <point x="398" y="858"/>
      <point x="430" y="858" type="curve" smooth="yes"/>
    </contour>
  </outline>
</glyph>
<glyph name="eogonek" format="1">
  <advance width="922"/>
  <unicode hex="0119"/>
  <outline>
    <contour>
      <point x="783" y="488" type="line" smooth="yes"/>
      <point x="808" y="488"/>
      <point x="817" y="500"/>
      <point x="824" y="522" type="curve" smooth="yes"/>
      <point x="838" y="567"/>
      <point x="845" y="613"/>
      <point x="845" y="656" type="curve" smooth="yes"/>
      <point x="845" y="832"/>
      <point x="731" y="975"/>
      <point x="528" y="975" type="curve" smooth="yes"/>
      <point x="257" y="975"/>
      <point x="75" y="744"/>
      <point x="75" y="453" type="curve" smooth="yes"/>
      <point x="75" y="109"/>
      <point x="262" y="-22"/>
      <point x="478" y="-25" type="curve" smooth="yes"/>
      <point x="488" y="-25"/>
      <point x="498" y="-24"/>
      <point x="508" y="-23" type="curve"/>
      <point x="475" y="-48"/>
      <point x="438" y="-77"/>
      <point x="408" y="-106" type="curve" smooth="yes"/>
      <point x="357" y="-157"/>
      <point x="325" y="-215"/>
      <point x="325" y="-287" type="curve" smooth="yes"/>
      <point x="325" y="-406"/>
      <point x="422" y="-476"/>
      <point x="527" y="-476" type="curve" smooth="yes"/>
      <point x="616" y="-476"/>
      <point x="693" y="-421"/>
      <point x="767" y="-354" type="curve"/>
      <point x="744" y="-316" type="line"/>
      <point x="684" y="-340"/>
      <point x="633" y="-356"/>
      <point x="591" y="-356" type="curve" smooth="yes"/>
      <point x="578" y="-356"/>
      <point x="565" y="-353"/>
      <point x="553" y="-349" type="curve"/>
      <point x="506" y="-331"/>
      <point x="472" y="-281"/>
      <point x="472" y="-236" type="curve" smooth="yes"/>
      <point x="472" y="-182"/>
      <point x="529" y="-106"/>
      <point x="661" y="8" type="curve" smooth="yes"/>
      <point x="715" y="54"/>
      <point x="777" y="89"/>
      <point x="838" y="156" type="curve"/>
      <point x="814" y="189" type="line"/>
      <point x="793" y="179"/>
      <point x="663" y="119"/>
      <point x="548" y="119" type="curve" smooth="yes"/>
      <point x="365" y="119"/>
      <point x="258" y="314"/>
      <point x="247" y="488" type="curve"/>
    </contour>
    <contour>
      <point x="246" y="563" type="line"/>
      <point x="254" y="702"/>
      <point x="296" y="798"/>
      <point x="329" y="833" type="curve" smooth="yes"/>
      <point x="352" y="856"/>
      <point x="399" y="858"/>
      <point x="431" y="858" type="curve" smooth="yes"/>
      <point x="566" y="858"/>
      <point x="678" y="769"/>
      <point x="679" y="597" type="curve"/>
    </contour>
  </outline>
</glyph>
<glyph name="Ecaron" format="1">
  <advance width="1246"/>
  <unicode hex="011A"/>
  <outline>
    <contour>
      <point x="318" y="1730" type="line"/>
      <point x="575" y="1515" type="line"/>
      <point x="671" y="1515" type="line"/>
      <point x="928" y="1730" type="line"/>
      <point x="866" y="1794" type="line"/>
      <point x="623" y="1665" type="line"/>
      <point x="380" y="1794" type="line"/>
    </contour>
    <contour>
      <point x="997" y="155" type="line"/>
      <point x="454" y="99" type="line"/>
      <point x="454" y="659" type="line"/>
      <point x="549" y="642"/>
      <point x="647" y="639"/>
      <point x="747" y="639" type="curve"/>
      <point x="792" y="480" type="line"/>
      <point x="871" y="463" type="line"/>
      <point x="889" y="914" type="line"/>
      <point x="811" y="935" type="line"/>
      <point x="749" y="765" type="line"/>
      <point x="650" y="761"/>
      <point x="551" y="753"/>
      <point x="454" y="741" type="curve"/>
      <point x="454" y="1296" type="line"/>
      <point x="933" y="1246" type="line"/>
      <point x="1032" y="1024" type="line"/>
      <point x="1121" y="1046" type="line"/>
      <point x="1087" y="1397" type="line"/>
      <point x="960" y="1384" type="line"/>
      <point x="95" y="1384" type="line"/>
      <point x="74" y="1304" type="line"/>
      <point x="262" y="1248" type="line"/>
      <point x="262" y="141" type="line"/>
      <point x="83" y="85" type="line"/>
      <point x="67" y="0" type="line"/>
      <point x="1121" y="0" type="line"/>
      <point x="1200" y="320" type="line"/>
      <point x="1121" y="340" type="line"/>
    </contour>
  </outline>
</glyph>
<glyph name="gbreve" format="1">
  <advance width="1005"/>
  <unicode hex="011F"/>
  <outline>
    <contour>
      <point x="631" y="1079"/>
      <point x="757" y="1173"/>
      <point x="757" y="1293" type="curve" smooth="yes"/>
      <point x="757" y="1309"/>
      <point x="755" y="1324"/>
      <point x="746" y="1353" type="curve"/>
      <point x="639" y="1353" type="line"/>
      <point x="622" y="1227"/>
      <point x="536" y="1188"/>
      <point x="492" y="1188" type="curve" smooth="yes"/>
      <point x="449" y="1188"/>
      <point x="362" y="1228"/>
      <point x="347" y="1353" type="curve"/>
      <point x="239" y="1353" type="line"/>
      <point x="230" y="1323"/>
      <point x="228" y="1308"/>
      <point x="228" y="1292" type="curve" smooth="yes"/>
      <point x="228" y="1174"/>
      <point x="353" y="1079"/>
      <point x="492" y="1079" type="curve" smooth="yes"/>
    </contour>
    <contour>
      <point x="392" y="114"/>
      <point x="313" y="117"/>
      <point x="274" y="131" type="curve" smooth="yes"/>
      <point x="257" y="137"/>
      <point x="242" y="153"/>
      <point x="242" y="171" type="curve" smooth="yes"/>
      <point x="242" y="205"/>
      <point x="286" y="269"/>
      <point x="312" y="304" type="curve"/>
      <point x="361" y="287"/>
      <point x="413" y="279"/>
      <point x="462" y="279" type="curve" smooth="yes"/>
      <point x="723" y="279"/>
      <point x="857" y="440"/>
      <point x="857" y="656" type="curve" smooth="yes"/>
      <point x="857" y="706"/>
      <point x="847" y="751"/>
      <point x="830" y="791" type="curve"/>
      <point x="999" y="932" type="line"/>
      <point x="980" y="975" type="line"/>
      <point x="933" y="975"/>
      <point x="822" y="959"/>
      <point x="728" y="914" type="curve"/>
      <point x="671" y="953"/>
      <point x="598" y="975"/>
      <point x="516" y="975" type="curve" smooth="yes"/>
      <point x="229" y="975"/>
      <point x="112" y="796"/>
      <point x="112" y="587" type="curve" smooth="yes"/>
      <point x="112" y="454"/>
      <point x="177" y="371"/>
      <point x="263" y="326" type="curve"/>
      <point x="191" y="294"/>
      <point x="89" y="228"/>
      <point x="89" y="133" type="curve" smooth="yes"/>
      <point x="89" y="78"/>
      <point x="131" y="10"/>
      <point x="213" y="-19" type="curve"/>
      <point x="129" y="-87"/>
      <point x="31" y="-175"/>
      <point x="31" y="-271" type="curve" smooth="yes"/>
      <point x="31" y="-323"/>
      <point x="43" y="-375"/>
      <point x="90" y="-416" type="curve" smooth="yes"/>
      <point x="146" y="-465"/>
      <point x="281" y="-500"/>
      <point x="388" y="-500" type="curve" smooth="yes"/>
      <point x="749" y="-500"/>
      <point x="961" y="-286"/>
      <point x="961" y="-84" type="curve" smooth="yes"/>
      <point x="961" y="63"/>
      <point x="850" y="114"/>
      <point x="666" y="114" type="curve" smooth="yes"/>
    </contour>
    <contour>
      <point x="326" y="850"/>
      <point x="387" y="864"/>
      <point x="436" y="864" type="curve" smooth="yes"/>
      <point x="610" y="864"/>
      <point x="697" y="755"/>
      <point x="697" y="597" type="curve" smooth="yes"/>
      <point x="697" y="540"/>
      <point x="685" y="462"/>
      <point x="658" y="435" type="curve" smooth="yes"/>
      <point x="634" y="411"/>
      <point x="594" y="398"/>
      <point x="547" y="398" type="curve" smooth="yes"/>
      <point x="386" y="398"/>
      <point x="273" y="545"/>
      <point x="273" y="686" type="curve" smooth="yes"/>
      <point x="273" y="744"/>
      <point x="288" y="792"/>
      <point x="311" y="827" type="curve" smooth="yes"/>
    </contour>
    <contour>
      <point x="700" y="-339"/>
      <point x="565" y="-346"/>
      <point x="486" y="-346" type="curve" smooth="yes"/>
      <point x="332" y="-346"/>
      <point x="229" y="-304"/>
      <point x="197" y="-259" type="curve"/>
      <point x="190" y="-250"/>
      <point x="188" y="-238"/>
      <point x="188" y="-224" type="curve" smooth="yes"/>
      <point x="188" y="-166"/>
      <point x="235" y="-77"/>
      <point x="263" y="-31" type="curve"/>
      <point x="341" y="-42"/>
      <point x="482" y="-43"/>
      <point x="691" y="-43" type="curve" smooth="yes"/>
      <point x="805" y="-43"/>
      <point x="813" y="-96"/>
      <point x="813" y="-158" type="curve" smooth="yes"/>
      <point x="813" y="-226"/>
      <point x="783" y="-273"/>
      <point x="758" y="-293" type="curve" smooth="yes"/>
    </contour>
  </outline>
</glyph>
<glyph name="dotlessi" format="1">
  <advance width="590"/>
  <unicode hex="0131"/>
  <outline>
    <contour>
      <point x="215" y="126" type="line"/>
      <point x="69" y="84" type="line"/>
      <point x="54" y="0" type="line"/>
      <point x="541" y="0" type="line"/>
      <point x="559" y="82" type="line"/>
      <point x="394" y="126" type="line"/>
      <point x="394" y="965" type="line"/>
      <point x="70" y="900" type="line"/>
      <point x="61" y="853" type="line"/>
      <point x="215" y="776" type="line"/>
    </contour>
  </outline>
</glyph>
<glyph name="Nacute" format="1">
  <advance width="1525"/>
  <unicode hex="0143"/>
  <outline>
    <contour>
      <point x="585" y="1599" type="line"/>
      <point x="603" y="1494" type="line"/>
      <point x="1041" y="1635" type="line"/>
      <point x="1014" y="1785" type="line"/>
      <point x="953" y="1785" type="line"/>
    </contour>
    <contour>
      <point x="262" y="139" type="line"/>
      <point x="92" y="86" type="line"/>
      <point x="75" y="0" type="line"/>
      <point x="589" y="0" type="line"/>
      <point x="607" y="84" type="line"/>
      <point x="402" y="138" type="line"/>
      <point x="402" y="458"/>
      <point x="402" y="779"/>
      <point x="378" y="1099" type="curve"/>
      <point x="1143" y="-25" type="line"/>
      <point x="1287" y="15" type="line"/>
      <point x="1287" y="1245" type="line"/>
      <point x="1456" y="1300" type="line"/>
      <point x="1471" y="1384" type="line"/>
      <point x="960" y="1384" type="line"/>
      <point x="943" y="1301" type="line"/>
      <point x="1147" y="1247" type="line"/>
      <point x="1147" y="931"/>
      <point x="1147" y="615"/>
      <point x="1166" y="299" type="curve"/>
      <point x="416" y="1384" type="line"/>
      <point x="93" y="1384" type="line"/>
      <point x="74" y="1301" type="line"/>
      <point x="262" y="1246" type="line"/>
    </contour>
  </outline>
</glyph>
<glyph name="Ncommaaccent" format="1">
  <advance width="1525"/>
  <unicode hex="0145"/>
  <outline>
    <contour>
      <point x="262" y="139" type="line"/>
      <point x="92" y="86" type="line"/>
      <point x="75" y="0" type="line"/>
      <point x="589" y="0" type="line"/>
      <point x="607" y="84" type="line"/>
      <point x="402" y="138" type="line"/>
      <point x="402" y="458"/>
      <point x="402" y="779"/>
      <point x="378" y="1099" type="curve"/>
      <point x="1143" y="-25" type="line"/>
      <point x="1287" y="15" type="line"/>
      <point x="1287" y="1245" type="line"/>
      <point x="1456" y="1300" type="line"/>
      <point x="1471" y="1384" type="line"/>
      <point x="960" y="1384" type="line"/>
      <point x="943" y="1301" type="line"/>
      <point x="1147" y="1247" type="line"/>
      <point x="1147" y="931"/>
      <point x="1147" y="615"/>
      <point x="1166" y="299" type="curve"/>
      <point x="416" y="1384" type="line"/>
      <point x="93" y="1384" type="line"/>
      <point x="74" y="1301" type="line"/>
      <point x="262" y="1246" type="line"/>
    </contour>
    <contour>
      <point x="658" y="-206" type="line"/>
      <point x="742" y="-230"/>
      <point x="762" y="-258"/>
      <point x="762" y="-289" type="curve" smooth="yes"/>
      <point x="762" y="-331"/>
      <point x="724" y="-369"/>
      <point x="644" y="-427" type="curve"/>
      <point x="659" y="-472" type="line"/>
      <point x="719" y="-472"/>
      <point x="880" y="-401"/>
      <point x="880" y="-261" type="curve" smooth="yes"/>
      <point x="880" y="-218"/>
      <point x="860" y="-180"/>
      <point x="831" y="-152" type="curve" smooth="yes"/>
      <point x="794" y="-117"/>
      <point x="743" y="-96"/>
      <point x="686" y="-95" type="curve"/>
    </contour>
  </outline>
</glyph>
<glyph name="ncommaaccent" format="1">
  <advance width="1200"/>
  <unicode hex="0146"/>
  <outline>
    <contour>
      <point x="62" y="853" type="line"/>
      <point x="216" y="775" type="line"/>
      <point x="216" y="136" type="line"/>
      <point x="74" y="88" type="line"/>
      <point x="57" y="0" type="line"/>
      <point x="546" y="0" type="line"/>
      <point x="564" y="81" type="line"/>
      <point x="395" y="126" type="line"/>
      <point x="395" y="698" type="line" smooth="yes"/>
      <point x="395" y="717"/>
      <point x="390" y="755"/>
      <point x="390" y="755" type="curve"/>
      <point x="478" y="785"/>
      <point x="649" y="827"/>
      <point x="705" y="827" type="curve" smooth="yes"/>
      <point x="719" y="827"/>
      <point x="730" y="823"/>
      <point x="744" y="814" type="curve"/>
      <point x="787" y="782"/>
      <point x="839" y="701"/>
      <point x="839" y="550" type="curve" smooth="yes"/>
      <point x="839" y="131" type="line"/>
      <point x="734" y="87" type="line"/>
      <point x="717" y="0" type="line"/>
      <point x="1169" y="0" type="line"/>
      <point x="1186" y="82" type="line"/>
      <point x="1018" y="126" type="line"/>
      <point x="1018" y="618" type="line" smooth="yes"/>
      <point x="1018" y="893"/>
      <point x="885" y="973"/>
      <point x="767" y="973" type="curve" smooth="yes"/>
      <point x="654" y="973"/>
      <point x="490" y="886"/>
      <point x="381" y="800" type="curve"/>
      <point x="345" y="965" type="line"/>
      <point x="71" y="900" type="line"/>
    </contour>
    <contour>
      <point x="495" y="-206" type="line"/>
      <point x="579" y="-230"/>
      <point x="599" y="-258"/>
      <point x="599" y="-289" type="curve" smooth="yes"/>
      <point x="599" y="-331"/>
      <point x="561" y="-369"/>
      <point x="481" y="-427" type="curve"/>
      <point x="496" y="-472" type="line"/>
      <point x="556" y="-472"/>
      <point x="717" y="-401"/>
      <point x="717" y="-261" type="curve" smooth="yes"/>
      <point x="717" y="-218"/>
      <point x="697" y="-180"/>
      <point x="668" y="-152" type="curve" smooth="yes"/>
      <point x="631" y="-117"/>
      <point x="580" y="-96"/>
      <point x="523" y="-95" type="curve"/>
    </contour>
  </outline>
</glyph>
<glyph name="omacron" format="1">
  <advance width="1022"/>
  <unicode hex="014D"/>
  <outline>
    <contour>
      <point x="289" y="1284" type="line"/>
      <point x="260" y="1143" type="line"/>
      <point x="419" y="1143"/>
      <point x="578" y="1146"/>
      <point x="735" y="1155" type="curve"/>
      <point x="760" y="1284" type="line"/>
    </contour>
    <contour>
      <point x="73" y="115"/>
      <point x="271" y="-25"/>
      <point x="519" y="-25" type="curve" smooth="yes"/>
      <point x="759" y="-25"/>
      <point x="949" y="229"/>
      <point x="949" y="512" type="curve" smooth="yes"/>
      <point x="949" y="831"/>
      <point x="751" y="975"/>
      <point x="514" y="975" type="curve" smooth="yes"/>
      <point x="252" y="975"/>
      <point x="73" y="714"/>
      <point x="73" y="437" type="curve" smooth="yes"/>
    </contour>
    <contour>
      <point x="346" y="107"/>
      <point x="247" y="353"/>
      <point x="247" y="572" type="curve" smooth="yes"/>
      <point x="247" y="654"/>
      <point x="269" y="757"/>
      <point x="299" y="791" type="curve"/>
      <point x="328" y="819"/>
      <point x="363" y="843"/>
      <point x="446" y="843" type="curve" smooth="yes"/>
      <point x="629" y="843"/>
      <point x="775" y="667"/>
      <point x="775" y="375" type="curve" smooth="yes"/>
      <point x="775" y="313"/>
      <point x="761" y="198"/>
      <point x="723" y="160" type="curve" smooth="yes"/>
      <point x="686" y="123"/>
      <point x="625" y="107"/>
      <point x="568" y="107" type="curve" smooth="yes"/>
    </contour>
  </outline>
</glyph>
<glyph name="ohungarumlaut" format="1">
  <advance width="1022"/>
  <unicode hex="0151"/>
  <outline>
    <contour>
      <point x="412" y="1447" type="line"/>
      <point x="270" y="1187" type="line"/>
      <point x="304" y="1046" type="line"/>
      <point x="533" y="1322" type="line"/>
      <point x="509" y="1447" type="line"/>
    </contour>
    <contour>
      <point x="708" y="1447" type="line"/>
      <point x="567" y="1193" type="line"/>
      <point x="599" y="1046" type="line"/>
      <point x="828" y="1323" type="line"/>
      <point x="806" y="1447" type="line"/>
    </contour>
    <contour>
      <point x="73" y="115"/>
      <point x="271" y="-25"/>
      <point x="519" y="-25" type="curve" smooth="yes"/>
      <point x="759" y="-25"/>
      <point x="949" y="229"/>
      <point x="949" y="512" type="curve" smooth="yes"/>
      <point x="949" y="831"/>
      <point x="751" y="975"/>
      <point x="514" y="975" type="curve" smooth="yes"/>
      <point x="252" y="975"/>
      <point x="73" y="714"/>
      <point x="73" y="437" type="curve" smooth="yes"/>
    </contour>
    <contour>
      <point x="346" y="107"/>
      <point x="247" y="353"/>
      <point x="247" y="572" type="curve" smooth="yes"/>
      <point x="247" y="654"/>
      <point x="269" y="757"/>
      <point x="299" y="791" type="curve"/>
      <point x="328" y="819"/>
      <point x="363" y="843"/>
      <point x="446" y="843" type="curve" smooth="yes"/>
      <point x="629" y="843"/>
      <point x="775" y="667"/>
      <point x="775" y="375" type="curve" smooth="yes"/>
      <point x="775" y="313"/>
      <point x="761" y="198"/>
      <point x="723" y="160" type="curve" smooth="yes"/>
      <point x="686" y="123"/>
      <point x="625" y="107"/>
      <point x="568" y="107" type="curve" smooth="yes"/>
    </contour>
  </outline>
</glyph>
<glyph name="Rcommaaccent" format="1">
  <advance width="1293"/>
  <unicode hex="0156"/>
  <outline>
    <contour>
      <point x="263" y="139" type="line"/>
      <point x="83" y="84" type="line"/>
      <point x="69" y="0" type="line"/>
      <point x="640" y="0" type="line"/>
      <point x="661" y="96" type="line"/>
      <point x="455" y="151" type="line"/>
      <point x="455" y="1304" type="line"/>
      <point x="654" y="1295"/>
      <point x="895" y="1224"/>
      <point x="895" y="1022" type="curve" smooth="yes"/>
      <point x="895" y="895"/>
      <point x="867" y="789"/>
      <point x="589" y="685" type="curve"/>
      <point x="922" y="77" type="line"/>
      <point x="907" y="0" type="line"/>
      <point x="1283" y="0" type="line"/>
      <point x="1302" y="81" type="line"/>
      <point x="1107" y="148" type="line"/>
      <point x="797" y="670" type="line"/>
      <point x="1002" y="728"/>
      <point x="1100" y="846"/>
      <point x="1100" y="1021" type="curve" smooth="yes"/>
      <point x="1100" y="1129"/>
      <point x="1044" y="1229"/>
      <point x="959" y="1286" type="curve" smooth="yes"/>
      <point x="814" y="1382"/>
      <point x="630" y="1384"/>
      <point x="462" y="1384" type="curve" smooth="yes"/>
      <point x="93" y="1384" type="line"/>
      <point x="76" y="1302" type="line"/>
      <point x="263" y="1246" type="line"/>
    </contour>
    <contour>
      <point x="552" y="-206" type="line"/>
      <point x="636" y="-230"/>
      <point x="656" y="-258"/>
      <point x="656" y="-289" type="curve" smooth="yes"/>
      <point x="656" y="-331"/>
      <point x="618" y="-369"/>
      <point x="538" y="-427" type="curve"/>
      <point x="553" y="-472" type="line"/>
      <point x="613" y="-472"/>
      <point x="774" y="-401"/>
      <point x="774" y="-261" type="curve" smooth="yes"/>
      <point x="774" y="-218"/>
      <point x="754" y="-180"/>
      <point x="725" y="-152" type="curve" smooth="yes"/>
      <point x="688" y="-117"/>
      <point x="637" y="-96"/>
      <point x="580" y="-95" type="curve"/>
    </contour>
  </outline>
</glyph>
<glyph name="rcommaaccent" format="1">
  <advance width="823"/>
  <unicode hex="0157"/>
  <outline>
    <contour>
      <point x="64" y="853" type="line"/>
      <point x="218" y="776" type="line"/>
      <point x="218" y="136" type="line"/>
      <point x="72" y="87" type="line"/>
      <point x="55" y="0" type="line"/>
      <point x="637" y="0" type="line"/>
      <point x="654" y="79" type="line"/>
      <point x="397" y="125" type="line"/>
      <point x="397" y="703" type="line"/>
      <point x="444" y="746"/>
      <point x="529" y="814"/>
      <point x="592" y="840" type="curve"/>
      <point x="612" y="729" type="line"/>
      <point x="629" y="721"/>
      <point x="656" y="714"/>
      <point x="681" y="714" type="curve" smooth="yes"/>
      <point x="739" y="714"/>
      <point x="803" y="793"/>
      <point x="803" y="856" type="curve" smooth="yes"/>
      <point x="803" y="896"/>
      <point x="774" y="925"/>
      <point x="744" y="942" type="curve" smooth="yes"/>
      <point x="711" y="961"/>
      <point x="669" y="970"/>
      <point x="639" y="970" type="curve" smooth="yes"/>
      <point x="550" y="970"/>
      <point x="482" y="918"/>
      <point x="391" y="761" type="curve"/>
      <point x="347" y="960" type="line"/>
      <point x="73" y="901" type="line"/>
    </contour>
    <contour>
      <point x="206" y="-206" type="line"/>
      <point x="290" y="-230"/>
      <point x="310" y="-258"/>
      <point x="310" y="-289" type="curve" smooth="yes"/>
      <point x="310" y="-331"/>
      <point x="272" y="-369"/>
      <point x="192" y="-427" type="curve"/>
      <point x="207" y="-472" type="line"/>
      <point x="267" y="-472"/>
      <point x="428" y="-401"/>
      <point x="428" y="-261" type="curve" smooth="yes"/>
      <point x="428" y="-218"/>
      <point x="408" y="-180"/>
      <point x="379" y="-152" type="curve" smooth="yes"/>
      <point x="342" y="-117"/>
      <point x="291" y="-96"/>
      <point x="234" y="-95" type="curve"/>
    </contour>
  </outline>
</glyph>
<glyph name="Sacute" format="1">
  <advance width="1060"/>
  <unicode hex="015A"/>
  <outline>
    <contour>
      <point x="352" y="1599" type="line"/>
      <point x="370" y="1494" type="line"/>
      <point x="808" y="1635" type="line"/>
      <point x="781" y="1785" type="line"/>
      <point x="720" y="1785" type="line"/>
    </contour>
    <contour>
      <point x="843" y="1020" type="line"/>
      <point x="936" y="1045" type="line"/>
      <point x="901" y="1394" type="line"/>
      <point x="796" y="1390" type="line"/>
      <point x="774" y="1396"/>
      <point x="679" y="1419"/>
      <point x="599" y="1419" type="curve" smooth="yes"/>
      <point x="344" y="1419"/>
      <point x="123" y="1272"/>
      <point x="123" y="1041" type="curve" smooth="yes"/>
      <point x="123" y="795"/>
      <point x="296" y="708"/>
      <point x="480" y="638" type="curve" smooth="yes"/>
      <point x="634" y="578"/>
      <point x="762" y="530"/>
      <point x="762" y="354" type="curve" smooth="yes"/>
      <point x="762" y="297"/>
      <point x="749" y="238"/>
      <point x="729" y="209" type="curve" smooth="yes"/>
      <point x="679" y="137"/>
      <point x="493" y="108"/>
      <point x="352" y="108" type="curve" smooth="yes"/>
      <point x="322" y="108"/>
      <point x="293" y="109"/>
      <point x="267" y="111" type="curve"/>
      <point x="246" y="377" type="line"/>
      <point x="141" y="405" type="line"/>
      <point x="66" y="82" type="line"/>
      <point x="149" y="24"/>
      <point x="296" y="-35"/>
      <point x="466" y="-35" type="curve" smooth="yes"/>
      <point x="759" y="-35"/>
      <point x="968" y="142"/>
      <point x="968" y="413" type="curve" smooth="yes"/>
      <point x="968" y="645"/>
      <point x="807" y="727"/>
      <point x="621" y="797" type="curve" smooth="yes"/>
      <point x="421" y="872"/>
      <point x="309" y="913"/>
      <point x="309" y="1073" type="curve" smooth="yes"/>
      <point x="309" y="1109"/>
      <point x="315" y="1160"/>
      <point x="331" y="1188" type="curve" smooth="yes"/>
      <point x="359" y="1238"/>
      <point x="494" y="1294"/>
      <point x="672" y="1295" type="curve" smooth="yes"/>
      <point x="685" y="1295"/>
      <point x="704" y="1295"/>
      <point x="719" y="1294" type="curve"/>
    </contour>
  </outline>
</glyph>
<glyph name="Scedilla" format="1">
  <advance width="1060"/>
  <unicode hex="015E"/>
  <outline>
    <contour>
      <point x="968" y="645"/>
      <point x="807" y="727"/>
      <point x="621" y="797" type="curve" smooth="yes"/>
      <point x="421" y="872"/>
      <point x="309" y="913"/>
      <point x="309" y="1073" type="curve" smooth="yes"/>
      <point x="309" y="1109"/>
      <point x="315" y="1160"/>
      <point x="331" y="1188" type="curve" smooth="yes"/>
      <point x="359" y="1238"/>
      <point x="494" y="1294"/>
      <point x="672" y="1295" type="curve" smooth="yes"/>
      <point x="685" y="1295"/>
      <point x="704" y="1295"/>
      <point x="719" y="1294" type="curve"/>
      <point x="843" y="1020" type="line"/>
      <point x="936" y="1045" type="line"/>
      <point x="901" y="1394" type="line"/>
      <point x="796" y="1390" type="line"/>
      <point x="774" y="1396"/>
      <point x="679" y="1419"/>
      <point x="599" y="1419" type="curve" smooth="yes"/>
      <point x="344" y="1419"/>
      <point x="123" y="1272"/>
      <point x="123" y="1041" type="curve" smooth="yes"/>
      <point x="123" y="795"/>
      <point x="296" y="708"/>
      <point x="480" y="638" type="curve" smooth="yes"/>
      <point x="634" y="578"/>
      <point x="762" y="530"/>
      <point x="762" y="354" type="curve" smooth="yes"/>
      <point x="762" y="297"/>
      <point x="749" y="238"/>
      <point x="729" y="209" type="curve" smooth="yes"/>
      <point x="679" y="137"/>
      <point x="493" y="108"/>
      <point x="352" y="108" type="curve" smooth="yes"/>
      <point x="322" y="108"/>
      <point x="293" y="109"/>
      <point x="267" y="111" type="curve"/>
      <point x="246" y="377" type="line"/>
      <point x="141" y="405" type="line"/>
      <point x="66" y="82" type="line"/>
      <point x="148" y="25"/>
      <point x="293" y="-34"/>
      <point x="460" y="-35" type="curve"/>
      <point x="420" y="-84"/>
      <point x="389" y="-130"/>
      <point x="367" y="-176" type="curve"/>
      <point x="488" y="-213"/>
      <point x="577" y="-252"/>
      <point x="577" y="-293" type="curve" smooth="yes"/>
      <point x="577" y="-320"/>
      <point x="543" y="-354"/>
      <point x="325" y="-447" type="curve"/>
      <point x="339" y="-500" type="line"/>
      <point x="513" y="-500"/>
      <point x="732" y="-442"/>
      <point x="732" y="-279" type="curve" smooth="yes"/>
      <point x="732" y="-182"/>
      <point x="628" y="-131"/>
      <point x="524" y="-114" type="curve"/>
      <point x="563" y="-28" type="line"/>
      <point x="804" y="7"/>
      <point x="968" y="173"/>
      <point x="968" y="413" type="curve" smooth="yes"/>
    </contour>
  </outline>
</glyph>
<glyph name="scedilla" format="1">
  <advance width="824"/>
  <unicode hex="015F"/>
  <outline>
    <contour>
      <point x="751" y="386"/>
      <point x="708" y="454"/>
      <point x="646" y="493" type="curve" smooth="yes"/>
      <point x="552" y="552"/>
      <point x="438" y="561"/>
      <point x="349" y="608" type="curve" smooth="yes"/>
      <point x="298" y="635"/>
      <point x="250" y="677"/>
      <point x="250" y="738" type="curve" smooth="yes"/>
      <point x="250" y="773"/>
      <point x="262" y="795"/>
      <point x="280" y="808" type="curve" smooth="yes"/>
      <point x="342" y="853"/>
      <point x="443" y="880"/>
      <point x="523" y="886" type="curve"/>
      <point x="553" y="730" type="line"/>
      <point x="569" y="722"/>
      <point x="592" y="716"/>
      <point x="615" y="716" type="curve" smooth="yes"/>
      <point x="667" y="716"/>
      <point x="732" y="774"/>
      <point x="732" y="835" type="curve" smooth="yes"/>
      <point x="732" y="880"/>
      <point x="694" y="912"/>
      <point x="663" y="931" type="curve" smooth="yes"/>
      <point x="616" y="958"/>
      <point x="551" y="975"/>
      <point x="473" y="975" type="curve" smooth="yes"/>
      <point x="285" y="975"/>
      <point x="104" y="894"/>
      <point x="104" y="704" type="curve" smooth="yes"/>
      <point x="104" y="591"/>
      <point x="164" y="511"/>
      <point x="249" y="464" type="curve" smooth="yes"/>
      <point x="336" y="416"/>
      <point x="446" y="403"/>
      <point x="520" y="354" type="curve" smooth="yes"/>
      <point x="575" y="318"/>
      <point x="592" y="275"/>
      <point x="592" y="228" type="curve" smooth="yes"/>
      <point x="592" y="194"/>
      <point x="583" y="165"/>
      <point x="556" y="148" type="curve" smooth="yes"/>
      <point x="483" y="101"/>
      <point x="344" y="88"/>
      <point x="247" y="88" type="curve"/>
      <point x="210" y="281" type="line"/>
      <point x="105" y="305" type="line"/>
      <point x="60" y="86" type="line"/>
      <point x="124" y="35"/>
      <point x="196" y="-13"/>
      <point x="337" y="-23" type="curve"/>
      <point x="303" y="-64"/>
      <point x="261" y="-129"/>
      <point x="259" y="-164" type="curve"/>
      <point x="381" y="-188"/>
      <point x="431" y="-214"/>
      <point x="431" y="-250" type="curve" smooth="yes"/>
      <point x="431" y="-282"/>
      <point x="407" y="-327"/>
      <point x="211" y="-405" type="curve"/>
      <point x="224" y="-453" type="line"/>
      <point x="359" y="-453"/>
      <point x="578" y="-404"/>
      <point x="578" y="-245" type="curve" smooth="yes"/>
      <point x="578" y="-159"/>
      <point x="522" y="-118"/>
      <point x="420" y="-85" type="curve"/>
      <point x="453" y="-22" type="line"/>
      <point x="622" y="-3"/>
      <point x="751" y="99"/>
      <point x="751" y="288" type="curve" smooth="yes"/>
    </contour>
  </outline>
</glyph>
<glyph name="Tcaron" format="1">
  <advance width="1353"/>
  <unicode hex="0164"/>
  <outline>
    <contour>
      <point x="372" y="1730" type="line"/>
      <point x="629" y="1515" type="line"/>
      <point x="725" y="1515" type="line"/>
      <point x="982" y="1730" type="line"/>
      <point x="920" y="1794" type="line"/>
      <point x="677" y="1665" type="line"/>
      <point x="434" y="1794" type="line"/>
    </contour>
    <contour>
      <point x="577" y="144" type="line"/>
      <point x="386" y="90" type="line"/>
      <point x="368" y="0" type="line"/>
      <point x="970" y="0" type="line"/>
      <point x="988" y="90" type="line"/>
      <point x="769" y="143" type="line"/>
      <point x="769" y="1289" type="line"/>
      <point x="1114" y="1251" type="line"/>
      <point x="1235" y="993" type="line"/>
      <point x="1324" y="1020" type="line"/>
      <point x="1284" y="1396" type="line"/>
      <point x="1158" y="1384" type="line"/>
      <point x="227" y="1384" type="line"/>
      <point x="96" y="1393" type="line"/>
      <point x="14" y="1023" type="line"/>
      <point x="106" y="1002" type="line"/>
      <point x="246" y="1252" type="line"/>
      <point x="577" y="1287" type="line"/>
    </contour>
  </outline>
</glyph>
<glyph name="tcaron" format="1">
  <advance width="717"/>
  <unicode hex="0165"/>
  <outline>
    <contour>
      <point x="542" y="1034" type="line"/>
      <point x="637" y="1128"/>
      <point x="724" y="1269"/>
      <point x="724" y="1391" type="curve" smooth="yes"/>
      <point x="724" y="1427"/>
      <point x="720" y="1453"/>
      <point x="710" y="1474" type="curve"/>
      <point x="503" y="1451" type="line"/>
      <point x="487" y="1351" type="line"/>
      <point x="572" y="1314" type="line"/>
      <point x="555" y="1236"/>
      <point x="516" y="1147"/>
      <point x="474" y="1056" type="curve"/>
    </contour>
    <contour>
      <point x="35" y="950" type="line"/>
      <point x="17" y="861" type="line"/>
      <point x="183" y="811" type="line"/>
      <point x="183" y="316" type="line" smooth="yes"/>
      <point x="183" y="74"/>
      <point x="278" y="-25"/>
      <point x="436" y="-25" type="curve" smooth="yes"/>
      <point x="517" y="-25"/>
      <point x="650" y="48"/>
      <point x="715" y="93" type="curve"/>
      <point x="696" y="140" type="line"/>
      <point x="681" y="137"/>
      <point x="572" y="104"/>
      <point x="503" y="104" type="curve" smooth="yes"/>
      <point x="483" y="104"/>
      <point x="467" y="107"/>
      <point x="456" y="113" type="curve" smooth="yes"/>
      <point x="391" y="150"/>
      <point x="362" y="259"/>
      <point x="362" y="367" type="curve" smooth="yes"/>
      <point x="362" y="811" type="line"/>
      <point x="663" y="863" type="line"/>
      <point x="679" y="950" type="line"/>
      <point x="362" y="950" type="line"/>
      <point x="362" y="1234" type="line"/>
      <point x="204" y="1169" type="line"/>
      <point x="183" y="950" type="line"/>
    </contour>
  </outline>
</glyph>
<glyph name="Uring" format="1">
  <advance width="1466"/>
  <unicode hex="016E"/>
  <outline>
    <contour>
      <point x="881" y="1476"/>
      <point x="958" y="1552"/>
      <point x="958" y="1660" type="curve" smooth="yes"/>
      <point x="958" y="1762"/>
      <point x="871" y="1829"/>
      <point x="778" y="1829" type="curve" smooth="yes"/>
      <point x="662" y="1829"/>
      <point x="588" y="1749"/>
      <point x="588" y="1644" type="curve" smooth="yes"/>
      <point x="588" y="1541"/>
      <point x="672" y="1476"/>
      <point x="771" y="1476" type="curve" smooth="yes"/>
    </contour>
    <contour>
      <point x="721" y="1569"/>
      <point x="694" y="1615"/>
      <point x="694" y="1661" type="curve" smooth="yes"/>
      <point x="694" y="1701"/>
      <point x="721" y="1738"/>
      <point x="764" y="1738" type="curve" smooth="yes"/>
      <point x="819" y="1738"/>
      <point x="850" y="1693"/>
      <point x="850" y="1643" type="curve" smooth="yes"/>
      <point x="850" y="1601"/>
      <point x="824" y="1569"/>
      <point x="780" y="1569" type="curve" smooth="yes"/>
    </contour>
    <contour>
      <point x="411" y="1235" type="line"/>
      <point x="602" y="1282" type="line"/>
      <point x="624" y="1384" type="line"/>
      <point x="64" y="1384" type="line"/>
      <point x="48" y="1301" type="line"/>
      <point x="219" y="1246" type="line"/>
      <point x="219" y="469" type="line" smooth="yes"/>
      <point x="219" y="174"/>
      <point x="382" y="-35"/>
      <point x="729" y="-35" type="curve" smooth="yes"/>
      <point x="1071" y="-35"/>
      <point x="1250" y="175"/>
      <point x="1250" y="472" type="curve" smooth="yes"/>
      <point x="1250" y="1242" type="line"/>
      <point x="1403" y="1299" type="line"/>
      <point x="1419" y="1384" type="line"/>
      <point x="927" y="1384" type="line"/>
      <point x="911" y="1301" type="line"/>
      <point x="1108" y="1242" type="line"/>
      <point x="1108" y="477" type="line" smooth="yes"/>
      <point x="1108" y="348"/>
      <point x="1075" y="244"/>
      <point x="1010" y="180" type="curve" smooth="yes"/>
      <point x="962" y="131"/>
      <point x="894" y="103"/>
      <point x="810" y="103" type="curve" smooth="yes"/>
      <point x="578" y="103"/>
      <point x="411" y="286"/>
      <point x="411" y="536" type="curve" smooth="yes"/>
    </contour>
  </outline>
</glyph>
<glyph name="uring" format="1">
  <advance width="1159"/>
  <unicode hex="016F"/>
  <outline>
    <contour>
      <point x="667" y="1063"/>
      <point x="749" y="1153"/>
      <point x="749" y="1261" type="curve" smooth="yes"/>
      <point x="749" y="1372"/>
      <point x="663" y="1444"/>
      <point x="565" y="1444" type="curve" smooth="yes"/>
      <point x="446" y="1444"/>
      <point x="371" y="1351"/>
      <point x="371" y="1245" type="curve" smooth="yes"/>
      <point x="371" y="1134"/>
      <point x="454" y="1063"/>
      <point x="558" y="1063" type="curve" smooth="yes"/>
    </contour>
    <contour>
      <point x="508" y="1161"/>
      <point x="473" y="1212"/>
      <point x="473" y="1263" type="curve" smooth="yes"/>
      <point x="473" y="1308"/>
      <point x="504" y="1349"/>
      <point x="550" y="1349" type="curve" smooth="yes"/>
      <point x="604" y="1349"/>
      <point x="645" y="1298"/>
      <point x="645" y="1243" type="curve" smooth="yes"/>
      <point x="645" y="1199"/>
      <point x="614" y="1161"/>
      <point x="569" y="1161" type="curve" smooth="yes"/>
    </contour>
    <contour>
      <point x="23" y="869" type="line"/>
      <point x="180" y="800" type="line"/>
      <point x="180" y="332" type="line" smooth="yes"/>
      <point x="180" y="58"/>
      <point x="312" y="-25"/>
      <point x="442" y="-25" type="curve" smooth="yes"/>
      <point x="577" y="-25"/>
      <point x="726" y="52"/>
      <point x="804" y="136" type="curve"/>
      <point x="843" y="100"/>
      <point x="883" y="5"/>
      <point x="891" y="-25" type="curve"/>
      <point x="956" y="-25"/>
      <point x="1077" y="12"/>
      <point x="1119" y="34" type="curve"/>
      <point x="1132" y="94" type="line"/>
      <point x="1097" y="99"/>
      <point x="995" y="138"/>
      <point x="959" y="192" type="curve"/>
      <point x="959" y="950" type="line"/>
      <point x="616" y="950" type="line"/>
      <point x="598" y="869" type="line"/>
      <point x="781" y="800" type="line"/>
      <point x="781" y="174" type="line"/>
      <point x="709" y="143"/>
      <point x="590" y="119"/>
      <point x="509" y="119" type="curve" smooth="yes"/>
      <point x="490" y="119"/>
      <point x="472" y="123"/>
      <point x="456" y="135" type="curve" smooth="yes"/>
      <point x="412" y="167"/>
      <point x="359" y="249"/>
      <point x="359" y="404" type="curve" smooth="yes"/>
      <point x="359" y="950" type="line"/>
      <point x="40" y="950" type="line"/>
    </contour>
  </outline>
</glyph>
<glyph name="uogonek" format="1">
  <advance width="1160"/>
  <unicode hex="0173"/>
  <outline>
    <contour>
      <point x="598" y="870" type="line"/>
      <point x="781" y="800" type="line"/>
      <point x="781" y="174" type="line"/>
      <point x="709" y="143"/>
      <point x="590" y="119"/>
      <point x="509" y="119" type="curve" smooth="yes"/>
      <point x="490" y="119"/>
      <point x="472" y="123"/>
      <point x="456" y="135" type="curve" smooth="yes"/>
      <point x="412" y="167"/>
      <point x="359" y="249"/>
      <point x="359" y="404" type="curve" smooth="yes"/>
      <point x="359" y="950" type="line"/>
      <point x="41" y="950" type="line"/>
      <point x="23" y="869" type="line"/>
      <point x="180" y="801" type="line"/>
      <point x="180" y="332" type="line" smooth="yes"/>
      <point x="180" y="58"/>
      <point x="312" y="-25"/>
      <point x="442" y="-25" type="curve" smooth="yes"/>
      <point x="577" y="-25"/>
      <point x="726" y="52"/>
      <point x="804" y="136" type="curve"/>
      <point x="836" y="97"/>
      <point x="860" y="45"/>
      <point x="876" y="4" type="curve"/>
      <point x="753" y="-50"/>
      <point x="619" y="-138"/>
      <point x="619" y="-288" type="curve" smooth="yes"/>
      <point x="619" y="-407"/>
      <point x="715" y="-476"/>
      <point x="820" y="-476" type="curve" smooth="yes"/>
      <point x="909" y="-476"/>
      <point x="987" y="-422"/>
      <point x="1060" y="-354" type="curve"/>
      <point x="1040" y="-315" type="line"/>
      <point x="989" y="-337"/>
      <point x="927" y="-356"/>
      <point x="884" y="-356" type="curve" smooth="yes"/>
      <point x="872" y="-356"/>
      <point x="860" y="-354"/>
      <point x="849" y="-350" type="curve" smooth="yes"/>
      <point x="801" y="-333"/>
      <point x="766" y="-284"/>
      <point x="766" y="-237" type="curve" smooth="yes"/>
      <point x="766" y="-89"/>
      <point x="979" y="-10"/>
      <point x="1116" y="33" type="curve"/>
      <point x="1130" y="95" type="line"/>
      <point x="1027" y="122"/>
      <point x="979" y="162"/>
      <point x="959" y="199" type="curve"/>
      <point x="959" y="950" type="line"/>
      <point x="618" y="950" type="line"/>
    </contour>
  </outline>
</glyph>
<glyph name="Ydieresis" format="1">
  <advance width="1199"/>
  <unicode hex="0178"/>
  <outline>
    <contour>
      <point x="734" y="1514"/>
      <point x="845" y="1505"/>
      <point x="871" y="1521" type="curve"/>
      <point x="899" y="1544"/>
      <point x="910" y="1658"/>
      <point x="891" y="1682" type="curve" smooth="yes"/>
      <point x="870" y="1710"/>
      <point x="755" y="1723"/>
      <point x="732" y="1703" type="curve"/>
      <point x="701" y="1683"/>
      <point x="694" y="1567"/>
      <point x="711" y="1542" type="curve"/>
    </contour>
    <contour>
      <point x="350" y="1514"/>
      <point x="463" y="1504"/>
      <point x="488" y="1521" type="curve"/>
      <point x="517" y="1543"/>
      <point x="526" y="1657"/>
      <point x="509" y="1682" type="curve"/>
      <point x="486" y="1710"/>
      <point x="373" y="1721"/>
      <point x="349" y="1703" type="curve" smooth="yes"/>
      <point x="320" y="1682"/>
      <point x="310" y="1566"/>
      <point x="329" y="1542" type="curve" smooth="yes"/>
    </contour>
    <contour>
      <point x="510" y="139" type="line"/>
      <point x="337" y="84" type="line"/>
      <point x="323" y="0" type="line"/>
      <point x="885" y="0" type="line"/>
      <point x="901" y="83" type="line"/>
      <point x="702" y="139" type="line"/>
      <point x="702" y="560" type="line"/>
      <point x="1070" y="1252" type="line"/>
      <point x="1199" y="1289" type="line"/>
      <point x="1214" y="1384" type="line"/>
      <point x="755" y="1384" type="line"/>
      <point x="738" y="1301" type="line"/>
      <point x="926" y="1244" type="line"/>
      <point x="835" y="1052"/>
      <point x="712" y="820"/>
      <point x="652" y="667" type="curve"/>
      <point x="316" y="1247" type="line"/>
      <point x="478" y="1295" type="line"/>
      <point x="494" y="1384" type="line"/>
      <point x="-13" y="1384" type="line"/>
      <point x="-30" y="1290" type="line"/>
      <point x="101" y="1251" type="line"/>
      <point x="510" y="558" type="line"/>
    </contour>
  </outline>
</glyph>
<glyph name="Zacute" format="1">
  <advance width="1236"/>
  <unicode hex="0179"/>
  <outline>
    <contour>
      <point x="447" y="1599" type="line"/>
      <point x="465" y="1494" type="line"/>
      <point x="903" y="1635" type="line"/>
      <point x="876" y="1785" type="line"/>
      <point x="815" y="1785" type="line"/>
    </contour>
    <contour>
      <point x="1071" y="377" type="line"/>
      <point x="946" y="160" type="line"/>
      <point x="279" y="116" type="line"/>
      <point x="1153" y="1261" type="line"/>
      <point x="1111" y="1384" type="line"/>
      <point x="281" y="1384" type="line"/>
      <point x="153" y="1394" type="line"/>
      <point x="99" y="1035" type="line"/>
      <point x="198" y="1010" type="line"/>
      <point x="300" y="1232" type="line"/>
      <point x="936" y="1283" type="line"/>
      <point x="65" y="151" type="line"/>
      <point x="125" y="0" type="line"/>
      <point x="1079" y="0" type="line"/>
      <point x="1163" y="355" type="line"/>
    </contour>
  </outline>
</glyph>
<glyph name="zacute" format="1">
  <advance width="917"/>
  <unicode hex="017A"/>
  <outline>
    <contour>
      <point x="579" y="1447" type="line"/>
      <point x="281" y="1183" type="line"/>
      <point x="304" y="1061" type="line"/>
      <point x="672" y="1298" type="line"/>
      <point x="643" y="1447" type="line"/>
    </contour>
    <contour>
      <point x="718" y="287" type="line"/>
      <point x="661" y="115" type="line"/>
      <point x="275" y="95" type="line"/>
      <point x="831" y="828" type="line"/>
      <point x="790" y="950" type="line"/>
      <point x="101" y="950" type="line"/>
      <point x="101" y="688" type="line"/>
      <point x="207" y="693" type="line"/>
      <point x="260" y="837" type="line"/>
      <point x="650" y="856" type="line"/>
      <point x="57" y="87" type="line"/>
      <point x="95" y="0" type="line"/>
      <point x="825" y="0" type="line"/>
      <point x="823" y="292" type="line"/>
    </contour>
  </outline>
</glyph>
<glyph name="Zdotaccent" format="1">
  <advance width="1236"/>
  <unicode hex="017B"/>
  <outline>
    <contour>
      <point x="557" y="1514"/>
      <point x="670" y="1504"/>
      <point x="695" y="1521" type="curve"/>
      <point x="724" y="1543"/>
      <point x="734" y="1658"/>
      <point x="715" y="1682" type="curve" smooth="yes"/>
      <point x="694" y="1710"/>
      <point x="580" y="1721"/>
      <point x="556" y="1703" type="curve" smooth="yes"/>
      <point x="527" y="1681"/>
      <point x="516" y="1565"/>
      <point x="536" y="1542" type="curve"/>
    </contour>
    <contour>
      <point x="1071" y="377" type="line"/>
      <point x="946" y="160" type="line"/>
      <point x="279" y="116" type="line"/>
      <point x="1153" y="1261" type="line"/>
      <point x="1111" y="1384" type="line"/>
      <point x="281" y="1384" type="line"/>
      <point x="153" y="1394" type="line"/>
      <point x="99" y="1035" type="line"/>
      <point x="198" y="1010" type="line"/>
      <point x="300" y="1232" type="line"/>
      <point x="936" y="1283" type="line"/>
      <point x="65" y="151" type="line"/>
      <point x="125" y="0" type="line"/>
      <point x="1079" y="0" type="line"/>
      <point x="1163" y="355" type="line"/>
    </contour>
  </outline>
</glyph>
<glyph name="zdotaccent" format="1">
  <advance width="917"/>
  <unicode hex="017C"/>
  <outline>
    <contour>
      <point x="380" y="1170"/>
      <point x="510" y="1154"/>
      <point x="538" y="1175" type="curve"/>
      <point x="569" y="1201"/>
      <point x="584" y="1331"/>
      <point x="561" y="1356" type="curve" smooth="yes"/>
      <point x="534" y="1387"/>
      <point x="408" y="1402"/>
      <point x="380" y="1379" type="curve" smooth="yes"/>
      <point x="350" y="1353"/>
      <point x="336" y="1225"/>
      <point x="359" y="1197" type="curve" smooth="yes"/>
    </contour>
    <contour>
      <point x="718" y="287" type="line"/>
      <point x="661" y="115" type="line"/>
      <point x="275" y="95" type="line"/>
      <point x="831" y="828" type="line"/>
      <point x="790" y="950" type="line"/>
      <point x="101" y="950" type="line"/>
      <point x="101" y="688" type="line"/>
      <point x="207" y="693" type="line"/>
      <point x="260" y="837" type="line"/>
      <point x="650" y="856" type="line"/>
      <point x="57" y="87" type="line"/>
      <point x="95" y="0" type="line"/>
      <point x="825" y="0" type="line"/>
      <point x="823" y="292" type="line"/>
    </contour>
  </outline>
</glyph>
<glyph name="zcaron" format="1">
  <advance width="917"/>
  <unicode hex="017E"/>
  <outline>
    <contour>
      <point x="703" y="1388" type="line"/>
      <point x="459" y="1239" type="line"/>
      <point x="215" y="1388" type="line"/>
      <point x="154" y="1329" type="line"/>
      <point x="402" y="1078" type="line"/>
      <point x="517" y="1078" type="line"/>
      <point x="764" y="1329" type="line"/>
    </contour>
    <contour>
      <point x="718" y="287" type="line"/>
      <point x="661" y="115" type="line"/>
      <point x="275" y="95" type="line"/>
      <point x="831" y="828" type="line"/>
      <point x="790" y="950" type="line"/>
      <point x="101" y="950" type="line"/>
      <point x="101" y="688" type="line"/>
      <point x="207" y="693" type="line"/>
      <point x="260" y="837" type="line"/>
      <point x="650" y="856" type="line"/>
      <point x="57" y="87" type="line"/>
      <point x="95" y="0" type="line"/>
      <point x="825" y="0" type="line"/>
      <point x="823" y="292" type="line"/>
    </contour>
  </outline>
</glyph>
<glyph name="florin" format="1">
  <advance width="991"/>
  <unicode hex="0192"/>
  <outline>
    <contour>
      <point x="866" y="1155" type="line"/>
      <point x="922" y="1144" type="line"/>
      <point x="964" y="1244"/>
      <point x="980" y="1340"/>
      <point x="976" y="1430" type="curve"/>
      <point x="933" y="1448"/>
      <point x="850" y="1461"/>
      <point x="785" y="1461" type="curve" smooth="yes"/>
      <point x="520" y="1461"/>
      <point x="390" y="1221"/>
      <point x="361" y="950" type="curve"/>
      <point x="223" y="911" type="line"/>
      <point x="186" y="806" type="line"/>
      <point x="354" y="805" type="line"/>
      <point x="191" y="-107" type="line" smooth="yes"/>
      <point x="184" y="-148"/>
      <point x="178" y="-155"/>
      <point x="-34" y="-345" type="curve"/>
      <point x="14" y="-512" type="line"/>
      <point x="224" y="-341"/>
      <point x="361" y="-188"/>
      <point x="399" y="78" type="curve" smooth="yes"/>
      <point x="505" y="812" type="line"/>
      <point x="813" y="865" type="line"/>
      <point x="840" y="950" type="line"/>
      <point x="526" y="950" type="line"/>
      <point x="543" y="1034"/>
      <point x="581" y="1243"/>
      <point x="625" y="1320" type="curve"/>
      <point x="642" y="1326"/>
      <point x="663" y="1329"/>
      <point x="686" y="1329" type="curve" smooth="yes"/>
      <point x="737" y="1329"/>
      <point x="797" y="1315"/>
      <point x="847" y="1299" type="curve"/>
    </contour>
  </outline>
</glyph>
<glyph name="Scommaaccent" format="1">
  <advance width="1060"/>
  <unicode hex="0218"/>
  <outline>
    <contour>
      <point x="843" y="1020" type="line"/>
      <point x="936" y="1045" type="line"/>
      <point x="901" y="1394" type="line"/>
      <point x="796" y="1390" type="line"/>
      <point x="774" y="1396"/>
      <point x="679" y="1419"/>
      <point x="599" y="1419" type="curve" smooth="yes"/>
      <point x="344" y="1419"/>
      <point x="123" y="1272"/>
      <point x="123" y="1041" type="curve" smooth="yes"/>
      <point x="123" y="795"/>
      <point x="296" y="708"/>
      <point x="480" y="638" type="curve" smooth="yes"/>
      <point x="634" y="578"/>
      <point x="762" y="530"/>
      <point x="762" y="354" type="curve" smooth="yes"/>
      <point x="762" y="297"/>
      <point x="749" y="238"/>
      <point x="729" y="209" type="curve" smooth="yes"/>
      <point x="679" y="137"/>
      <point x="493" y="108"/>
      <point x="352" y="108" type="curve" smooth="yes"/>
      <point x="322" y="108"/>
      <point x="293" y="109"/>
      <point x="267" y="111" type="curve"/>
      <point x="246" y="377" type="line"/>
      <point x="141" y="405" type="line"/>
      <point x="66" y="82" type="line"/>
      <point x="149" y="24"/>
      <point x="296" y="-35"/>
      <point x="466" y="-35" type="curve" smooth="yes"/>
      <point x="759" y="-35"/>
      <point x="968" y="142"/>
      <point x="968" y="413" type="curve" smooth="yes"/>
      <point x="968" y="645"/>
      <point x="807" y="727"/>
      <point x="621" y="797" type="curve" smooth="yes"/>
      <point x="421" y="872"/>
      <point x="309" y="913"/>
      <point x="309" y="1073" type="curve" smooth="yes"/>
      <point x="309" y="1109"/>
      <point x="315" y="1160"/>
      <point x="331" y="1188" type="curve" smooth="yes"/>
      <point x="359" y="1238"/>
      <point x="494" y="1294"/>
      <point x="672" y="1295" type="curve" smooth="yes"/>
      <point x="685" y="1295"/>
      <point x="704" y="1295"/>
      <point x="719" y="1294" type="curve"/>
    </contour>
    <contour>
      <point x="425" y="-206" type="line"/>
      <point x="509" y="-230"/>
      <point x="529" y="-258"/>
      <point x="529" y="-289" type="curve" smooth="yes"/>
      <point x="529" y="-331"/>
      <point x="491" y="-369"/>
      <point x="411" y="-427" type="curve"/>
      <point x="426" y="-472" type="line"/>
      <point x="486" y="-472"/>
      <point x="647" y="-401"/>
      <point x="647" y="-261" type="curve" smooth="yes"/>
      <point x="647" y="-218"/>
      <point x="627" y="-180"/>
      <point x="598" y="-152" type="curve" smooth="yes"/>
      <point x="561" y="-117"/>
      <point x="510" y="-96"/>
      <point x="453" y="-95" type="curve"/>
    </contour>
  </outline>
</glyph>
<glyph name="uni021A" format="1">
  <advance width="1353"/>
  <unicode hex="021A"/>
  <outline>
    <contour>
      <point x="577" y="144" type="line"/>
      <point x="386" y="90" type="line"/>
      <point x="368" y="0" type="line"/>
      <point x="970" y="0" type="line"/>
      <point x="988" y="90" type="line"/>
      <point x="769" y="143" type="line"/>
      <point x="769" y="1289" type="line"/>
      <point x="1114" y="1251" type="line"/>
      <point x="1235" y="993" type="line"/>
      <point x="1324" y="1020" type="line"/>
      <point x="1284" y="1396" type="line"/>
      <point x="1158" y="1384" type="line"/>
      <point x="227" y="1384" type="line"/>
      <point x="96" y="1393" type="line"/>
      <point x="14" y="1023" type="line"/>
      <point x="106" y="1002" type="line"/>
      <point x="246" y="1252" type="line"/>
      <point x="577" y="1287" type="line"/>
    </contour>
    <contour>
      <point x="568" y="-206" type="line"/>
      <point x="652" y="-230"/>
      <point x="672" y="-258"/>
      <point x="672" y="-289" type="curve" smooth="yes"/>
      <point x="672" y="-331"/>
      <point x="634" y="-369"/>
      <point x="554" y="-427" type="curve"/>
      <point x="569" y="-472" type="line"/>
      <point x="629" y="-472"/>
      <point x="790" y="-401"/>
      <point x="790" y="-261" type="curve" smooth="yes"/>
      <point x="790" y="-218"/>
      <point x="770" y="-180"/>
      <point x="741" y="-152" type="curve" smooth="yes"/>
      <point x="704" y="-117"/>
      <point x="653" y="-96"/>
      <point x="596" y="-95" type="curve"/>
    </contour>
  </outline>
</glyph>
<glyph name="uni021B" format="1">
  <advance width="717"/>
  <unicode hex="021B"/>
  <outline>
    <contour>
      <point x="35" y="950" type="line"/>
      <point x="17" y="861" type="line"/>
      <point x="183" y="811" type="line"/>
      <point x="183" y="316" type="line" smooth="yes"/>
      <point x="183" y="74"/>
      <point x="278" y="-25"/>
      <point x="436" y="-25" type="curve" smooth="yes"/>
      <point x="517" y="-25"/>
      <point x="650" y="48"/>
      <point x="715" y="93" type="curve"/>
      <point x="696" y="140" type="line"/>
      <point x="681" y="137"/>
      <point x="572" y="104"/>
      <point x="503" y="104" type="curve" smooth="yes"/>
      <point x="483" y="104"/>
      <point x="467" y="107"/>
      <point x="456" y="113" type="curve" smooth="yes"/>
      <point x="391" y="150"/>
      <point x="362" y="259"/>
      <point x="362" y="367" type="curve" smooth="yes"/>
      <point x="362" y="811" type="line"/>
      <point x="663" y="863" type="line"/>
      <point x="679" y="950" type="line"/>
      <point x="362" y="950" type="line"/>
      <point x="362" y="1234" type="line"/>
      <point x="204" y="1169" type="line"/>
      <point x="183" y="950" type="line"/>
    </contour>
    <contour>
      <point x="324" y="-206" type="line"/>
      <point x="408" y="-230"/>
      <point x="428" y="-258"/>
      <point x="428" y="-289" type="curve" smooth="yes"/>
      <point x="428" y="-331"/>
      <point x="390" y="-369"/>
      <point x="310" y="-427" type="curve"/>
      <point x="325" y="-472" type="line"/>
      <point x="385" y="-472"/>
      <point x="546" y="-401"/>
      <point x="546" y="-261" type="curve" smooth="yes"/>
      <point x="546" y="-218"/>
      <point x="526" y="-180"/>
      <point x="497" y="-152" type="curve" smooth="yes"/>
      <point x="460" y="-117"/>
      <point x="409" y="-96"/>
      <point x="352" y="-95" type="curve"/>
    </contour>
  </outline>
</glyph>
<glyph name="circumflex" format="1">
  <advance width="1024"/>
  <unicode hex="02C6"/>
  <outline>
    <contour>
      <point x="269" y="1083" type="line"/>
      <point x="512" y="1229" type="line"/>
      <point x="755" y="1083" type="line"/>
      <point x="818" y="1145" type="line"/>
      <point x="567" y="1391" type="line"/>
      <point x="458" y="1391" type="line"/>
      <point x="206" y="1145" type="line"/>
    </contour>
  </outline>
</glyph>
<glyph name="caron" format="1">
  <advance width="1024"/>
  <unicode hex="02C7"/>
  <outline>
    <contour>
      <point x="756" y="1388" type="line"/>
      <point x="512" y="1239" type="line"/>
      <point x="268" y="1388" type="line"/>
      <point x="207" y="1329" type="line"/>
      <point x="455" y="1078" type="line"/>
      <point x="570" y="1078" type="line"/>
      <point x="817" y="1329" type="line"/>
    </contour>
  </outline>
</glyph>
<glyph name="breve" format="1">
  <advance width="1024"/>
  <unicode hex="02D8"/>
  <outline>
    <contour>
      <point x="650" y="1079"/>
      <point x="776" y="1173"/>
      <point x="776" y="1293" type="curve" smooth="yes"/>
      <point x="776" y="1309"/>
      <point x="774" y="1324"/>
      <point x="765" y="1353" type="curve"/>
      <point x="658" y="1353" type="line"/>
      <point x="641" y="1227"/>
      <point x="555" y="1188"/>
      <point x="511" y="1188" type="curve" smooth="yes"/>
      <point x="468" y="1188"/>
      <point x="381" y="1228"/>
      <point x="366" y="1353" type="curve"/>
      <point x="258" y="1353" type="line"/>
      <point x="249" y="1323"/>
      <point x="247" y="1308"/>
      <point x="247" y="1292" type="curve" smooth="yes"/>
      <point x="247" y="1174"/>
      <point x="372" y="1079"/>
      <point x="511" y="1079" type="curve" smooth="yes"/>
    </contour>
  </outline>
</glyph>
<glyph name="dotaccent" format="1">
  <advance width="1024"/>
  <unicode hex="02D9"/>
  <outline>
    <contour>
      <point x="431" y="1170"/>
      <point x="561" y="1154"/>
      <point x="589" y="1175" type="curve"/>
      <point x="620" y="1201"/>
      <point x="635" y="1331"/>
      <point x="612" y="1356" type="curve" smooth="yes"/>
      <point x="585" y="1387"/>
      <point x="459" y="1402"/>
      <point x="431" y="1379" type="curve" smooth="yes"/>
      <point x="401" y="1353"/>
      <point x="387" y="1225"/>
      <point x="410" y="1197" type="curve" smooth="yes"/>
    </contour>
  </outline>
</glyph>
<glyph name="ring" format="1">
  <advance width="1024"/>
  <unicode hex="02DA"/>
  <outline>
    <contour>
      <point x="619" y="1063"/>
      <point x="701" y="1153"/>
      <point x="701" y="1261" type="curve" smooth="yes"/>
      <point x="701" y="1372"/>
      <point x="615" y="1444"/>
      <point x="517" y="1444" type="curve" smooth="yes"/>
      <point x="398" y="1444"/>
      <point x="323" y="1351"/>
      <point x="323" y="1245" type="curve" smooth="yes"/>
      <point x="323" y="1134"/>
      <point x="406" y="1063"/>
      <point x="510" y="1063" type="curve" smooth="yes"/>
    </contour>
    <contour>
      <point x="460" y="1161"/>
      <point x="425" y="1212"/>
      <point x="425" y="1263" type="curve" smooth="yes"/>
      <point x="425" y="1308"/>
      <point x="456" y="1349"/>
      <point x="502" y="1349" type="curve" smooth="yes"/>
      <point x="556" y="1349"/>
      <point x="597" y="1298"/>
      <point x="597" y="1243" type="curve" smooth="yes"/>
      <point x="597" y="1199"/>
      <point x="566" y="1161"/>
      <point x="521" y="1161" type="curve" smooth="yes"/>
    </contour>
  </outline>
</glyph>
<glyph name="ogonek" format="1">
  <advance width="1024"/>
  <unicode hex="02DB"/>
  <outline>
    <contour>
      <point x="551" y="55" type="line"/>
      <point x="547" y="19"/>
      <point x="445" y="-38"/>
      <point x="376" y="-105" type="curve" smooth="yes"/>
      <point x="324" y="-156"/>
      <point x="291" y="-215"/>
      <point x="291" y="-287" type="curve" smooth="yes"/>
      <point x="291" y="-406"/>
      <point x="388" y="-476"/>
      <point x="493" y="-476" type="curve" smooth="yes"/>
      <point x="582" y="-476"/>
      <point x="658" y="-421"/>
      <point x="733" y="-355" type="curve"/>
      <point x="713" y="-315" type="line"/>
      <point x="652" y="-339"/>
      <point x="600" y="-356"/>
      <point x="557" y="-356" type="curve" smooth="yes"/>
      <point x="544" y="-356"/>
      <point x="532" y="-354"/>
      <point x="520" y="-349" type="curve" smooth="yes"/>
      <point x="473" y="-331"/>
      <point x="439" y="-282"/>
      <point x="439" y="-236" type="curve" smooth="yes"/>
      <point x="439" y="-175"/>
      <point x="512" y="-86"/>
      <point x="692" y="61" type="curve"/>
    </contour>
  </outline>
</glyph>
<glyph name="tilde" format="1">
  <advance width="1024"/>
  <unicode hex="02DC"/>
  <outline>
    <contour>
      <point x="200" y="1152" type="line"/>
      <point x="257" y="1214"/>
      <point x="350" y="1255"/>
      <point x="387" y="1255" type="curve" smooth="yes"/>
      <point x="437" y="1255"/>
      <point x="514" y="1131"/>
      <point x="625" y="1131" type="curve" smooth="yes"/>
      <point x="710" y="1131"/>
      <point x="781" y="1200"/>
      <point x="843" y="1264" type="curve"/>
      <point x="826" y="1377" type="line"/>
      <point x="760" y="1323"/>
      <point x="674" y="1277"/>
      <point x="638" y="1277" type="curve" smooth="yes"/>
      <point x="588" y="1277"/>
      <point x="509" y="1401"/>
      <point x="398" y="1401" type="curve" smooth="yes"/>
      <point x="314" y="1401"/>
      <point x="247" y="1334"/>
      <point x="180" y="1265" type="curve"/>
    </contour>
  </outline>
</glyph>
<glyph name="hungarumlaut" format="1">
  <advance width="1024"/>
  <unicode hex="02DD"/>
  <outline>
    <contour>
      <point x="413" y="1447" type="line"/>
      <point x="271" y="1187" type="line"/>
      <point x="305" y="1046" type="line"/>
      <point x="534" y="1322" type="line"/>
      <point x="510" y="1447" type="line"/>
    </contour>
    <contour>
      <point x="709" y="1447" type="line"/>
      <point x="568" y="1193" type="line"/>
      <point x="600" y="1046" type="line"/>
      <point x="829" y="1323" type="line"/>
      <point x="807" y="1447" type="line"/>
    </contour>
  </outline>
</glyph>
<glyph name="candrabindudeva" format="1">
  <advance width="0"/>
  <unicode hex="0901"/>
  <outline>
    <contour>
      <point x="264" y="1532"/>
      <point x="361" y="1618"/>
      <point x="361" y="1660" type="curve" smooth="yes"/>
      <point x="361" y="1700"/>
      <point x="272" y="1787"/>
      <point x="234" y="1787" type="curve" smooth="yes"/>
      <point x="202" y="1787"/>
      <point x="108" y="1700"/>
      <point x="108" y="1660" type="curve" smooth="yes"/>
      <point x="108" y="1618"/>
      <point x="204" y="1532"/>
      <point x="234" y="1532" type="curve" smooth="yes"/>
    </contour>
    <contour>
      <point x="-70" y="1569" type="line"/>
      <point x="6" y="1416"/>
      <point x="146" y="1315"/>
      <point x="282" y="1315" type="curve" smooth="yes"/>
      <point x="398" y="1315"/>
      <point x="487" y="1377"/>
      <point x="562" y="1514" type="curve"/>
      <point x="450" y="1622" type="line"/>
      <point x="393" y="1531"/>
      <point x="321" y="1445"/>
      <point x="228" y="1443" type="curve" smooth="yes"/>
      <point x="161" y="1443"/>
      <point x="86" y="1463"/>
      <point x="-8" y="1609" type="curve"/>
    </contour>
  </outline>
</glyph>
<glyph name="anusvaradeva" format="1">
  <advance width="0"/>
  <unicode hex="0902"/>
  <outline>
    <contour>
      <point x="286" y="1332"/>
      <point x="383" y="1418"/>
      <point x="383" y="1460" type="curve" smooth="yes"/>
      <point x="383" y="1500"/>
      <point x="294" y="1587"/>
      <point x="256" y="1587" type="curve" smooth="yes"/>
      <point x="224" y="1587"/>
      <point x="130" y="1500"/>
      <point x="130" y="1460" type="curve" smooth="yes"/>
      <point x="130" y="1418"/>
      <point x="226" y="1332"/>
      <point x="256" y="1332" type="curve" smooth="yes"/>
    </contour>
  </outline>
</glyph>
<glyph name="visargadeva" format="1">
  <advance width="585"/>
  <unicode hex="0903"/>
  <outline>
    <contour>
      <point x="242" y="652"/>
      <point x="339" y="738"/>
      <point x="339" y="780" type="curve" smooth="yes"/>
      <point x="339" y="820"/>
      <point x="250" y="907"/>
      <point x="212" y="907" type="curve" smooth="yes"/>
      <point x="180" y="907"/>
      <point x="86" y="820"/>
      <point x="86" y="780" type="curve" smooth="yes"/>
      <point x="86" y="738"/>
      <point x="182" y="652"/>
      <point x="212" y="652" type="curve" smooth="yes"/>
    </contour>
    <contour>
      <point x="242" y="172"/>
      <point x="339" y="258"/>
      <point x="339" y="300" type="curve" smooth="yes"/>
      <point x="339" y="340"/>
      <point x="250" y="427"/>
      <point x="212" y="427" type="curve" smooth="yes"/>
      <point x="180" y="427"/>
      <point x="86" y="340"/>
      <point x="86" y="300" type="curve" smooth="yes"/>
      <point x="86" y="258"/>
      <point x="182" y="172"/>
      <point x="212" y="172" type="curve" smooth="yes"/>
    </contour>
  </outline>
</glyph>
